<?xml version="1.0" encoding="utf-8"?>
<!-- Generator: Adobe Illustrator 27.5.0, SVG Export Plug-In . SVG Version: 6.00 Build 0)  -->
<svg version="1.1" xmlns="http://www.w3.org/2000/svg" xmlns:xlink="http://www.w3.org/1999/xlink" x="0px" y="0px"
	 viewBox="0 0 750 500" style="enable-background:new 0 0 750 500;" xml:space="preserve">
<!-- <g id="BACKGROUND">
	<rect style="fill:#E3D0BD;" width="750" height="500"/>
</g> -->
<g id="OBJECTS">
	<g>
		<g>
			<g>
				<path style="fill:#2E7141;" d="M393.189,359.643c2.723,5.466,5.514,10.898,8.385,16.287c3.256,6.111,6.608,12.177,10.067,18.182
					c-4.862,12.982-8.756,26.32-11.616,39.886l-32.651-0.074C367.375,433.923,377.35,397.825,393.189,359.643z"/>
				<path style="fill:#2E7141;" d="M415.544,384.264c-1.015,2.429-1.999,4.87-2.945,7.326c-6.39-11.146-12.404-22.51-18.112-34.014
					c-0.077-0.156-0.175-0.273-0.285-0.358c0.874-2.079,1.765-4.161,2.673-6.242c6.569,10.83,12.765,21.883,18.575,33.138
					C415.479,384.169,415.51,384.218,415.544,384.264z"/>
				<path style="fill:#2E7141;" d="M452.472,397.31c-3.269,5.937-6.577,11.865-9.22,18.115c-2.313,5.472-4.336,11.426-4.269,17.441
					c-3.582-4.976-7.049-10.034-10.407-15.164c-5.1-7.793-9.967-15.736-14.638-23.794c6.815-17.994,15.5-35.274,25.858-51.492
					c6.238-9.768,13.086-19.138,20.495-28.041c0.036,0.007,0.069,0.018,0.108,0.022c4.989,0.52,9.962,1.177,14.914,1.983
					c3.897,0.634,7.779,1.362,11.642,2.171c-1.042,3.459-2.516,6.681-4.426,9.473c-13.366,19.535,5.018,12.276,15.422,17.478
					c0.643,0.321,1.304,0.737,1.968,1.238c-7.797,3.083-14.347,8.405-20.283,14.225C468.729,371.658,459.825,383.957,452.472,397.31
					z"/>
				<path style="fill:#2E7141;" d="M409.238,407.35c1.175-3.663,2.428-7.301,3.755-10.911c7.522,12.912,15.565,25.523,24.299,37.642
					l-35.142-0.08C404.062,425.007,406.428,416.109,409.238,407.35z"/>
				<path style="fill:#2E7141;" d="M461.888,312.473c7.363-8.688,15.267-16.916,23.665-24.62c3.584,8.666,4.257,19.376,1.952,28.689
					C479.039,314.774,470.488,313.417,461.888,312.473z"/>
				<path style="fill:#2E7141;" d="M469.533,272.416c0.338,2.983-2.299,6.119-5.449,5.653c-2.858-0.423-4.72-3.667-3.928-6.358
					c0.028-0.093,0.041-0.182,0.045-0.268c3.416-0.391,6.531-0.127,9.342,0.678C469.528,272.211,469.52,272.307,469.533,272.416z"/>
				<path style="fill:#2E7141;" d="M446.417,413.399c2.698-5.842,5.877-11.448,8.981-17.081c3.613-6.556,7.726-12.84,12.296-18.77
					c4.516-5.86,9.486-11.39,14.848-16.488c5.319-5.056,11.22-9.692,18.115-12.38c0.377-0.147,0.588-0.436,0.666-0.753
					c7.319,6.843,13.557,23.415-3.373,37.672c-19.535,16.45-15.422,18.507-12.338,30.844c3.084,12.338-1.792,17.743-1.792,17.743
					l-42.705-0.097C440.689,426.925,443.466,419.79,446.417,413.399z"/>
				<path style="fill:#2E7141;" d="M484.615,285.876c-10.005,9.129-19.323,19.002-27.865,29.513
					c-15.244,18.76-28.05,39.48-38.004,61.508c-0.734,1.624-1.451,3.256-2.154,4.894c-5.647-10.868-11.648-21.549-18.003-32.019
					c-0.241-0.397-0.615-0.531-0.971-0.489c16.249-36.884,37.599-72.854,60.374-77.49c-0.691,3.728,1.966,7.783,5.812,8.336
					c4.135,0.595,8.026-3.194,7.851-7.282c5.784,2.338,10.124,7.083,12.997,12.999C484.639,285.856,484.627,285.865,484.615,285.876
					z"/>
			</g>
			<g>
				<path style="fill:#F6E7DA;" d="M488.057,434.608c0,0,14.646-22.161,30.434-41.885c4.449,5.339,8.749,10.799,12.891,16.379
					c0.019,0.025,0.038,0.048,0.059,0.069c-6.612,7.741-12.855,15.797-18.702,24.131c-0.196,0.28-0.131,0.553,0.049,0.737
					L488.057,434.608z"/>
				<path style="fill:#F6E7DA;" d="M532.318,408.151c-4.174-5.613-8.503-11.108-12.982-16.479c2.363-2.931,4.746-5.798,7.105-8.52
					c3.701,6.827,7.086,13.836,9.039,21.381C534.416,405.731,533.363,406.938,532.318,408.151z"/>
				<path style="fill:#F6E7DA;" d="M513.885,433.973c2.437-3.473,4.941-6.899,7.513-10.273c0.753-0.987,1.514-1.969,2.279-2.947
					c0.047,0.01,0.096,0.015,0.15,0.015c10.141-0.015,20.37-0.19,30.373,1.741c0.836,0.161,1.19-1.118,0.353-1.28
					c-9.835-1.899-19.87-1.811-29.845-1.79c7.264-9.191,15.045-17.973,23.28-26.306c0.123,0.983,0.574,1.767,1.466,2.287
					c7.838,4.572,8.491-11.757,22.207-5.225c13.716,6.532-26.779,43.108-26.779,43.108l-31.03,0.713
					C513.863,434.001,513.874,433.988,513.885,433.973z"/>
				<path style="fill:#F6E7DA;" d="M548.103,391.132c1.696-8.646,16.89-25.702,4.616-28.37c-5.338-1.161-15.048,7.577-25.349,19.324
					c3.703,6.803,7.119,13.781,9.169,21.266c1.524-1.699,3.064-3.383,4.625-5.048C543.438,395.876,545.753,393.487,548.103,391.132z
					"/>
			</g>
			<g>
				<path style="fill:#2E7141;" d="M340.942,359.643c-2.723,5.466-5.514,10.898-8.385,16.287
					c-3.256,6.111-6.608,12.177-10.067,18.182c4.862,12.982,8.756,26.32,11.616,39.886l32.651-0.074
					C366.756,433.923,356.782,397.825,340.942,359.643z"/>
				<path style="fill:#2E7141;" d="M318.587,384.264c1.015,2.429,1.999,4.87,2.945,7.326c6.39-11.146,12.404-22.51,18.112-34.014
					c0.077-0.156,0.175-0.273,0.285-0.358c-0.874-2.079-1.765-4.161-2.673-6.242c-6.569,10.83-12.765,21.883-18.576,33.138
					C318.653,384.169,318.621,384.218,318.587,384.264z"/>
				<path style="fill:#2E7141;" d="M281.66,397.31c3.269,5.937,6.577,11.865,9.22,18.115c2.313,5.472,4.336,11.426,4.269,17.441
					c3.582-4.976,7.049-10.034,10.407-15.164c5.1-7.793,9.967-15.736,14.638-23.794c-6.815-17.994-15.5-35.274-25.858-51.492
					c-6.238-9.768-13.086-19.138-20.495-28.041c-0.036,0.007-0.069,0.018-0.107,0.022c-4.989,0.52-9.963,1.177-14.914,1.983
					c-3.897,0.634-7.779,1.362-11.642,2.171c1.042,3.459,2.516,6.681,4.426,9.473c13.366,19.535-5.018,12.276-15.422,17.478
					c-0.643,0.321-1.304,0.737-1.968,1.238c7.797,3.083,14.347,8.405,20.283,14.225C265.402,371.658,274.307,383.957,281.66,397.31z
					"/>
				<path style="fill:#2E7141;" d="M324.894,407.35c-1.175-3.663-2.428-7.301-3.755-10.911c-7.522,12.912-15.565,25.523-24.3,37.642
					l35.142-0.08C330.069,425.007,327.703,416.109,324.894,407.35z"/>
				<path style="fill:#2E7141;" d="M272.243,312.473c-7.363-8.688-15.267-16.916-23.665-24.62
					c-3.584,8.666-4.257,19.376-1.952,28.689C255.092,314.774,263.643,313.417,272.243,312.473z"/>
				<path style="fill:#2E7141;" d="M264.599,272.416c-0.338,2.983,2.299,6.119,5.449,5.653c2.858-0.423,4.72-3.667,3.928-6.358
					c-0.028-0.093-0.041-0.182-0.045-0.268c-3.416-0.391-6.531-0.127-9.342,0.678C264.604,272.211,264.611,272.307,264.599,272.416z
					"/>
				<path style="fill:#2E7141;" d="M287.715,413.399c-2.698-5.842-5.877-11.448-8.981-17.081c-3.613-6.556-7.726-12.84-12.296-18.77
					c-4.516-5.86-9.486-11.39-14.848-16.488c-5.319-5.056-11.22-9.692-18.115-12.38c-0.377-0.147-0.588-0.436-0.666-0.753
					c-7.319,6.843-13.557,23.415,3.373,37.672c19.535,16.45,15.422,18.507,12.338,30.844c-3.084,12.338,1.792,17.743,1.792,17.743
					l42.705-0.097C293.442,426.925,290.665,419.79,287.715,413.399z"/>
				<path style="fill:#2E7141;" d="M249.517,285.876c10.005,9.129,19.323,19.002,27.865,29.513
					c15.244,18.76,28.05,39.48,38.004,61.508c0.734,1.624,1.451,3.256,2.154,4.894c5.647-10.868,11.648-21.549,18.003-32.019
					c0.241-0.397,0.615-0.531,0.971-0.489c-16.249-36.884-37.599-72.854-60.374-77.49c0.691,3.728-1.966,7.783-5.812,8.336
					c-4.135,0.595-8.026-3.194-7.851-7.282c-5.784,2.338-10.124,7.083-12.997,12.999
					C249.492,285.856,249.505,285.865,249.517,285.876z"/>
			</g>
			<g>
				<path style="fill:#F6E7DA;" d="M249.741,434.608c0,0-14.646-22.161-30.434-41.885c-4.449,5.339-8.749,10.799-12.891,16.379
					c-0.019,0.025-0.038,0.048-0.059,0.069c6.612,7.741,12.855,15.797,18.702,24.131c0.196,0.28,0.131,0.553-0.049,0.737
					L249.741,434.608z"/>
				<path style="fill:#F6E7DA;" d="M205.48,408.151c4.174-5.613,8.502-11.108,12.982-16.479c-2.363-2.931-4.746-5.798-7.105-8.52
					c-3.701,6.827-7.086,13.836-9.039,21.381C203.382,405.731,204.435,406.938,205.48,408.151z"/>
				<path style="fill:#F6E7DA;" d="M223.914,433.973c-2.437-3.473-4.941-6.899-7.514-10.273c-0.753-0.987-1.514-1.969-2.279-2.947
					c-0.047,0.01-0.096,0.015-0.15,0.015c-10.141-0.015-20.37-0.19-30.373,1.741c-0.836,0.161-1.19-1.118-0.353-1.28
					c9.835-1.899,19.87-1.811,29.845-1.79c-7.264-9.191-15.045-17.973-23.28-26.306c-0.123,0.983-0.574,1.767-1.466,2.287
					c-7.838,4.572-8.491-11.757-22.207-5.225c-13.716,6.532,26.779,43.108,26.779,43.108l31.03,0.713
					C223.936,434.001,223.924,433.988,223.914,433.973z"/>
				<path style="fill:#F6E7DA;" d="M196.634,398.303c1.561,1.665,3.101,3.349,4.625,5.048c2.049-7.484,5.466-14.463,9.169-21.266
					c-10.3-11.747-20.01-20.485-25.348-19.324c-12.274,2.668,2.92,19.724,4.616,28.37
					C192.045,393.487,194.36,395.876,196.634,398.303z"/>
			</g>
		</g>
		<g>
			<g>
				<rect x="53.611" y="199.66" style="fill:none;stroke:#F6E7DA;stroke-miterlimit:10;" width="42.565" height="17.292"/>
				<rect x="94.846" y="216.287" style="fill:none;stroke:#F6E7DA;stroke-miterlimit:10;" width="42.565" height="17.292"/>
			</g>
			<g>
				
					<rect x="616.271" y="167.736" transform="matrix(-1 -1.224647e-16 1.224647e-16 -1 1275.1063 352.7634)" style="fill:none;stroke:#F6E7DA;stroke-miterlimit:10;" width="42.565" height="17.292"/>
				
					<rect x="575.035" y="184.363" transform="matrix(-1 -1.224647e-16 1.224647e-16 -1 1192.6361 386.0175)" style="fill:none;stroke:#F6E7DA;stroke-miterlimit:10;" width="42.565" height="17.292"/>
			</g>
		</g>
		<g>
			<path style="fill:none;stroke:#2E7141;stroke-width:1.1053;stroke-miterlimit:10;" d="M614.075,269.056
				c0-2.822-2.287-5.109-5.109-5.109s-5.109,2.287-5.109,5.109c0,2.821,2.287,5.109,5.109,5.109S614.075,271.878,614.075,269.056z"
				/>
			<path style="fill:none;stroke:#2E7141;stroke-width:1.1053;stroke-miterlimit:10;" d="M133.803,355.353
				c0-2.821-2.287-5.109-5.109-5.109c-2.821,0-5.109,2.287-5.109,5.109c0,2.822,2.287,5.109,5.109,5.109
				C131.516,360.462,133.803,358.174,133.803,355.353z"/>
			<circle style="fill:#F6E7DA;" cx="615.082" cy="242.568" r="7.719"/>
			<path style="fill:#F6E7DA;" d="M222.735,127.166c0-3.045-2.469-5.514-5.514-5.514c-3.045,0-5.513,2.468-5.513,5.514
				c0,3.045,2.468,5.514,5.513,5.514C220.266,132.679,222.735,130.211,222.735,127.166z"/>
			
				<ellipse transform="matrix(0.9872 -0.1597 0.1597 0.9872 -51.573 104.9378)" style="fill:#F6E7DA;" cx="626.912" cy="373.246" rx="8.822" ry="8.822"/>
			
				<ellipse transform="matrix(0.7071 -0.7071 0.7071 0.7071 -196.5837 181.4457)" style="fill:#F6E7DA;" cx="120.733" cy="328.02" rx="9.924" ry="9.924"/>
			
				<ellipse transform="matrix(0.3846 -0.9231 0.9231 0.3846 43.3169 324.6224)" style="fill:none;stroke:#2E7141;stroke-width:1.1053;stroke-miterlimit:10;" cx="265.107" cy="129.826" rx="7.981" ry="7.981"/>
		</g>
	</g>
	<g>
		<path style="fill:none;stroke:#8F3231;stroke-width:2.7686;stroke-miterlimit:10;" d="M248.48,431.773V177.156
			c0-17.455,14.15-31.605,31.605-31.605h186.022c17.455,0,31.605,14.15,31.605,31.605v254.617"/>
		<g>
			<path style="fill:none;stroke:#8F3231;stroke-width:2.7686;stroke-miterlimit:10;" d="M227.419,447.513v-2.872
				c0-6.74,5.464-12.204,12.204-12.204h19.488c6.74,0,12.204,5.464,12.204,12.204v2.872"/>
			<g>
				<path style="fill:#070B0C;" d="M232.296,445.297c0-2.939-2.382-5.321-5.321-5.321c-2.939,0-5.321,2.382-5.321,5.321
					c0,2.939,2.382,5.321,5.321,5.321C229.914,450.617,232.296,448.235,232.296,445.297z"/>
				<path style="fill:#E3D0BD;" d="M230.405,445.297c0-1.894-1.535-3.43-3.429-3.43s-3.43,1.535-3.43,3.43
					c0,1.894,1.535,3.43,3.43,3.43S230.405,447.191,230.405,445.297z"/>
			</g>
			<g>
				<path style="fill:#070B0C;" d="M276.691,445.297c0-2.939-2.382-5.321-5.321-5.321s-5.321,2.382-5.321,5.321
					c0,2.939,2.382,5.321,5.321,5.321S276.691,448.235,276.691,445.297z"/>
				<path style="fill:#E3D0BD;" d="M274.8,445.297c0-1.894-1.535-3.43-3.43-3.43s-3.43,1.535-3.43,3.43
					c0,1.894,1.535,3.43,3.43,3.43S274.8,447.191,274.8,445.297z"/>
			</g>
		</g>
		<g>
			<path style="fill:none;stroke:#8F3231;stroke-width:2.7686;stroke-miterlimit:10;" d="M474.84,447.513v-2.872
				c0-6.74,5.464-12.204,12.204-12.204h19.488c6.74,0,12.203,5.464,12.203,12.204v2.872"/>
			<g>
				<path style="fill:#070B0C;" d="M479.717,445.297c0-2.939-2.382-5.321-5.321-5.321s-5.321,2.382-5.321,5.321
					c0,2.939,2.382,5.321,5.321,5.321S479.717,448.235,479.717,445.297z"/>
				<path style="fill:#E3D0BD;" d="M477.826,445.297c0-1.894-1.535-3.43-3.43-3.43s-3.43,1.535-3.43,3.43
					c0,1.894,1.535,3.43,3.43,3.43S477.826,447.191,477.826,445.297z"/>
			</g>
			<g>
				<path style="fill:#070B0C;" d="M524.112,445.297c0-2.939-2.382-5.321-5.321-5.321c-2.939,0-5.321,2.382-5.321,5.321
					c0,2.939,2.382,5.321,5.321,5.321C521.729,450.617,524.112,448.235,524.112,445.297z"/>
				<path style="fill:#E3D0BD;" d="M522.22,445.297c0-1.894-1.535-3.43-3.429-3.43c-1.894,0-3.43,1.535-3.43,3.43
					c0,1.894,1.536,3.43,3.43,3.43C520.685,448.726,522.22,447.191,522.22,445.297z"/>
			</g>
		</g>
	</g>
	<g>
		<g>
			<g>
				<path style="fill:#02403F;" d="M309.062,174.562c0,0,21.316,12.809,41.376-0.817c0,0-1.285,22.109-19.646,22.022
					C312.431,195.68,309.062,174.562,309.062,174.562z"/>
				<g style="opacity:0.26;">
					<g>
						<path style="fill:#FCFCFC;" d="M312.59,180.898c8.667,4.491,18.909,5.399,28.223,2.462c0.715-0.226,0.41-1.355-0.311-1.128
							c-9.013,2.842-18.927,2.006-27.322-2.344C312.513,179.542,311.921,180.551,312.59,180.898L312.59,180.898z"/>
					</g>
				</g>
			</g>
			<g>
				<g>
					<g>
						<path style="fill:#001D55;" d="M288.832,200.288c22.048-0.27,44.095-0.539,66.143-0.809
							c6.299-0.077,12.599-0.154,18.898-0.231c0.752-0.009,0.754-1.179,0-1.169c-22.047,0.27-44.095,0.539-66.143,0.809
							c-6.299,0.077-12.599,0.154-18.898,0.231C288.08,199.127,288.077,200.297,288.832,200.288L288.832,200.288z"/>
					</g>
				</g>
				<g>
					<g>
						<g>
							<path style="fill:#001D55;" d="M327.199,148.365c-0.709-2.369-0.331-4.55,2.207-5.38c2.627-0.859,5.396-0.002,6.838,2.452
								c1.871,3.183,0.481,6.816-1.448,9.574c-1.658,2.37-3.608,4.639-3.755,7.664c-0.036,0.752,1.133,0.75,1.17,0
								c0.145-2.972,2.372-5.236,3.944-7.58c1.637-2.442,2.606-5.347,1.888-8.288c-1.114-4.562-6.537-6.892-10.497-4.221
								c-2.087,1.408-2.137,3.878-1.475,6.09C326.287,149.395,327.416,149.088,327.199,148.365L327.199,148.365z"/>
						</g>
					</g>
					<g>
						<g>
							<path style="fill:#001D55;" d="M331.911,164.271c15.684,9.195,29.863,20.813,41.969,34.376
								c0.502,0.563,1.327-0.267,0.827-0.827c-12.168-13.633-26.442-25.317-42.206-34.559
								C331.851,162.879,331.262,163.89,331.911,164.271L331.911,164.271z"/>
						</g>
					</g>
					<g>
						<g>
							<path style="fill:#001D55;" d="M331.653,162.575c-13.406,7.038-26.05,15.807-36.641,26.678
								c-2.932,3.01-5.684,6.185-8.25,9.512c-0.459,0.596,0.556,1.178,1.01,0.59c9.178-11.895,20.918-21.652,33.627-29.572
								c3.535-2.203,7.157-4.263,10.845-6.199C332.91,163.235,332.319,162.225,331.653,162.575L331.653,162.575z"/>
						</g>
					</g>
				</g>
			</g>
			<path style="fill:#02595D;" d="M309.638,170.821c0,0-0.395,22.854,20.362,23.845c20.757,0.991,20.094-23.509,20.094-23.509
				l13.278,8.742c0,0-10.718,28.843,3.318,38.594l2.054,2.016l24.91,93.646l-112.768,1.605l15.025-96.85l-0.009,0.262l0,0
				c4.965-0.691,10.312-15.139,5.693-22.112l-3.708-16.678L309.638,170.821z"/>
			<path style="fill:#02403F;" d="M295.544,294.791c-7.508-18.454,1.841-68.275,0.357-72.082l-14.417,93.226l39.335-1.315
				C308.599,314.241,298.279,301.513,295.544,294.791z"/>
			<g>
				<g>
					<g>
						<path style="fill:#FCFCFC;" d="M315.412,208.256c3.01,0,3.015-4.678,0-4.678C312.402,203.578,312.397,208.256,315.412,208.256
							L315.412,208.256z"/>
					</g>
				</g>
				<g>
					<g>
						<path style="fill:#FCFCFC;" d="M336.421,235.907c3.01,0,3.015-4.678,0-4.678C333.41,231.229,333.405,235.907,336.421,235.907
							L336.421,235.907z"/>
					</g>
				</g>
				<g>
					<g>
						<path style="fill:#FCFCFC;" d="M305.124,253.887c3.01,0,3.015-4.678,0-4.678C302.114,249.208,302.109,253.887,305.124,253.887
							L305.124,253.887z"/>
					</g>
				</g>
				<g>
					<g>
						<path style="fill:#FCFCFC;" d="M346.239,211.557c3.01,0,3.015-4.678,0-4.678C343.228,206.879,343.223,211.557,346.239,211.557
							L346.239,211.557z"/>
					</g>
				</g>
				<g>
					<g>
						<path style="fill:#FCFCFC;" d="M363.658,273.194c3.01,0,3.015-4.678,0-4.678C360.648,268.516,360.643,273.194,363.658,273.194
							L363.658,273.194z"/>
					</g>
				</g>
				<g>
					<g>
						<path style="fill:#FCFCFC;" d="M317.71,294.617c3.01,0,3.015-4.678,0-4.678C314.699,289.939,314.694,294.617,317.71,294.617
							L317.71,294.617z"/>
					</g>
				</g>
				<g>
					<g>
						<path style="fill:#FCFCFC;" d="M334.202,269.651c3.01,0,3.015-4.678,0-4.678C331.191,264.972,331.186,269.651,334.202,269.651
							L334.202,269.651z"/>
					</g>
				</g>
				<g>
					<g>
						<path style="fill:#FCFCFC;" d="M365.903,305.016c3.01,0,3.015-4.678,0-4.678C362.893,300.338,362.888,305.016,365.903,305.016
							L365.903,305.016z"/>
					</g>
				</g>
				<g>
					<g>
						<path style="fill:#FCFCFC;" d="M366.716,240.998c3.01,0,3.015-4.678,0-4.678C363.706,236.319,363.701,240.998,366.716,240.998
							L366.716,240.998z"/>
					</g>
				</g>
				<g>
					<g>
						<path style="fill:#FCFCFC;" d="M296.03,299.871c3.01,0,3.015-4.678,0-4.678C293.02,295.193,293.014,299.871,296.03,299.871
							L296.03,299.871z"/>
					</g>
				</g>
				<g>
					<g>
						<path style="fill:#FCFCFC;" d="M306.888,188.852c3.01,0,3.015-4.678,0-4.678C303.877,184.173,303.872,188.852,306.888,188.852
							L306.888,188.852z"/>
					</g>
				</g>
				<g>
					<g>
						<path style="fill:#FCFCFC;" d="M355.041,186.257c3.01,0,3.015-4.678,0-4.678C352.03,181.579,352.025,186.257,355.041,186.257
							L355.041,186.257z"/>
					</g>
				</g>
				<g>
					<g>
						<path style="fill:#FCFCFC;" d="M313.926,228.586c3.01,0,3.015-4.678,0-4.678C310.916,223.908,310.911,228.586,313.926,228.586
							L313.926,228.586z"/>
					</g>
				</g>
				<g>
					<g>
						<path style="fill:#FCFCFC;" d="M347.499,290.471c3.01,0,3.015-4.678,0-4.678C344.489,285.792,344.484,290.471,347.499,290.471
							L347.499,290.471z"/>
					</g>
				</g>
				<g>
					<g>
						<path style="fill:#FCFCFC;" d="M304.013,279.52c3.01,0,3.015-4.678,0-4.678C301.002,274.842,300.997,279.52,304.013,279.52
							L304.013,279.52z"/>
					</g>
				</g>
				<g>
					<g>
						<path style="fill:#FCFCFC;" d="M351.002,248.021c3.01,0,3.015-4.678,0-4.678C347.992,243.342,347.987,248.021,351.002,248.021
							L351.002,248.021z"/>
					</g>
				</g>
				<g>
					<g>
						<path style="fill:#FCFCFC;" d="M322.274,248.588c3.01,0,3.015-4.678,0-4.678C319.264,243.909,319.259,248.588,322.274,248.588
							L322.274,248.588z"/>
					</g>
				</g>
				<g>
					<g>
						<path style="fill:#FCFCFC;" d="M358.257,223.56c3.01,0,3.015-4.678,0-4.678C355.247,218.881,355.242,223.56,358.257,223.56
							L358.257,223.56z"/>
					</g>
				</g>
				<g>
					<g>
						<path style="fill:#FCFCFC;" d="M300.71,233.754c3.01,0,3.015-4.678,0-4.678C297.7,229.076,297.695,233.754,300.71,233.754
							L300.71,233.754z"/>
					</g>
				</g>
				<g>
					<g>
						<path style="fill:#FCFCFC;" d="M377.663,291.628c3.01,0,3.015-4.678,0-4.678C374.653,286.95,374.648,291.628,377.663,291.628
							L377.663,291.628z"/>
					</g>
				</g>
				<g>
					<g>
						<path style="fill:#FCFCFC;" d="M334.435,306.069c3.01,0,3.015-4.678,0-4.678C331.425,301.39,331.42,306.069,334.435,306.069
							L334.435,306.069z"/>
					</g>
				</g>
				<g>
					<g>
						<path style="fill:#FCFCFC;" d="M330.504,212.083c3.01,0,3.015-4.678,0-4.678C327.494,207.405,327.489,212.083,330.504,212.083
							L330.504,212.083z"/>
					</g>
				</g>
			</g>
		</g>
		<g>
			<g>
				<g>
					<g>
						<path style="fill:#F6E7DA;" d="M342.931,166.919c1.097-0.214,2.126,1.033,2.73,1.775c0.945,1.16,1.689,2.497,2.34,3.839
							c1.625,3.345,2.378,7.075,3.096,10.7c1.753,8.847,2.12,17.909,1.249,26.881c-0.252,2.598-0.605,5.186-1.045,7.759
							c-0.216,1.268-0.453,2.532-0.709,3.792c-0.129,0.638-0.263,1.275-0.402,1.911c-0.084,0.383-0.142,1.692-0.513,1.858
							c0.248,0,0.496,0,0.745,0c0.075,0.14,0.149,0.279,0.223,0.419c-0.237,0.181-0.474,0.361-0.711,0.542
							c0.043,0.005,0.087,0.01,0.13,0.014c0.942,0.104,0.935-1.373,0-1.475c-0.043-0.005-0.087-0.01-0.13-0.014
							c-0.347-0.038-0.597,0.262-0.711,0.542c-0.205,0.501,0.004,1.108,0.543,1.284c0.789,0.258,1.255-0.456,1.47-1.096
							c0.855-2.543,1.172-5.448,1.607-8.091c0.87-5.289,1.391-10.639,1.438-16.001c0.047-5.329-0.376-10.657-1.25-15.914
							c-0.752-4.519-1.607-9.245-3.552-13.427c-1.135-2.44-3.532-7.387-6.941-6.72C341.607,165.678,342.002,167.101,342.931,166.919
							L342.931,166.919z"/>
					</g>
				</g>
				<g>
					<polygon style="fill:#F6E7DA;" points="324.723,275.821 336.938,289.471 353.718,281.618 364.388,228.247 335.393,222.451 
											"/>
				</g>
				<g>
					<g>
						<g>
							<g>
								<path style="fill:#070B0C;" d="M349.291,260.817c0.343-0.457,0.46-1.029,0.411-1.591c-0.058-0.668-0.277-1.313-0.567-1.931
									c0.02-0.069,0.034-0.144,0.037-0.226L348,254.603l-2.38,1.269l1.997-4.806l4.826,1.169l-1.805,0.962l1.454,3.059
									l0.031,0.232c0.176,1.317-0.311,2.631-1.304,3.514c-0.457,0.406-0.992,0.695-1.561,0.857
									C349.269,260.844,349.281,260.831,349.291,260.817z"/>
								<path style="fill:#070B0C;" d="M347.918,257.992c0.358,0.091,0.635-0.025,0.799-0.133c0.158,0.38,0.282,0.771,0.349,1.173
									c0.076,0.456,0.051,0.944-0.206,1.341c-0.185,0.286-0.457,0.487-0.76,0.636c-0.307-0.005-0.617-0.046-0.922-0.124
									l-3.026-0.773l0.74-2.893L347.918,257.992z"/>
							</g>
							<g>
								<path style="fill:#070B0C;" d="M334.01,253.802c0.177,0.543,0.578,0.968,1.066,1.251c0.58,0.336,1.233,0.528,1.906,0.646
									c0.045,0.056,0.099,0.11,0.164,0.16l2.692,0.457l0.329-2.677l2.786,4.396l-3.73,3.278l0.25-2.03l-3.339-0.567l-0.207-0.108
									c-1.18-0.612-1.975-1.766-2.127-3.086c-0.07-0.607,0.001-1.211,0.195-1.771C334,253.768,334.004,253.785,334.01,253.802z"/>
								<path style="fill:#070B0C;" d="M337.111,254.301c-0.281,0.241-0.344,0.534-0.35,0.73c-0.402-0.089-0.793-0.212-1.16-0.388
									c-0.416-0.2-0.801-0.501-0.979-0.939c-0.128-0.316-0.136-0.654-0.084-0.987c0.181-0.249,0.392-0.479,0.631-0.683
									l2.372-2.032l1.943,2.267L337.111,254.301z"/>
							</g>
							<g>
								<path style="fill:#070B0C;" d="M347.464,244.808c-0.561-0.107-1.126,0.04-1.61,0.331c-0.574,0.346-1.057,0.826-1.485,1.359
									c-0.07,0.012-0.144,0.033-0.219,0.066l-1.698,2.138l2.186,1.579l-5.195,0.321l-1.073-4.848l1.658,1.198l2.106-2.652
									l0.194-0.13c1.105-0.738,2.499-0.878,3.729-0.375c0.566,0.231,1.061,0.584,1.457,1.025
									C347.498,244.816,347.481,244.811,347.464,244.808z"/>
								<path style="fill:#070B0C;" d="M345.532,247.285c-0.075-0.362-0.302-0.559-0.471-0.659c0.272-0.309,0.568-0.593,0.9-0.829
									c0.376-0.269,0.825-0.461,1.295-0.405c0.339,0.04,0.639,0.196,0.905,0.402c0.131,0.279,0.23,0.574,0.294,0.882l0.637,3.058
									l-2.923,0.609L345.532,247.285z"/>
							</g>
						</g>
					</g>
					<path style="fill:#070B0C;" d="M333.908,265.917l13.856,2.77c0.709,0.142,1.398-0.318,1.54-1.026l0,0
						c0.142-0.709-0.318-1.398-1.027-1.539l-13.856-2.77c-0.708-0.142-1.398,0.318-1.539,1.026l0,0
						C332.74,265.086,333.2,265.775,333.908,265.917z"/>
					<path style="fill:#070B0C;" d="M332.626,272.331l13.856,2.77c0.709,0.142,1.398-0.318,1.54-1.027l0,0
						c0.142-0.708-0.318-1.398-1.027-1.539l-13.856-2.77c-0.708-0.142-1.398,0.318-1.539,1.027l0,0
						C331.458,271.5,331.917,272.19,332.626,272.331z"/>
				</g>
			</g>
			<g>
				<circle style="fill:#070B0C;" cx="347.921" cy="230.741" r="2.206"/>
				<g>
					<g>
						<path style="fill:#F6E7DA;" d="M348.767,230.89c-6.457-15.645-9.897-32.936-10.108-49.852
							c-0.028-2.258,0.047-4.509,0.123-6.765c0.08-2.392,0.004-4.805,1.605-6.76c0.597-0.729-0.441-1.779-1.043-1.043
							c-2.515,3.071-2.08,7.419-2.15,11.163c-0.082,4.383,0.107,8.769,0.501,13.134c0.813,9.011,2.46,17.965,4.905,26.676
							c1.318,4.699,2.883,9.329,4.746,13.841C347.701,232.148,349.129,231.768,348.767,230.89L348.767,230.89z"/>
					</g>
				</g>
			</g>
		</g>
	</g>
	<g>
		<g>
			<g>
				<path style="fill:#D39142;" d="M365.218,173.432c0,0,20.674,13.261,40.871,0.389c0,0,2.897,18.854-19.272,19.52
					C361.325,194.106,365.218,173.432,365.218,173.432z"/>
				<g style="opacity:0.26;">
					<g>
						<path style="fill:#FCFCFC;" d="M368.533,179.798c8.428,4.684,18.515,5.863,27.793,3.233c0.714-0.202,0.411-1.317-0.307-1.114
							c-8.984,2.546-18.74,1.42-26.903-3.117C368.466,178.439,367.883,179.436,368.533,179.798L368.533,179.798z"/>
					</g>
				</g>
			</g>
			<g>
				<g>
					<g>
						<path style="fill:#001D55;" d="M344.52,198.245c21.829,0.372,43.659,0.744,65.488,1.117c6.165,0.105,12.331,0.21,18.497,0.315
							c0.744,0.013,0.744-1.143,0-1.155c-21.829-0.372-43.659-0.744-65.488-1.117c-6.166-0.105-12.331-0.21-18.497-0.315
							C343.776,197.077,343.776,198.232,344.52,198.245L344.52,198.245z"/>
					</g>
				</g>
				<g>
					<g>
						<g>
							<path style="fill:#070B0C;" d="M383.878,148.077c-0.634-2.368-0.173-4.493,2.355-5.235c2.619-0.769,5.327,0.172,6.672,2.638
								c1.746,3.2,0.26,6.744-1.723,9.41c-1.71,2.297-3.687,4.472-3.92,7.46c-0.058,0.741,1.098,0.737,1.155,0
								c0.228-2.924,2.506-5.104,4.121-7.367c1.69-2.367,2.715-5.204,2.09-8.129c-0.966-4.527-6.281-6.987-10.251-4.446
								c-2.095,1.341-2.203,3.773-1.613,5.978C382.956,149.102,384.07,148.798,383.878,148.077L383.878,148.077z"/>
						</g>
					</g>
					<g>
						<g>
							<path style="fill:#070B0C;" d="M388.088,163.942c15.217,9.531,28.878,21.414,40.437,35.153
								c0.479,0.57,1.293-0.251,0.817-0.817c-11.62-13.812-25.374-25.753-40.67-35.334
								C388.039,162.549,387.459,163.548,388.088,163.942L388.088,163.942z"/>
						</g>
					</g>
					<g>
						<g>
							<path style="fill:#070B0C;" d="M387.853,162.26c-13.322,6.504-25.944,14.708-36.656,25.006
								c-3.051,2.933-5.929,6.04-8.612,9.314c-0.467,0.57,0.345,1.392,0.817,0.817c9.403-11.475,21.221-20.772,33.989-28.239
								c3.605-2.108,7.293-4.068,11.045-5.9C389.104,162.931,388.519,161.935,387.853,162.26L387.853,162.26z"/>
						</g>
					</g>
				</g>
			</g>
			<g>
				<defs>
					<path id="SVGID_1_" d="M377.506,166.516c0,0,1.69,39.65,8.868,39.462c8.424-0.222,10.42-39.24,10.42-39.24l12.304,7.981
						c0,0,0.649,21.776,3.326,31.591c1.995,7.316,9.644,9.644,9.644,9.644l12.637,148.313l-93.777-1.995l10.028-145.439
						c0,0,9.148-2.209,10.257-11.52l2.66-31.924L377.506,166.516z"/>
				</defs>
				<use xlink:href="#SVGID_1_"  style="overflow:visible;fill:#FAAF4C;"/>
				<clipPath id="SVGID_00000048496061662573639980000010701114683896096906_">
					<use xlink:href="#SVGID_1_"  style="overflow:visible;"/>
				</clipPath>
				<g style="opacity:0.57;clip-path:url(#SVGID_00000048496061662573639980000010701114683896096906_);">
					<g>
						<path style="fill:#F6E7DA;" d="M370.722,236.68c-1.847-0.887-3.689-1.857-5.181-3.263c-1.492-1.405-2.614-3.31-2.681-5.358
							c-0.022-0.658,0.258-1.507,0.917-1.507c0.419,0,0.736,0.363,0.99,0.697c2.03,2.661,3.963,5.396,5.794,8.198
							c-0.586-0.163-0.828-0.847-0.967-1.439c-0.699-2.983-1.03-6.053-0.981-9.116c0.007-0.435,0.146-1.005,0.58-1.024
							c0.315-0.014,0.537,0.294,0.69,0.57c1.785,3.231,2.473,7.055,1.927,10.706c0.509-2.82,1.32-5.586,2.415-8.234
							c0.306-0.74,0.899-1.611,1.675-1.413c0.762,0.194,0.882,1.215,0.814,1.998c-0.169,1.953-0.528,3.938-1.516,5.631
							c-0.988,1.693-2.703,3.06-4.659,3.199"/>
					</g>
					<g>
						<path style="fill:#F6E7DA;" d="M414.487,327.474c-1.847-0.887-3.689-1.857-5.181-3.263c-1.491-1.405-2.614-3.31-2.681-5.358
							c-0.021-0.658,0.258-1.507,0.917-1.507c0.419,0,0.736,0.363,0.99,0.697c2.03,2.661,3.963,5.396,5.794,8.198
							c-0.586-0.163-0.828-0.847-0.967-1.439c-0.699-2.983-1.029-6.053-0.981-9.116c0.007-0.435,0.146-1.005,0.58-1.024
							c0.315-0.014,0.537,0.294,0.69,0.57c1.785,3.231,2.473,7.055,1.927,10.706c0.509-2.82,1.32-5.586,2.415-8.234
							c0.306-0.74,0.899-1.611,1.675-1.413c0.762,0.194,0.882,1.215,0.814,1.998c-0.169,1.953-0.528,3.938-1.516,5.632
							c-0.988,1.693-2.703,3.06-4.658,3.199"/>
					</g>
					<g>
						<path style="fill:#F6E7DA;" d="M367.009,178.064c2.032-0.263,4.105-0.454,6.122-0.089c2.016,0.365,3.995,1.35,5.168,3.031
							c0.377,0.54,0.605,1.404,0.053,1.763c-0.351,0.229-0.815,0.096-1.21-0.044c-3.152-1.124-6.264-2.364-9.326-3.715
							c0.58-0.183,1.156,0.259,1.596,0.679c2.212,2.12,4.162,4.513,5.791,7.108c0.231,0.368,0.426,0.922,0.072,1.175
							c-0.256,0.183-0.611,0.046-0.889-0.102c-3.258-1.736-5.919-4.567-7.451-7.926c1.111,2.642,1.938,5.403,2.464,8.22
							c0.147,0.787,0.124,1.84-0.634,2.098c-0.744,0.253-1.402-0.538-1.772-1.231c-0.923-1.73-1.704-3.59-1.799-5.548
							c-0.095-1.958,0.598-4.039,2.162-5.221"/>
					</g>
					<g>
						<path style="fill:#F6E7DA;" d="M405.757,262.441c-0.651-1.943-1.238-3.941-1.269-5.99c-0.031-2.049,0.553-4.181,1.976-5.656
							c0.457-0.474,1.26-0.865,1.72-0.393c0.292,0.3,0.252,0.781,0.19,1.196c-0.495,3.31-1.11,6.603-1.845,9.868
							c-0.292-0.534,0.031-1.185,0.359-1.697c1.653-2.58,3.625-4.955,5.856-7.055c0.317-0.298,0.823-0.596,1.139-0.297
							c0.229,0.216,0.163,0.59,0.072,0.892c-1.074,3.531-3.338,6.69-6.338,8.841c2.378-1.6,4.927-2.945,7.59-4.004
							c0.744-0.296,1.782-0.477,2.181,0.217c0.392,0.681-0.257,1.479-0.866,1.976c-1.519,1.239-3.193,2.365-5.096,2.836
							c-1.903,0.471-4.078,0.193-5.54-1.113"/>
					</g>
					<g>
						<path style="fill:#F6E7DA;" d="M352.745,323.979c-0.651-1.943-1.238-3.941-1.269-5.99c-0.031-2.049,0.553-4.181,1.976-5.656
							c0.457-0.474,1.26-0.865,1.72-0.393c0.292,0.3,0.252,0.781,0.19,1.196c-0.495,3.31-1.11,6.603-1.845,9.868
							c-0.292-0.534,0.031-1.184,0.359-1.697c1.653-2.58,3.625-4.955,5.856-7.055c0.317-0.298,0.823-0.596,1.139-0.297
							c0.229,0.216,0.163,0.59,0.072,0.892c-1.074,3.531-3.338,6.69-6.338,8.841c2.378-1.6,4.927-2.945,7.59-4.004
							c0.744-0.296,1.782-0.477,2.181,0.216c0.392,0.681-0.257,1.479-0.866,1.976c-1.519,1.239-3.193,2.365-5.096,2.836
							c-1.903,0.471-4.078,0.193-5.54-1.113"/>
					</g>
					<g>
						<path style="fill:#F6E7DA;" d="M376.937,356.439c-0.651-1.943-1.238-3.941-1.269-5.99c-0.031-2.049,0.553-4.181,1.976-5.656
							c0.457-0.474,1.26-0.865,1.72-0.392c0.292,0.3,0.252,0.781,0.19,1.196c-0.495,3.31-1.11,6.603-1.845,9.868
							c-0.292-0.534,0.03-1.184,0.359-1.697c1.653-2.58,3.624-4.956,5.856-7.055c0.317-0.298,0.823-0.596,1.139-0.297
							c0.229,0.216,0.163,0.59,0.072,0.892c-1.074,3.532-3.338,6.69-6.338,8.841c2.378-1.6,4.927-2.945,7.59-4.004
							c0.744-0.296,1.782-0.477,2.181,0.217c0.392,0.681-0.257,1.479-0.866,1.976c-1.519,1.239-3.193,2.365-5.096,2.836
							c-1.903,0.471-4.078,0.193-5.54-1.113"/>
					</g>
					<g>
						<path style="fill:#F6E7DA;" d="M398.663,207.017c-0.651-1.943-1.238-3.941-1.269-5.99c-0.031-2.049,0.553-4.181,1.976-5.656
							c0.457-0.474,1.26-0.865,1.72-0.393c0.292,0.3,0.252,0.781,0.19,1.196c-0.495,3.31-1.11,6.603-1.844,9.868
							c-0.292-0.534,0.03-1.185,0.359-1.697c1.653-2.58,3.625-4.955,5.856-7.055c0.317-0.298,0.823-0.596,1.139-0.297
							c0.229,0.216,0.163,0.59,0.072,0.892c-1.074,3.532-3.338,6.69-6.338,8.841c2.378-1.6,4.927-2.945,7.59-4.004
							c0.744-0.296,1.782-0.477,2.181,0.217c0.392,0.681-0.257,1.479-0.866,1.976c-1.519,1.239-3.193,2.365-5.096,2.836
							c-1.903,0.471-4.078,0.193-5.54-1.113"/>
					</g>
					<g>
						<path style="fill:#F6E7DA;" d="M386.662,291.123c-2.046,0.121-4.127,0.167-6.113-0.338c-1.986-0.505-3.892-1.625-4.944-3.383
							c-0.338-0.565-0.506-1.442,0.07-1.762c0.366-0.204,0.82-0.039,1.204,0.128c3.067,1.341,6.084,2.794,9.045,4.355
							c-0.591,0.143-1.136-0.339-1.544-0.789c-2.059-2.269-3.838-4.792-5.282-7.494c-0.205-0.383-0.361-0.95,0.01-1.177
							c0.268-0.165,0.612-0.004,0.879,0.164c3.129,1.959,5.587,4.968,6.881,8.425c-0.924-2.713-1.557-5.525-1.885-8.371
							c-0.091-0.795,0.004-1.845,0.778-2.049c0.76-0.2,1.361,0.634,1.682,1.352c0.8,1.79,1.45,3.699,1.408,5.659
							c-0.042,1.96-0.878,3.987-2.52,5.058"/>
					</g>
				</g>
			</g>
			<g>
				<path style="fill:none;stroke:#FCFCFC;stroke-width:0.4621;stroke-miterlimit:10;" d="M366.2,172.391
					c1.774,11.528,3.104,51.766-15.075,48.44"/>
				<path style="fill:none;stroke:#FCFCFC;stroke-width:0.4621;stroke-miterlimit:10;" d="M421.401,218.947
					c-17.292,3.326-19.198-40.393-13.967-45.225"/>
			</g>
			<path style="fill:#D39142;" d="M353.785,322.146c0.187-4.022-1.595-97.76-2.951-101.561l-9.908,142.353H366.2
				C356.337,357.128,352.898,341.211,353.785,322.146z"/>
		</g>
		<g>
			<g>
				<g>
					<g>
						<path style="fill:#F6E7DA;" d="M385.018,161.925c-2.924-1.203-6.087,2.817-7.578,4.743c-2.755,3.56-4.501,7.852-6.14,12.011
							c-3.809,9.667-5.841,19.917-6.374,30.28c-0.16,3.109-0.192,6.224-0.12,9.336c0.017,0.747-0.092,2.098,0.91,2.32
							c0.816,0.18,1.236-0.596,1.102-1.291c-0.065-0.337-0.404-0.514-0.711-0.542c-0.043-0.004-0.087-0.008-0.131-0.012
							c-0.946-0.083-0.94,1.393,0,1.475c0.043,0.004,0.087,0.008,0.131,0.012c-0.237-0.181-0.474-0.361-0.711-0.542
							c-0.012-0.021-0.024-0.042-0.035-0.062c0.172-0.172,0.343-0.344,0.515-0.515c0.144,0.022,0.287,0.044,0.431,0.066
							c-0.004-0.152-0.008-0.303-0.013-0.455c0.063-0.198-0.018-0.736-0.021-0.907c-0.01-0.526-0.018-1.052-0.022-1.578
							c-0.01-1.19-0.004-2.379,0.02-3.569c0.043-2.188,0.145-4.375,0.313-6.558c0.34-4.411,0.961-8.798,1.903-13.122
							c0.942-4.326,2.202-8.582,3.767-12.724c1.405-3.719,2.924-7.628,5.102-10.974c1.017-1.563,2.193-3.049,3.558-4.324
							c0.9-0.84,2.374-2.199,3.714-1.647C385.503,163.709,385.885,162.282,385.018,161.925L385.018,161.925z"/>
					</g>
				</g>
				<g>
					<polygon style="fill:#F6E7DA;" points="380.994,273.654 366.341,284.644 351.426,273.654 351.426,219.227 380.994,219.227 
											"/>
				</g>
				<g>
					<g>
						<g>
							<g>
								<path style="fill:#070B0C;" d="M359.845,254.125c-0.247-0.515-0.25-1.099-0.091-1.641c0.188-0.644,0.529-1.233,0.935-1.783
									c-0.006-0.071-0.005-0.148,0.008-0.229l1.633-2.188l2.085,1.711l-1.016-5.104l-4.961,0.201l1.581,1.297l-2.026,2.714
									l-0.076,0.221c-0.431,1.257-0.211,2.641,0.59,3.701c0.368,0.488,0.836,0.876,1.363,1.147
									C359.861,254.156,359.852,254.14,359.845,254.125z"/>
								<path style="fill:#070B0C;" d="M361.745,251.624c-0.369,0.02-0.618-0.149-0.758-0.287c-0.229,0.342-0.428,0.701-0.572,1.082
									c-0.164,0.432-0.235,0.915-0.061,1.355c0.125,0.317,0.353,0.567,0.62,0.772c0.303,0.055,0.614,0.076,0.928,0.059
									l3.119-0.165l-0.158-2.982L361.745,251.624z"/>
							</g>
							<g>
								<path style="fill:#070B0C;" d="M376.205,250.242c-0.28,0.498-0.756,0.836-1.291,1.018c-0.635,0.216-1.313,0.276-1.996,0.259
									c-0.055,0.046-0.118,0.089-0.192,0.125l-2.729-0.08l0.202-2.689l-3.594,3.764l3.014,3.946l0.153-2.04l3.385,0.099
									l0.224-0.065c1.277-0.369,2.283-1.344,2.691-2.609c0.188-0.582,0.237-1.188,0.156-1.775
									C376.221,250.211,376.213,250.226,376.205,250.242z"/>
								<path style="fill:#070B0C;" d="M373.066,250.122c0.228,0.291,0.233,0.591,0.2,0.785c0.412-0.009,0.819-0.053,1.214-0.153
									c0.448-0.114,0.884-0.334,1.144-0.729c0.188-0.285,0.262-0.615,0.276-0.952c-0.129-0.279-0.29-0.546-0.485-0.794
									l-1.927-2.458l-2.35,1.842L373.066,250.122z"/>
							</g>
							<g>
								<path style="fill:#070B0C;" d="M364.775,238.785c0.571,0.005,1.097,0.259,1.514,0.64c0.495,0.452,0.875,1.017,1.19,1.623
									c0.067,0.026,0.134,0.061,0.202,0.108l1.246,2.429l-2.454,1.12l5.031,1.334l2.003-4.543l-1.861,0.849l-1.546-3.013
									l-0.165-0.166c-0.939-0.94-2.278-1.351-3.583-1.099c-0.6,0.116-1.155,0.365-1.629,0.719
									C364.74,238.786,364.758,238.785,364.775,238.785z"/>
								<path style="fill:#070B0C;" d="M366.184,241.592c0.145-0.34,0.406-0.489,0.591-0.554c-0.206-0.357-0.441-0.692-0.72-0.99
									c-0.316-0.337-0.719-0.614-1.19-0.651c-0.34-0.027-0.665,0.067-0.966,0.217c-0.183,0.247-0.338,0.518-0.462,0.807
									l-1.224,2.873l2.747,1.17L366.184,241.592z"/>
							</g>
						</g>
					</g>
					<path style="fill:#070B0C;" d="M373.929,262.141h-14.13c-0.723,0-1.308-0.586-1.308-1.308l0,0c0-0.723,0.586-1.308,1.308-1.308
						h14.13c0.723,0,1.308,0.586,1.308,1.308l0,0C375.238,261.555,374.652,262.141,373.929,262.141z"/>
					<path style="fill:#070B0C;" d="M373.929,268.683h-14.13c-0.723,0-1.308-0.586-1.308-1.308l0,0c0-0.723,0.586-1.308,1.308-1.308
						h14.13c0.723,0,1.308,0.586,1.308,1.308l0,0C375.238,268.097,374.652,268.683,373.929,268.683z"/>
				</g>
			</g>
			<g>
				<path style="fill:#070B0C;" d="M364.93,225.376c-0.263-1.19,0.489-2.367,1.678-2.629s2.367,0.489,2.629,1.678
					s-0.489,2.367-1.678,2.629C366.37,227.317,365.193,226.566,364.93,225.376z"/>
				<g>
					<g>
						<path style="fill:#F6E7DA;" d="M367.522,225.585c4.841-7.251,8.833-15.048,12.177-23.092c3.426-8.24,6.184-16.8,7.932-25.556
							c0.472-2.363,0.866-4.747,1.234-7.128c0.339-2.193,0.314-4.216-0.746-6.214c-0.445-0.839-1.719-0.095-1.274,0.745
							c1.077,2.031,0.767,4.106,0.395,6.28c-0.339,1.977-0.638,3.958-1.031,5.926c-0.825,4.131-1.884,8.214-3.121,12.24
							c-2.557,8.323-5.86,16.427-9.856,24.162c-2.112,4.087-4.428,8.067-6.983,11.893
							C365.719,225.632,366.997,226.372,367.522,225.585L367.522,225.585z"/>
					</g>
				</g>
			</g>
		</g>
	</g>
	<g>
		<g>
			<g>
				<path style="fill:#070B0C;" d="M574.038,173.056c-3.104-18.844-14.199-6.549-11.861-11.306
					c2.338-4.758,1.92-13.055-3.869-16.184c-5.789-3.129-1.678,0.543-2.227-6.429c-0.549-6.972-11.44-10.687-11.44-10.687
					c-6.457-0.476-13.274,0.889-18.422,4.815c-1.88,1.433-3.879,6.563-3.879,14.988c0,0,1.774,12.415-2.217,14.188
					c-6.682,2.97-0.086,9.066,1.928,10.283l32.597-0.715l0.176-4.287l1.488,4.253L574.038,173.056z"/>
				<g>
					<path style="fill:#070B0C;" d="M550.31,135.533c-0.965-2.184-1.948-4.443-1.985-6.831c-0.037-2.388,1.117-4.962,3.331-5.857
						c2.335-0.944,5.03,0.24,6.893,1.936c2.453,2.235,4.075,5.697,3.21,8.9s-4.848,5.467-7.734,3.828"/>
				</g>
				<path style="fill:#FAD082;" d="M527.029,152.641l2.171,7.512c0.612,3.418-2.594,6.281-5.921,5.287l0,0
					c-3.264-0.975-4.413-5.009-2.153-7.558L527.029,152.641z"/>
				<path style="fill:#F27749;" d="M544.744,147.85c0.032,0.31,0.31,0.533,0.619,0.491c1.291-0.176,4.236-0.845,5.104,2.479
					c0.877,3.36-2.125,5.712-4.07,6.078c-0.562,0.106-1.851,0.393-2.179,0.861c-1.009,1.437-1.193,4.31-1.639,7.92
					c-0.985,7.974,5.536,10.696,5.536,10.696s-37.37,40.133-20.01,2.616c0,0-0.82-18.52-0.926-18.602
					c-1.784-1.368-7.997-1.238-5.869-14.797c1.971-12.561,10.955-12.871,13.262-12.769
					C536.518,132.909,543.178,132.452,544.744,147.85z"/>
				<g>
					<path style="fill:#D44F18;" d="M549.127,151.993c0,0-2.596-4.015-4.415,2.064L549.127,151.993z"/>
					<path style="fill:#F2682D;" d="M533.519,149.346c-1.68,0.183-2.894,1.694-2.71,3.374c0.183,1.68,1.694,2.894,3.374,2.711
						c1.68-0.183,2.894-1.694,2.711-3.375C536.711,150.376,535.2,149.163,533.519,149.346z"/>
					<path style="fill:#F2682D;" d="M521.027,152.147c1.356-0.435,2.265-1.776,2.104-3.246c-0.124-1.133-0.851-2.054-1.827-2.478
						C521.304,146.423,520.451,149.951,521.027,152.147z"/>
					<path style="fill:#FFFFFF;" d="M523.373,150.246l4.93,1.694c0,0-2.045,1.945-3.387,1.205
						C523.575,152.405,523.373,150.246,523.373,150.246z"/>
					<path style="fill:#F1500C;" d="M526.974,146.478l-0.296,3.398l-1.701-0.498c-0.314-0.092-0.415-0.486-0.183-0.718
						L526.974,146.478z"/>
					<path d="M532.244,144.399c0.475,0.508-0.015-1.418-0.734-1.781c-0.719-0.363-1.555-0.154-1.869,0.467
						C529.641,143.084,531.102,143.179,532.244,144.399z"/>
					<path d="M523.085,142.249c-0.639,0.274,0.584-1.293,1.388-1.336c0.804-0.043,1.486,0.484,1.524,1.179
						C525.997,142.091,524.62,141.59,523.085,142.249z"/>
					<path d="M529.897,147.18c-0.15,0.582-0.501,0.995-0.783,0.923c-0.282-0.073-0.389-0.604-0.239-1.186
						c0.15-0.583,0.501-0.996,0.783-0.923C529.94,146.066,530.047,146.597,529.897,147.18z"/>
					<path d="M525.343,145.705c-0.143,0.556-0.478,0.951-0.748,0.881c-0.27-0.07-0.372-0.577-0.229-1.133
						c0.143-0.556,0.479-0.951,0.748-0.881C525.384,144.641,525.486,145.149,525.343,145.705z"/>
					<path style="fill:#D44F18;" d="M527.178,160.389c0,0,5.91,0.341,8.796-0.231C538.86,159.586,528.884,169.84,527.178,160.389z"
						/>
				</g>
				<path style="fill:#070B0C;" d="M524.822,135.812c0,0,4.432,0.391,8.313,3.325c4.545,3.436,2.804-4.338,5.238,1.459
					c2.433,5.796,0.972,8.77,8.528,7.031C546.901,147.627,545.55,118.076,524.822,135.812z"/>
			</g>
			<path style="fill:#E3D0BD;" d="M631.868,451.855c0-1.929-27.185-3.493-60.719-3.493c-33.534,0-60.72,1.564-60.72,3.493
				c0,1.929,27.185,3.493,60.72,3.493C604.682,455.348,631.868,453.784,631.868,451.855z"/>
			<g>
				<path style="fill:#D44F18;" d="M532.868,417.409l-3.584,26.955c0,0,1.654,4.778,1.654,7.719
					c-3.564,2.448-23.479,2.699-25.072,0.75c3.768-3.768,13.218-9.205,13.218-9.205l-3.859-26.71L532.868,417.409z"/>
				<path style="fill:#F2682D;" d="M524.23,421.759l4.686,31.979c0,0,1.033,0.811,2.022-1.286c0.593-1.258-0.184-2.205-1.562-7.259
					l2.849-23.708L524.23,421.759z"/>
				<path style="fill:#D44F18;" d="M579.427,416.919l8.209,24.627c0,0-1.936,9.345-2.181,9.957
					c-0.869,2.173,6.873,3.325,6.873,3.325l0.222-36.358L579.427,416.919z"/>
				<path style="fill:#F2682D;" d="M587.759,416.919l4.746,29.103c0,0,8.441,5.81,9.099,3.978c0.274-0.762-5.015-6.922-6.103-8.882
					l0.589-23.709L587.759,416.919z"/>
				<path style="fill:#FAD082;" d="M505.202,451.726c-0.643,0.478-1.637,2.771-0.717,2.778l18.571,0.151
					c0.447,0.004,8.906-0.465,9.238-0.687c0.034-0.023-0.489-2.685-0.489-2.685L505.202,451.726z"/>
				<polygon style="fill:#FAD082;" points="515.4,451.947 510.301,447.735 519.084,443.629 525.819,451.947 				"/>
				<path style="fill:#F2682D;" d="M602.895,450.53c0.763,1.164,0.338,2.552-1.04,3.372c-2.234,1.329-7.089,1.149-7.089,1.149
					s-4.863,0.268-7.164-0.735c-1.544-0.673-2.753-1.66-2.562-2.951l0.269-1.732c0.022-0.148,5.911-0.79,5.911-0.79l0.887-9.976
					L602.895,450.53z"/>
				<g>
					<polygon style="fill:#FAD082;" points="584.347,449.509 602.747,449.065 596.983,443.08 586.342,443.301 					"/>
					<polygon style="fill:#FAD082;" points="606.294,456.381 583.46,456.603 584.79,451.726 603.856,451.726 					"/>
				</g>
			</g>
			<g>
				<path style="fill:#02595D;" d="M552.423,229.81c5.767,10.196,14.255,17.173,17.569,30.137
					c3.844,15.034,41.984,142.293,49.826,170.718c-1.86,0.448-39.461,0-39.461,0l-40.251-140.685
					c-1.008-3.522-6.2-2.779-6.181,0.884l0.762,140.245c0,0-27.448,1.003-28.377,0.887c-3.121-33.675-10.429-162.181,14.574-203.505
					C532.317,226.913,540.83,229.465,552.423,229.81z"/>
				<path style="fill:none;stroke:#FFFFFF;stroke-width:0.4457;stroke-miterlimit:10;" d="M522.937,230.697
					c0,0-14.084,28.13-14.084,63.699c0,35.569,2.777,137.156,2.777,137.156"/>
				
					<line style="fill:none;stroke:#FFFFFF;stroke-width:0.4457;stroke-miterlimit:10;" x1="612.28" y1="430.221" x2="552.105" y2="229.825"/>
				
					<line style="fill:none;stroke:#FFFFFF;stroke-width:0.4457;stroke-miterlimit:10;" x1="544.508" y1="229.335" x2="562.842" y2="265.281"/>
				<path style="opacity:0.21;" d="M519.335,229.464l50.046,33.32c3.95,0.464-5.553-15.69-16.958-32.974L519.335,229.464z"/>
				
					<line style="fill:none;stroke:#FFFFFF;stroke-width:0.4457;stroke-miterlimit:10;" x1="511.409" y1="268.163" x2="526.928" y2="232.692"/>
			</g>
			<g>
				<path style="fill:#F27749;" d="M448.507,225.296c10.531-0.325,17.563-0.312,18.546-0.235l33.949-0.742l-0.102-0.087
					c0,0,1.714-0.009,2.92-0.1c0.583-0.044,1.072-0.454,1.207-1.023c3.257-13.741,9.846-49.959,21.661-47.005
					c0.171,0.043,4.155,0.626,3.731,1.161c-3.869,4.874-10.923,28.82-10.923,28.82c-0.082,0.363-0.07,1.968-0.062,4.283
					c4.159,23.838-0.815,25.684-0.815,25.684c-0.705,0.433-1.547,0.799-2.506,1.104c-0.018,0.024-0.036,0.051-0.054,0.074
					l-0.048-0.041c-15.16,4.711-59.021-5.529-59.021-5.529C453.415,230.697,445.453,225.39,448.507,225.296z"/>
			</g>
			<g>
				<path style="fill:#D44F18;" d="M525.25,183.747c0.833-4.087,1.511-7.627,1.438-7.645c-2.153-0.538-4.132,0.233-5.949,1.924
					c0.065,5.087-0.413,10.143-1.29,15.138C521.436,190.057,523.306,186.855,525.25,183.747z"/>
				<path style="fill:#D44F18;" d="M511.702,234.699c-0.13,1.116-0.131,2.241-0.067,3.369c1.63-0.2,3.104-0.487,4.374-0.882
					l0.048,0.042c0.018-0.024,0.036-0.051,0.054-0.075c0.958-0.305,1.801-0.67,2.506-1.103c0,0,2.679-1.008,2.456-10.978
					C516.323,225.488,512.222,230.253,511.702,234.699z"/>
			</g>
			<path style="fill:#F7A096;" d="M463.666,224.997c0,0-7.965-5.043-8.298-3.822c-0.655,2.402,5.963,4.929,5.132,5.678
				C460.5,226.853,462.419,225.662,463.666,224.997z"/>
			<g>
				<path style="fill:#F6E7DA;" d="M527.815,175.218c-0.166-0.998-0.998,0.166-2.66,0.665c-3.437,7.307-10.656,26.717-10.374,32.356
					c0.399,7.975,3.925,18.154,3.501,19.354c0,0,7.094,3.104,34.141,1.774c0.49-8.332,15.61-34.583,2.133-49.041
					c-1.48-2.308-8.142-7.221-11.517-8.577C543.038,171.749,525.487,197.831,527.815,175.218z"/>
			</g>
			<path style="fill:#FAD082;" d="M544.663,153.991l4.615,6.313c1.747,3.001-0.284,6.79-3.75,6.997l0,0
				c-3.401,0.203-5.863-3.193-4.613-6.362L544.663,153.991z"/>
		</g>
		<path style="fill:#D39142;" d="M512.006,230.021c0,0,15.081-51.484,33.714-51.987c15.283-0.412,29.207,4.955,43.428,40.109
			l-12.266,1.311c0,0-12.409-37.871-28.118-40.363c-15.709-2.492-23.032,47.262-23.032,47.262L512.006,230.021z"/>
		<g>
			<path style="fill:#FAAF4C;" d="M587.985,290.316l-56.601,7.562c-7.27,0.971-13.951-4.135-14.922-11.405l-8.001-59.892
				l82.928-11.079l8.001,59.892C600.361,282.664,595.255,289.345,587.985,290.316z"/>
			<g>
				<g>
					<path style="fill:#F6E7DA;" d="M541.881,279.931c-0.879-1.147-1.192-2.593-1.082-4.019c0.13-1.693,0.667-3.331,1.385-4.904
						c-0.052-0.174-0.088-0.363-0.099-0.571l2.905-6.273l6.058,3.151l-5.18-12.117l-12.187,3.085l4.595,2.389l-3.604,7.781
						l-0.073,0.587c-0.413,3.339,0.855,6.652,3.391,8.862c1.167,1.017,2.529,1.735,3.975,2.13
						C541.938,279.999,541.908,279.966,541.881,279.931z"/>
					<path style="fill:#F6E7DA;" d="M545.287,272.744c-0.904,0.241-1.608-0.047-2.027-0.316c-0.39,0.967-0.694,1.96-0.853,2.979
						c-0.18,1.156-0.104,2.39,0.556,3.39c0.476,0.72,1.17,1.222,1.94,1.59c0.778-0.021,1.56-0.132,2.331-0.337l7.641-2.036
						l-1.947-7.306L545.287,272.744z"/>
				</g>
				<g>
					<path style="fill:#F6E7DA;" d="M580.39,261.777c-0.434,1.379-1.438,2.465-2.667,3.194c-1.46,0.866-3.109,1.368-4.81,1.683
						c-0.112,0.142-0.247,0.281-0.41,0.409l-6.803,1.226l-0.902-6.768l-6.942,11.201l9.527,8.203l-0.684-5.134l8.439-1.521
						l0.522-0.278c2.97-1.58,4.954-4.521,5.306-7.867c0.162-1.539-0.033-3.066-0.54-4.477
						C580.413,261.692,580.403,261.734,580.39,261.777z"/>
					<path style="fill:#F6E7DA;" d="M572.551,263.119c0.717,0.602,0.885,1.344,0.906,1.841c1.016-0.237,2.003-0.558,2.928-1.013
						c1.049-0.517,2.016-1.288,2.455-2.403c0.316-0.803,0.328-1.66,0.187-2.501c-0.465-0.625-1.004-1.201-1.615-1.714l-6.057-5.085
						l-4.861,5.79L572.551,263.119z"/>
				</g>
				<g>
					<path style="fill:#F6E7DA;" d="M546.096,239.353c1.417-0.285,2.853,0.071,4.085,0.797c1.463,0.862,2.698,2.065,3.794,3.402
						c0.179,0.03,0.365,0.08,0.556,0.162l4.355,5.369l-5.495,4.054l13.16,0.68l2.593-12.301l-4.167,3.074l-5.401-6.66l-0.495-0.324
						c-2.817-1.84-6.35-2.16-9.45-0.855c-1.427,0.6-2.671,1.507-3.662,2.632C546.01,239.373,546.053,239.361,546.096,239.353z"/>
					<path style="fill:#F6E7DA;" d="M551.051,245.573c0.182-0.918,0.75-1.424,1.176-1.681c-0.697-0.776-1.454-1.486-2.299-2.076
						c-0.959-0.67-2.1-1.145-3.289-0.992c-0.856,0.11-1.612,0.513-2.281,1.042c-0.323,0.708-0.568,1.459-0.723,2.241l-1.534,7.758
						l7.417,1.467L551.051,245.573z"/>
				</g>
			</g>
		</g>
	</g>
	<g>
		<g>
			<path style="fill:#CC5C45;" d="M241.245,158.213c0,0,4.394,45.841-0.965,50.449c-5.358,4.608-76.773-0.661-71.444-16.367
				c0,0-0.642-5.209,4.173-5.966c4.816-0.757,19.114-5.146,54.033-1.838c0,0,3.909-29.242,3.965-31.827
				c0,0,4.835-11.864,6.664-11.532c1.829,0.333-0.665,8.979-0.665,8.979l5.653,3.159L241.245,158.213z"/>
			<path style="fill:#CC5C45;" d="M237.007,150.111c0,0,8.923-9.865,9.81-8.868c0.887,0.998-2.993,6.54-2.993,6.54
				s6.429-5.653,6.318-3.658c-0.111,1.995-4.212,5.542-4.212,5.542s5.431-4.323,5.542-3.215c0.111,1.108-5.099,5.099-5.099,5.099
				s5.542-1.884,5.321-0.887c-0.222,0.998-11.196,11.195-11.196,11.195L237.007,150.111z"/>
			<path style="fill:#8F3231;" d="M208.097,183.334c-21.42-0.501-31.257,2.393-35.087,2.995c-4.816,0.758-4.173,5.967-4.173,5.967
				c-3.572,10.529,27.342,16.366,49.727,17.683C214.611,201.291,211.079,192.42,208.097,183.334z"/>
			<path style="fill:#02595D;" d="M181.846,178.005c0,0-18.627-3.091-18.085,11.435c0.542,14.526,36.838,24.383,46.702,22.024
				l0.04-31.383L181.846,178.005z"/>
			<path style="fill:#02403F;" d="M210.32,210.994c-2.896,3.475-31.237-3.819-34.345-8.551c0,0-0.484-15.864,0.723-16.191
				C189.002,182.917,210.32,210.994,210.32,210.994z"/>
		</g>
		<g>
			<ellipse style="fill:#E3D0BD;" cx="140.447" cy="453.635" rx="69.486" ry="3.998"/>
			<g>
				<polygon style="fill:#CC5C45;" points="199.108,442.037 198.863,428.804 186.12,429.784 186.441,442.501 192.399,452.838 
					203.124,444.569 				"/>
				<path style="fill:#8F3231;" d="M197.882,429.049l-9.802,20.829c0,0,1.891-3.265-1.959-6.717l-0.001-14.112H197.882z"/>
				<g>
					<path style="fill:#02595D;" d="M201.125,441.129l1.631-8.69c0,0-16.43,2.041-17.625,0.998
						c-0.243-0.212,0.117,7.318,0.076,7.695l-1.499,13.651h37.736c0.439,0,0.905-0.474,0.794-1.034
						C220.238,443.61,201.125,441.129,201.125,441.129z"/>
				</g>
				<g>
					<path style="fill:none;stroke:#FFFFFF;stroke-width:0.5527;stroke-miterlimit:10;" d="M205.719,452.431
						c0,0,1.47-6.984,6.432-8.27c0,0,7.811,2.573,9.649,8.454h-37.676"/>
					<path style="fill:none;stroke:#FFFFFF;stroke-width:0.5527;stroke-miterlimit:10;" d="M202.091,434.766l-6.092,0.46
						c-1.534,0.116-2.72,1.395-2.72,2.933l0,0c0,1.618,1.307,2.932,2.925,2.942l4.921,0.028"/>
					
						<line style="fill:none;stroke:#FFFFFF;stroke-width:0.5527;stroke-miterlimit:10;" x1="184.951" y1="443.977" x2="192.762" y2="452.523"/>
				</g>
			</g>
			<g>
				<polygon style="fill:#CC5C45;" points="138.581,443.752 142.502,431.01 128.779,430.52 125.838,443.997 130.916,452.838 
					141.641,444.569 				"/>
				<path style="fill:#8F3231;" d="M139.561,431.01l-11.272,15.683c0,0,0.175,0.511-3.676-2.94l4.411-13.233L139.561,431.01z"/>
				<g>
					<path style="fill:#02595D;" d="M140.388,442.802l3.84-7.538c0,0-17.262,0.378-18.456-0.665
						c-0.243-0.212-1.261,7.828-1.302,8.205l-1.499,13.651h37.736c0.439,0,0.905-0.474,0.794-1.034
						C159.502,445.284,140.388,442.802,140.388,442.802z"/>
				</g>
				<g>
					<path style="fill:none;stroke:#FFFFFF;stroke-width:0.5527;stroke-miterlimit:10;" d="M144.983,454.105
						c0,0,1.47-6.984,6.432-8.27c0,0,7.811,2.573,9.649,8.454h-37.676"/>
					
						<line style="fill:none;stroke:#FFFFFF;stroke-width:0.5527;stroke-miterlimit:10;" x1="124.215" y1="445.651" x2="132.026" y2="454.197"/>
					<path style="fill:none;stroke:#FFFFFF;stroke-width:0.5527;stroke-miterlimit:10;" d="M143.065,437.26l-7.755-0.371
						c-1.534,0.116-2.72,1.395-2.72,2.933l0,0c0,1.618,1.307,2.932,2.925,2.942l4.921,0.028"/>
				</g>
			</g>
			<g>
				<path style="fill:#D39142;" d="M199.179,277.268c0,0,4.853,58.051,5.309,74.091c0.456,16.039-3.665,78.671-3.665,78.671
					l-16.217-0.051c0,0-17.172-110.677-36.781-149.36L199.179,277.268z"/>
				<polyline style="fill:none;stroke:#FFFFFF;stroke-width:0.4457;stroke-miterlimit:10;" points="192.491,420.105 
					189.918,346.591 178.524,303.585 				"/>
				<polygon style="fill:#F6E7DA;" points="182.567,430.397 201.313,430.029 202.416,419.37 180.729,419.37 				"/>
			</g>
			<g>
				<path style="fill:#FAAF4C;" d="M199.22,277.268c0,0-11.222,48.391-22.619,82.626c-9.21,27.666-33.61,71.361-33.61,71.361
					l-16.311-0.714l17.334-69.824c1.047-4.129,1.707-8.349,1.975-12.608c1.011-16.076-2.293-48.561-3.675-69.376L199.22,277.268z"/>
				<path style="fill:none;stroke:#FFFFFF;stroke-width:0.4457;stroke-miterlimit:10;" d="M135.518,420.473
					c-0.368-1.103,22.422-67.266,22.422-75.72c0-8.454-1.906-50.652-1.906-50.652"/>
				<polygon style="fill:#F6E7DA;" points="124.858,430.397 142.992,431.255 149.826,420.467 127.037,419.364 				"/>
			</g>
			<g>
				<path style="fill:#02595D;" d="M155.349,176.363c0,0-19.002,7.624-20.598,28.617c-1.596,20.992-2.152,89.541-2.152,89.541
					l71.32-1.75l-3.974-87.863c-0.257-5.352-1.907-10.535-4.777-15.016c-2.65-4.139-5.754-8.831-7.517-9.051l-28.426-7.308
					L155.349,176.363z"/>
				<path style="fill:#02403F;" d="M149.486,178.61c-10.744,8.413-14.602,19.864-15.4,30.36
					c-1.596,20.992-0.665,85.574-0.665,85.574l34.584-1.108"/>
				<g>
					<g>
						<path style="fill:#F6E7DA;" d="M169.421,240.04c-0.68-0.943-0.897-2.113-0.776-3.256c0.144-1.358,0.614-2.662,1.229-3.91
							c-0.038-0.141-0.063-0.294-0.066-0.461l2.483-4.975l4.797,2.675l-3.881-9.863l-9.871,2.195l3.638,2.029l-3.079,6.171
							l-0.072,0.47c-0.41,2.675,0.531,5.368,2.519,7.205c0.914,0.845,1.992,1.454,3.146,1.806
							C169.465,240.096,169.442,240.068,169.421,240.04z"/>
						<path style="fill:#F6E7DA;" d="M172.327,234.341c-0.733,0.173-1.292-0.076-1.622-0.301c-0.336,0.769-0.604,1.559-0.755,2.375
							c-0.172,0.925-0.14,1.919,0.368,2.738c0.366,0.59,0.912,1.01,1.522,1.324c0.626,0.001,1.257-0.069,1.882-0.216l6.191-1.458
							l-1.394-5.919L172.327,234.341z"/>
					</g>
					<g>
						<path style="fill:#F6E7DA;" d="M200.807,226.347c-0.381,1.098-1.214,1.948-2.219,2.506c-1.194,0.662-2.532,1.027-3.906,1.24
							c-0.094,0.112-0.205,0.22-0.339,0.319l-5.499,0.826l-0.566-5.463l-5.843,8.843l7.467,6.818l-0.429-4.143l6.82-1.025
							l0.426-0.211c2.425-1.201,4.089-3.519,4.45-6.201c0.166-1.234,0.046-2.466-0.329-3.612
							C200.827,226.279,200.818,226.313,200.807,226.347z"/>
						<path style="fill:#F6E7DA;" d="M194.473,227.242c0.562,0.501,0.68,1.101,0.685,1.501c0.822-0.166,1.623-0.401,2.378-0.746
							c0.856-0.391,1.651-0.988,2.03-1.874c0.273-0.638,0.302-1.327,0.209-2.007c-0.359-0.513-0.779-0.989-1.258-1.416l-4.75-4.23
							l-4.044,4.541L194.473,227.242z"/>
					</g>
					<g>
						<path style="fill:#F6E7DA;" d="M173.761,207.515c1.146-0.196,2.292,0.124,3.265,0.736c1.156,0.727,2.12,1.723,2.97,2.824
							c0.143,0.028,0.292,0.073,0.443,0.143l3.375,4.419l-4.513,3.13l10.564,0.855l2.373-9.829l-3.423,2.374l-4.186-5.481
							l-0.391-0.272c-2.222-1.546-5.054-1.885-7.578-0.909c-1.161,0.449-2.182,1.149-3.006,2.03
							C173.691,207.529,173.726,207.521,173.761,207.515z"/>
						<path style="fill:#F6E7DA;" d="M177.599,212.632c0.168-0.734,0.637-1.127,0.985-1.324c-0.542-0.64-1.134-1.229-1.8-1.723
							c-0.755-0.561-1.662-0.97-2.621-0.875c-0.691,0.069-1.308,0.375-1.859,0.784c-0.277,0.562-0.491,1.16-0.634,1.785
							l-1.415,6.201l5.929,1.353L177.599,212.632z"/>
					</g>
				</g>
			</g>
			<g>
				<path style="fill:#CC5C45;" d="M163.329,157.376l-5.965,17.343l4.068,5.178c16.55,16.437,19.21,3.801,17.288-2.354l0,0
					l-1.14-11.793l-11.856-10.732c0,0-1.824,1.297-2.052,1.769C163.443,157.258,163.329,157.376,163.329,157.376z"/>
				<path style="fill:#8F3231;" d="M165.723,155.017l11.856,10.732l0.393,4.223c0,0-9.924,2.389-13.6-13.416"/>
			</g>
			<g>
				<path style="fill:#CC5C45;" d="M174.656,265.946c-2.102,0.028-30.774,3.918-49.431,2.643c-5.144-0.352-7.71-7.972-6.728-12.965
					l7.089-43.179l28.314,1.666c-0.043,0.29-8.978,24.549-10.249,33.97c-0.455,3.371-0.918,2.585,2.162,3.111l25.623,1.412
					c0,0,2.514-0.555,3.746-1.273c0,0,7.234-7.111,7.899-3.564c-0.665,2.66-2.439,7.538-2.439,7.538s15.075,8.868,16.627,11.085
					C197.904,267.298,174.656,265.946,174.656,265.946z"/>
				<path style="fill:#8F3231;" d="M149.383,224.933c2.759-8.647,4.492-10.655,4.517-10.822l-28.314-1.666l-3.264,21.313
					C131.285,230.635,140.279,227.61,149.383,224.933z"/>
				<path style="fill:#8F3231;" d="M126.752,262.162c-1.238-2.459-5.189-6.86-8.407-5.409c-0.436,4.936,2.111,11.51,6.881,11.836
					c0.722,0.049,1.46,0.086,2.205,0.117C127.992,266.626,127.894,264.429,126.752,262.162z"/>
				<path style="fill:#02595D;" d="M161.035,196.942c0,0,6.996-17.696-7.241-20.121c-14.237-2.424-35.932,35.84-35.752,46.024
					l42.947,3.38L161.035,196.942z"/>
				<path style="fill:none;stroke:#FFFFFF;stroke-width:0.4457;stroke-miterlimit:10;" d="M156.921,179.707
					c0.887,1.33,7.693,6.131,4.068,46.517"/>
			</g>
			<g>
				<path style="fill:#001929;" d="M185.297,133.816c0.333,3.326-1.016,5.402-1.016,5.402c-8.246,5.301-18.746,14.519-18.746,14.519
					s-3.835-0.691-3.859-1.654c-0.129-5.172-0.729-11.039-1.074-14.063c-0.145-1.274-1.575-3.706-1.575-3.706
					s0.695-7.213,13.634-8.147C176.344,125.902,184.3,124.173,185.297,133.816z"/>
				<path style="fill:#CC5C45;" d="M164.572,151.041c-0.143,0.377-0.608,0.488-0.892,0.209c-0.965-0.947-2.887-2.247-3.576,1.527
					c-0.936,5.124,4.411,4.243,4.837,4.933c0.864,1.399,3.636,6.099,7.768,7.923c2.518,1.112,6.247,1.288,8.997-1.352
					c2.75-2.641,4.267,0.473,3.113-27.756c0,0-0.643,2.297-3.357,1.751c-1.879-0.378-3.355-1.957-5.418-2.532
					c-1.675-0.467-6.283-1.625-8.268,4.203C166.863,142.623,165.412,148.82,164.572,151.041z"/>
				<g>
					<path style="fill:#FFFFFF;" d="M184.439,155.53c0,0-1.658,0.826-5.712,0.445c0,0,2.18,2.954,3.777,2.383
						C184.101,157.785,184.439,155.53,184.439,155.53z"/>
					<path style="fill:#8F3231;" d="M160.905,152.394l2.824,2.129C163.729,154.523,162.676,149.374,160.905,152.394z"/>
					<path style="fill:#001929;" d="M181.128,149.544c0,0.617-0.244,1.117-0.546,1.117c-0.301,0-0.545-0.5-0.545-1.117
						c0-0.617,0.244-1.117,0.545-1.117C180.883,148.427,181.128,148.927,181.128,149.544z"/>
					<ellipse style="fill:#001929;" cx="184.132" cy="148.997" rx="0.545" ry="1.117"/>
					<path style="fill:#001929;" d="M176.54,144.732c-0.809,0.564,0.456-1.989,1.555-2.273c1.099-0.284,2.184,0.273,2.424,1.244
						C180.519,143.702,178.482,143.376,176.54,144.732z"/>
					<path style="fill:#001929;" d="M184.846,144.46c-1.158-0.151-1.991,0.054-1.991,0.054c0.151-0.919,1.005-1.563,2.011-1.589"/>
					<path style="fill:#8F3231;" d="M183.007,148.965l1.663,4.73c0.027,0.077-0.022,0.161-0.097,0.166l-1.963,0.149
						c-0.068,0.005-0.125-0.056-0.12-0.131l0.3-4.879C182.798,148.87,182.964,148.842,183.007,148.965z"/>
				</g>
				<g>
					
						<line style="fill:none;stroke:#001929;stroke-width:0.3152;stroke-miterlimit:10;" x1="185.173" y1="149.197" x2="189.445" y2="148.624"/>
					<g>
						<path style="stroke:#000000;stroke-width:0.3152;stroke-miterlimit:10;" d="M189.764,149.202l-0.65,0.038
							c-0.352,0.021-0.654-0.248-0.674-0.6l-0.008-0.135c-0.021-0.352,0.248-0.654,0.6-0.674l0.65-0.038L189.764,149.202z"/>
						<path style="opacity:0.27;fill:#FFFFFF;" d="M181.769,149.486c0.168,2.877-1.571,5.32-3.885,5.455
							c-2.314,0.135-4.327-2.087-4.495-4.965c-0.168-2.877,1.571-5.32,3.885-5.455C179.588,144.385,181.6,146.608,181.769,149.486z"
							/>
						<path style="fill:none;stroke:#001929;stroke-width:0.3574;stroke-miterlimit:10;" d="M181.769,149.486
							c0.168,2.877-1.571,5.32-3.885,5.455c-2.314,0.135-4.327-2.087-4.495-4.965c-0.168-2.877,1.571-5.32,3.885-5.455
							C179.588,144.385,181.6,146.608,181.769,149.486z"/>
						<path style="fill:none;stroke:#000000;stroke-width:0.3152;stroke-miterlimit:10;" d="M189.953,148.892
							c0.164,2.805-1.199,5.167-3.046,5.275c-1.846,0.108-3.476-2.078-3.64-4.883c-0.164-2.805,1.199-5.167,3.046-5.275
							C188.159,143.9,189.789,146.087,189.953,148.892z"/>
						<path style="fill:none;stroke:#000000;stroke-width:0.3152;stroke-miterlimit:10;" d="M189.953,148.892
							c0.164,2.805-1.199,5.167-3.046,5.275c-1.846,0.108-3.476-2.078-3.64-4.883c-0.164-2.805,1.199-5.167,3.046-5.275
							C188.159,143.9,189.789,146.087,189.953,148.892z"/>
						<path style="opacity:0.27;fill:#FFFFFF;" d="M189.953,148.892c0.164,2.805-1.199,5.167-3.046,5.275
							c-1.846,0.108-3.476-2.078-3.64-4.883c-0.164-2.805,1.199-5.167,3.046-5.275C188.159,143.9,189.789,146.087,189.953,148.892z"
							/>
						<path style="opacity:0.27;fill:#FFFFFF;" d="M177.804,144.532c-0.174-0.017-0.351-0.022-0.53-0.012
							c-1.697,0.099-3.084,1.44-3.637,3.283C175.069,146.769,176.449,145.666,177.804,144.532z"/>
						<path style="opacity:0.27;fill:#FFFFFF;" d="M180.363,145.923c-0.158-0.179-0.324-0.347-0.501-0.496
							c-2.066,1.762-4.178,3.465-6.432,4.986c0.034,0.268,0.089,0.526,0.154,0.779C175.863,149.462,178.118,147.699,180.363,145.923
							z"/>
						<path style="opacity:0.27;fill:#FFFFFF;" d="M175.27,154.014c0.746,0.633,1.653,0.983,2.613,0.927
							c2.314-0.135,4.054-2.578,3.885-5.455c-0.014-0.244-0.043-0.482-0.083-0.715C179.587,150.567,177.456,152.325,175.27,154.014z
							"/>
						<path style="opacity:0.27;fill:#FFFFFF;" d="M185.39,153.724c1.451-1.101,2.951-2.133,4.472-3.134
							c0.091-0.535,0.126-1.106,0.091-1.698c-0.057-0.979-0.296-1.879-0.657-2.636c-1.81,1.707-3.608,3.429-5.726,4.75
							C183.936,152.219,184.593,153.191,185.39,153.724z"/>
						<path style="opacity:0.27;fill:#FFFFFF;" d="M187.156,144.119c-0.273-0.089-0.556-0.128-0.844-0.111
							c-1.422,0.083-2.557,1.504-2.929,3.434C184.634,146.326,185.893,145.221,187.156,144.119z"/>
						<path style="fill:none;stroke:#001929;stroke-width:0.3152;stroke-miterlimit:10;" d="M189.953,148.892
							c0.164,2.805-1.199,5.167-3.046,5.275c-1.846,0.108-3.476-2.078-3.64-4.883c-0.164-2.805,1.199-5.167,3.046-5.275
							C188.159,143.9,189.789,146.087,189.953,148.892z"/>
						<path style="fill:none;stroke:#001929;stroke-width:0.3574;stroke-miterlimit:10;" d="M181.757,150.04
							c0,0,0.664-2.314,1.532-0.09"/>
						<path style="fill:#001929;stroke:#001929;stroke-width:0.3152;stroke-miterlimit:10;" d="M173.338,150.163l-0.65,0.038
							c-0.352,0.021-0.654-0.248-0.675-0.6l-0.008-0.135c-0.02-0.352,0.248-0.654,0.6-0.675l0.65-0.038L173.338,150.163z"/>
						
							<line style="fill:none;stroke:#001929;stroke-width:0.3152;stroke-miterlimit:10;" x1="164.432" y1="150.771" x2="173.281" y2="149.459"/>
					</g>
				</g>
			</g>
		</g>
	</g>
	<g>
		<g>
			<g>
				<path style="fill:#913424;" d="M225.348,172.406c0,0,9.763,12.126,26.894-4.611c0,0,25.821,21.095-7.579,30.796
					C227.249,203.648,225.348,172.406,225.348,172.406z"/>
				<g style="opacity:0.26;">
					<g>
						<path style="fill:#FCFCFC;" d="M224.426,187.316c5.114,1.575,10.657,1.384,15.889,0.565c5.399-0.845,10.764-2.462,15.61-5.01
							c0.658-0.346,0.075-1.343-0.583-0.997c-4.645,2.441-9.781,3.98-14.948,4.831c-5.141,0.847-10.632,1.046-15.661-0.503
							C224.021,185.983,223.717,187.098,224.426,187.316L224.426,187.316z"/>
					</g>
				</g>
			</g>
			<g>
				<g>
					<g>
						<path style="fill:#001D55;" d="M287.05,194.487c0.743,0,0.745-1.155,0-1.155C286.307,193.332,286.306,194.487,287.05,194.487
							L287.05,194.487z"/>
					</g>
				</g>
				<g>
					<g>
						<path style="fill:#001D55;" d="M204.555,210.295c0.743,0,0.744-1.155,0-1.155C203.811,209.14,203.81,210.295,204.555,210.295
							L204.555,210.295z"/>
					</g>
				</g>
				<g>
					<g>
						<g>
							<path style="fill:#001929;" d="M237.724,146.673c4.383,0.63,5.774,5.711,4.615,9.423c-1.062,3.399-3.681,6.424-3.201,10.176
								c0.093,0.727,1.249,0.737,1.155,0c-0.55-4.301,3.138-7.745,3.581-11.918c0.404-3.809-1.739-8.205-5.843-8.795
								C237.304,145.455,236.99,146.567,237.724,146.673L237.724,146.673z"/>
						</g>
					</g>
					<g>
						<g>
							<path style="fill:#001929;" d="M232.9,153.088c-0.564-1.087-1.124-2.469-0.85-3.66c0.196-0.852,0.756-1.419,1.522-1.851
								c0.647-0.366,0.066-1.364-0.583-0.997c-0.983,0.555-1.794,1.416-2.053,2.542c-0.36,1.568,0.253,3.176,0.966,4.55
								C232.245,154.331,233.242,153.747,232.9,153.088L232.9,153.088z"/>
						</g>
					</g>
					<g>
						<g>
							<path style="fill:#001929;" d="M240.316,167.789c16.79,6.19,32.577,14.995,46.66,26.037c0.578,0.454,1.402-0.358,0.817-0.817
								c-14.25-11.173-30.178-20.07-47.17-26.334C239.925,166.418,239.624,167.534,240.316,167.789L240.316,167.789z"/>
						</g>
					</g>
					<g>
						<g>
							<path style="fill:#001929;" d="M239.691,166.202c-11.734,9.117-22.417,19.759-30.802,32.069
								c-2.365,3.472-4.527,7.077-6.467,10.803c-0.343,0.659,0.654,1.243,0.997,0.583c6.866-13.187,16.56-24.724,27.556-34.663
								c3.075-2.779,6.26-5.433,9.533-7.975C241.094,166.563,240.271,165.751,239.691,166.202L239.691,166.202z"/>
						</g>
					</g>
				</g>
			</g>
			<g>
				<defs>
					<path id="SVGID_00000098916406121943084440000010201377458607810470_" d="M223.645,178.878c0,0,2.302,9.371,19.159,5.502
						c15.895-3.648,15.343-12.725,15.343-12.725l28.271,7.285c0.066,0.017,0.125,0.045,0.179,0.087
						c1.527,1.192,24.873,19.482,30.9,27.819l-21.407,23.309l-5.977-11.992l21.945,81.471l-82.214,17.923L211.98,232.65
						l2.116,15.837l-29.965-10.778l8.669-33.133c1.629-4.091,4.325-7.671,7.807-10.366L223.645,178.878z"/>
				</defs>
				<use xlink:href="#SVGID_00000098916406121943084440000010201377458607810470_"  style="overflow:visible;fill:#F27749;"/>
				<clipPath id="SVGID_00000098199165487498985040000017160733492701829002_">
					<use xlink:href="#SVGID_00000098916406121943084440000010201377458607810470_"  style="overflow:visible;"/>
				</clipPath>
			</g>
			<g style="opacity:0.46;">
				<path style="fill:none;stroke:#F6E7DA;stroke-width:0.75;stroke-linecap:round;stroke-miterlimit:10;" d="M216.484,185.942
					c2.584,6.859,2.951,14.765-0.141,21.41c-3.092,6.645-9.991,11.671-17.318,11.459c-1.499-0.044-3.025-0.291-4.483,0.062
					c-3,0.728-4.807,3.701-6.286,6.411"/>
				<path style="fill:none;stroke:#F6E7DA;stroke-width:0.75;stroke-linecap:round;stroke-miterlimit:10;" d="M205.929,237.564
					c8.328-6.585,20.955-7.06,29.754-1.119c9.481,6.401,13.587,19.22,10.937,30.348c-2.65,11.128-11.298,20.307-21.712,25.042"/>
				<path style="fill:none;stroke:#F6E7DA;stroke-width:0.75;stroke-linecap:round;stroke-miterlimit:10;" d="M253.554,309.548
					c-3.941-8.159-0.726-19.062,7.012-23.777c5.694-3.47,12.934-3.682,18.579-7.231c7.068-4.445,10.476-13.378,17.767-17.448"/>
				<path style="fill:none;stroke:#F6E7DA;stroke-width:0.75;stroke-linecap:round;stroke-miterlimit:10;" d="M231.964,195.39
					c0.912,4.002,0.556,8.177,1.01,12.257c0.454,4.079,1.98,8.4,5.477,10.548c3.867,2.377,8.892,1.413,13.237,2.724
					c5.444,1.643,9.109,6.55,12.982,10.714c3.873,4.163,9.253,8.067,14.784,6.745"/>
				<path style="fill:none;stroke:#F6E7DA;stroke-width:0.75;stroke-linecap:round;stroke-miterlimit:10;" d="M271.521,175.922
					c-3.073,7.349,0.22,16.425,6.629,21.155c6.409,4.73,15.21,5.447,22.826,3.112"/>
			</g>
			<g>
				<path style="fill:none;stroke:#FCFCFC;stroke-width:0.4621;stroke-miterlimit:10;" d="M185.649,232.699
					c8.05,3.637,27.871,9.793,27.871,9.793"/>
				<path style="fill:none;stroke:#FCFCFC;stroke-width:0.4621;stroke-miterlimit:10;" d="M293.643,224.359
					c0,0,14.581-16.801,18.71-22.604"/>
			</g>
			<g>
				<path style="fill:#CF5223;" d="M219.196,181.892l5.364-10.001l18.432,11.77l-4.23,15.495
					C238.762,199.155,225.428,190.484,219.196,181.892z"/>
				<path style="fill:#CF5223;" d="M262.212,173.226l-8.925-7.009l-10.945,17.58l11.976,11.762
					C254.317,195.559,259.95,183.596,262.212,173.226z"/>
			</g>
		</g>
		<g>
			<g>
				<g>
					<g>
						<polygon style="fill:#F6E7DA;" points="280.24,266.822 263.694,276.143 249.843,262.834 257.183,206.88 287.581,210.868 
													"/>
					</g>
					<g>
						<g>
							<g>
								<g>
									<path style="fill:#070B0C;" d="M261.132,243.892c-0.184-0.563-0.108-1.164,0.128-1.699c0.28-0.636,0.71-1.196,1.201-1.706
										c0.003-0.074,0.015-0.152,0.039-0.234l1.974-2.029l1.913,2.04l-0.356-5.385l-5.127-0.463l1.451,1.547l-2.449,2.517
										l-0.108,0.217c-0.613,1.234-0.573,2.686,0.107,3.884c0.313,0.551,0.741,1.014,1.247,1.363
										C261.144,243.926,261.137,243.909,261.132,243.892z"/>
									<path style="fill:#070B0C;" d="M263.423,241.577c-0.382-0.03-0.615-0.237-0.74-0.397c-0.282,0.321-0.534,0.663-0.734,1.035
										c-0.226,0.422-0.365,0.909-0.245,1.385c0.086,0.343,0.286,0.631,0.534,0.878c0.304,0.098,0.621,0.161,0.946,0.186
										l3.229,0.251l0.24-3.087L263.423,241.577z"/>
								</g>
								<g>
									<path style="fill:#070B0C;" d="M278.474,242.107c-0.355,0.474-0.89,0.757-1.464,0.872
										c-0.682,0.136-1.387,0.106-2.087-0.003c-0.063,0.04-0.133,0.075-0.214,0.102l-2.795-0.45l0.571-2.738l-4.203,3.385
										l2.567,4.463l0.433-2.076l3.467,0.558l0.24-0.036c1.362-0.207,2.528-1.074,3.118-2.319
										c0.271-0.573,0.404-1.189,0.399-1.803C278.495,242.077,278.485,242.092,278.474,242.107z"/>
									<path style="fill:#070B0C;" d="M275.263,241.561c0.195,0.33,0.16,0.639,0.1,0.834c0.425,0.046,0.849,0.056,1.269,0.006
										c0.476-0.057,0.954-0.224,1.275-0.595c0.231-0.268,0.352-0.597,0.412-0.941c-0.095-0.305-0.225-0.601-0.391-0.881
										l-1.65-2.787l-2.664,1.577L275.263,241.561z"/>
								</g>
								<g>
									<path style="fill:#070B0C;" d="M268.27,228.787c0.586,0.082,1.093,0.415,1.47,0.862c0.448,0.532,0.762,1.164,1.004,1.829
										c0.065,0.036,0.13,0.081,0.193,0.138l0.953,2.666l-2.673,0.82l4.992,2.05l2.672-4.401l-2.028,0.622l-1.183-3.306
										l-0.147-0.192c-0.839-1.094-2.16-1.697-3.535-1.613c-0.633,0.038-1.236,0.22-1.772,0.52
										C268.233,228.783,268.251,228.784,268.27,228.787z"/>
									<path style="fill:#070B0C;" d="M269.339,231.863c0.195-0.33,0.483-0.448,0.682-0.49c-0.164-0.394-0.36-0.771-0.607-1.115
										c-0.279-0.389-0.656-0.728-1.136-0.83c-0.346-0.074-0.692-0.021-1.023,0.093c-0.221,0.23-0.418,0.487-0.584,0.768
										l-1.646,2.789l2.666,1.574L269.339,231.863z"/>
								</g>
							</g>
						</g>
						<path style="fill:#070B0C;" d="M274.53,254.033l-14.526-1.906c-0.743-0.097-1.266-0.779-1.168-1.521l0,0
							c0.097-0.743,0.779-1.266,1.521-1.168l14.526,1.906c0.743,0.097,1.266,0.779,1.169,1.521l0,0
							C275.954,253.607,275.273,254.13,274.53,254.033z"/>
						<path style="fill:#070B0C;" d="M273.648,260.758l-14.526-1.906c-0.743-0.098-1.266-0.779-1.169-1.521l0,0
							c0.097-0.743,0.779-1.266,1.521-1.169l14.526,1.906c0.743,0.097,1.266,0.779,1.169,1.521l0,0
							C275.072,260.332,274.391,260.855,273.648,260.758z"/>
					</g>
				</g>
				<g>
					<path style="fill:#070B0C;" d="M277.962,216.911c-0.109-1.258,0.822-2.367,2.08-2.477s2.367,0.822,2.477,2.08
						c0.109,1.258-0.822,2.367-2.08,2.477C279.18,219.1,278.072,218.169,277.962,216.911z"/>
				</g>
			</g>
			<g>
				<g>
					<g>
						<path style="fill:#F6E7DA;" d="M245.985,168.211c0.965-1.011,2.649-0.704,3.855-0.373c1.537,0.423,3.001,1.152,4.249,2.145
							c2.702,2.151,5.12,4.694,7.29,7.374c4.497,5.555,7.915,11.912,10.909,18.376c0.857,1.85,1.679,3.715,2.483,5.588
							c0.406,0.946,0.808,1.894,1.206,2.844c0.154,0.366,1.33,2.451,1.132,2.792c0.18-0.103,0.36-0.206,0.54-0.31
							c0.106,0.077,0.213,0.154,0.319,0.231c-0.096,0.235-0.191,0.471-0.287,0.706c0.032-0.018,0.064-0.036,0.097-0.054
							c0.701-0.394,0.072-1.474-0.631-1.079c-0.032,0.018-0.064,0.036-0.097,0.054c-0.247,0.139-0.35,0.439-0.287,0.706
							c0.281,1.185,1.749,0.678,1.599-0.445c-0.121-0.905-0.748-1.905-1.1-2.745c-0.413-0.986-0.829-1.972-1.25-2.955
							c-1.735-4.056-3.553-8.081-5.609-11.986c-3.958-7.518-8.97-15.08-15.814-20.285c-2.218-1.687-7.084-3.985-9.486-1.467
							C244.546,167.91,245.428,168.795,245.985,168.211L245.985,168.211z"/>
					</g>
				</g>
				<g>
					<g>
						
							<ellipse transform="matrix(0.5078 -0.8615 0.8615 0.5078 -53.4234 354.8664)" style="fill:#F6E7DA;" cx="283.855" cy="224.188" rx="20.95" ry="20.95"/>
						<path style="opacity:0.34;fill:#FAAF4C;" d="M277.072,229.576c-5.146-6.058-7.002-13.74-6.561-21.53
							c-5.794,4.799-8.81,12.559-7.161,20.434c2.371,11.325,13.474,18.583,24.799,16.212c4.502-0.942,8.344-3.279,11.211-6.447
							C290.901,238.303,282.708,236.211,277.072,229.576z"/>
					</g>
					<g>
						
							<ellipse transform="matrix(0.5308 -0.8475 0.8475 0.5308 -56.8115 345.7607)" style="fill:none;stroke:#070B0C;stroke-width:1.1053;stroke-miterlimit:10;" cx="283.855" cy="224.188" rx="17.5" ry="17.5"/>
						<g>
							<g>
								<path style="fill:none;stroke:#070B0C;stroke-width:0.7035;stroke-linecap:round;stroke-miterlimit:10;" d="
									M281.413,237.238c-2.665-3.594-3.607-8.408-2.495-12.742c1.112-4.333,4.258-8.098,8.324-9.964
									c0.98,3.235,1.969,6.535,1.907,9.915c-0.095,5.146-2.807,10.176-7.054,13.084"/>
								<path style="fill:none;stroke:#070B0C;stroke-width:0.7035;stroke-linecap:round;stroke-miterlimit:10;" d="
									M281.789,237.216c-0.652-5.716,0.658-11.637,3.659-16.545"/>
								<path style="fill:none;stroke:#070B0C;stroke-width:0.7035;stroke-linecap:round;stroke-miterlimit:10;" d="
									M282.286,230.599c1.198-0.621,2.397-1.242,3.595-1.863"/>
								<path style="fill:none;stroke:#070B0C;stroke-width:0.7035;stroke-linecap:round;stroke-miterlimit:10;" d="
									M282.996,225.498c-0.393-1.14-0.787-2.28-1.181-3.42"/>
							</g>
							<g>
								<g>
									<g>
										<path style="fill:#070B0C;" d="M293.127,222.851c0.754,0,0.756-1.173,0-1.173
											C292.373,221.679,292.371,222.851,293.127,222.851L293.127,222.851z"/>
									</g>
								</g>
								<g>
									<g>
										<path style="fill:#070B0C;" d="M293.547,228.659c0.754,0,0.756-1.173,0-1.173
											C292.792,227.487,292.791,228.659,293.547,228.659L293.547,228.659z"/>
									</g>
								</g>
								<g>
									<g>
										<path style="fill:#070B0C;" d="M290.657,233.885c0.755,0,0.756-1.173,0-1.173
											C289.902,232.713,289.901,233.885,290.657,233.885L290.657,233.885z"/>
									</g>
								</g>
								<g>
									<g>
										<path style="fill:#070B0C;" d="M275.767,231.266c0.754,0,0.756-1.173,0-1.173
											C275.013,230.094,275.011,231.266,275.767,231.266L275.767,231.266z"/>
									</g>
								</g>
								<g>
									<g>
										<path style="fill:#070B0C;" d="M275.341,224.663c0.754,0,0.756-1.173,0-1.173
											C274.586,223.49,274.585,224.663,275.341,224.663L275.341,224.663z"/>
									</g>
								</g>
								<g>
									<g>
										<path style="fill:#070B0C;" d="M278.472,219.068c0.755,0,0.756-1.173,0-1.173
											C277.717,217.895,277.716,219.068,278.472,219.068L278.472,219.068z"/>
									</g>
								</g>
							</g>
						</g>
					</g>
				</g>
			</g>
			<g>
				<path style="fill:#070B0C;" d="M283.849,210.712c-0.211-1.01-1.202-1.658-2.212-1.446s-1.658,1.202-1.446,2.212
					c0.212,1.01,1.202,1.658,2.212,1.446C283.414,212.713,284.061,211.722,283.849,210.712z"/>
				<g>
					<g>
						<path style="fill:#F6E7DA;" d="M282.598,210.727c-7.845-4.906-14.996-10.918-21.438-17.546
							c-3.256-3.35-6.34-6.878-9.159-10.604c-1.328-1.756-2.603-3.554-3.796-5.405c-1.337-2.075-2.591-4.271-2.438-6.82
							c0.048-0.803-1.202-0.801-1.25,0c-0.218,3.641,2.107,6.796,4.08,9.647c2.048,2.958,4.271,5.796,6.614,8.526
							c5.043,5.875,10.654,11.281,16.7,16.116c3.217,2.573,6.563,4.981,10.057,7.165
							C282.651,212.234,283.279,211.153,282.598,210.727L282.598,210.727z"/>
					</g>
				</g>
			</g>
		</g>
		<path style="opacity:0.42;fill:#CF5223;" d="M211.98,232.65c0,0,43.576,73.313,59.079,75.957l-41.217,8.951L211.98,232.65z"/>
	</g>
	<g>
		<g>
			<g>
				<g>
					<path style="fill:#20512C;" d="M414.471,177.726c0,0,23.798,6.076,38.914-12.501c0,0,5.05,21.282-12.345,26.404
						C423.646,196.751,414.471,177.726,414.471,177.726z"/>
					<g style="opacity:0.26;">
						<g>
							<path style="fill:#FCFCFC;" d="M419.589,182.716c9.473,1.793,19.419-0.236,27.402-5.657c0.612-0.415,0.034-1.417-0.583-0.997
								c-7.718,5.242-17.337,7.276-26.512,5.54C419.169,181.465,418.858,182.578,419.589,182.716L419.589,182.716z"/>
						</g>
					</g>
				</g>
				<g>
					<g>
						<g>
							<path style="fill:#001D55;" d="M402.611,207.803c20.836-6.521,41.672-13.042,62.508-19.563
								c5.885-1.842,11.77-3.684,17.655-5.525c0.707-0.221,0.405-1.337-0.307-1.114c-20.836,6.521-41.672,13.042-62.508,19.562
								c-5.885,1.842-11.77,3.684-17.655,5.525C401.597,206.911,401.899,208.026,402.611,207.803L402.611,207.803z"/>
						</g>
					</g>
					<g>
						<g>
							<g>
								<path style="fill:#070B0C;" d="M424.216,147.815c-0.744-1.135-1.465-2.546-0.967-3.926c0.316-0.877,1.051-1.523,1.823-2.003
									c2.306-1.432,5.142-1.202,7.078,0.79c2.316,2.384,2.198,5.89,1.263,8.841c-0.903,2.85-2.266,5.67-1.519,8.72
									c0.177,0.722,1.291,0.416,1.114-0.307c-0.753-3.072,0.958-6.009,1.753-8.894c0.713-2.585,0.659-5.42-0.736-7.779
									c-2.315-3.914-7.747-4.634-10.89-1.292c-1.815,1.93-1.253,4.396,0.083,6.433
									C423.624,149.017,424.625,148.439,424.216,147.815L424.216,147.815z"/>
							</g>
						</g>
						<g>
							<g>
								<path style="fill:#070B0C;" d="M433.155,161.509c17.445,4.255,34.152,11.221,49.451,20.622
									c0.635,0.39,1.216-0.609,0.583-0.997c-15.378-9.449-32.192-16.461-49.727-20.738
									C432.74,160.219,432.432,161.332,433.155,161.509L433.155,161.509z"/>
							</g>
						</g>
						<g>
							<g>
								<path style="fill:#070B0C;" d="M432.461,159.968c-10.673,10.443-20.143,22.302-27.079,35.565
									c-1.933,3.696-3.651,7.501-5.145,11.395c-0.266,0.695,0.85,0.995,1.114,0.307c5.304-13.834,13.619-26.38,23.381-37.464
									c2.733-3.104,5.59-6.095,8.546-8.987C433.81,160.264,432.993,159.447,432.461,159.968L432.461,159.968z"/>
							</g>
						</g>
					</g>
				</g>
				<g>
					<defs>
						<path id="SVGID_00000170250894296366492330000007526912856410864025_" d="M413.957,174.023c0,0,3.503,17.365,23.422,12.419
							c19.919-4.946,14.949-23.569,14.949-23.569l25.644,7.86c0,0,16.907,10.809,23.766,18.322l-10.845,18.85l-6.931-3.627
							l13.141,35.816l-70.973,22.212l-11.529-38.896l-3.04,6.748l-26.292-7.872l11.391-27.393L413.957,174.023z"/>
					</defs>
					<use xlink:href="#SVGID_00000170250894296366492330000007526912856410864025_"  style="overflow:visible;fill:#2E7141;"/>
					<clipPath id="SVGID_00000181052406611276208130000002794957882872267431_">
						<use xlink:href="#SVGID_00000170250894296366492330000007526912856410864025_"  style="overflow:visible;"/>
					</clipPath>
					<g style="opacity:0.58;clip-path:url(#SVGID_00000181052406611276208130000002794957882872267431_);">
						<g>
							<path style="fill:#FCFCFC;" d="M449.137,223.502c-2.446,0.94-5.393,0.417-7.365-1.308c-0.264-0.231-0.525-0.506-0.583-0.852
								c-0.087-0.518,0.334-1.016,0.831-1.188s1.043-0.093,1.557,0.015c1.913,0.403,3.743,1.197,5.344,2.319"/>
						</g>
						<g>
							<path style="fill:#FCFCFC;" d="M471.828,205.992c2.54-0.642,5.404,0.229,7.156,2.177c0.235,0.261,0.461,0.565,0.477,0.916
								c0.025,0.525-0.453,0.969-0.967,1.081c-0.514,0.111-1.046-0.032-1.544-0.201c-1.852-0.628-3.574-1.635-5.03-2.94"/>
						</g>
						<g>
							<path style="fill:#FCFCFC;" d="M484.369,180.417c-2.446,0.94-5.393,0.417-7.365-1.308c-0.265-0.231-0.525-0.506-0.583-0.852
								c-0.087-0.519,0.334-1.017,0.831-1.188c0.497-0.172,1.043-0.093,1.557,0.015c1.913,0.403,3.743,1.197,5.344,2.319"/>
						</g>
						<g>
							<path style="fill:#FCFCFC;" d="M402.135,214.92c-2.446,0.94-5.392,0.417-7.365-1.308c-0.264-0.231-0.525-0.506-0.583-0.852
								c-0.087-0.519,0.334-1.016,0.831-1.188s1.043-0.093,1.557,0.015c1.913,0.403,3.743,1.197,5.344,2.319"/>
						</g>
						<g>
							<path style="fill:#FCFCFC;" d="M408.041,193.662c-1.147-2.009-1.083-4.652,0.159-6.604c0.167-0.262,0.371-0.526,0.666-0.623
								c0.441-0.145,0.932,0.156,1.148,0.567c0.216,0.411,0.22,0.898,0.195,1.361c-0.096,1.724-0.546,3.427-1.312,4.975"/>
						</g>
						<g>
							<path style="fill:#FCFCFC;" d="M456.629,183.844c-1.411,1.399-2.65,3.302-2.256,5.25c0.162,0.801,0.793,1.643,1.604,1.546
								c0.855-0.102,1.24-1.113,1.378-1.963c0.291-1.782,0.291-3.611-0.002-5.393"/>
						</g>
						<g>
							<path style="fill:#FCFCFC;" d="M421.236,194.275c0.189,1.534,0.347,3.103,0.018,4.613c-0.329,1.51-1.228,2.974-2.639,3.605
								c-0.751,0.336-1.799,0.329-2.222-0.377c-0.264-0.44-0.19-0.998-0.073-1.497c0.577-2.447,2.047-4.673,4.072-6.164"/>
						</g>
						<g>
							<path style="fill:#FCFCFC;" d="M475.09,236.057c0.513,1.313,1.007,2.665,1.057,4.075c0.049,1.409-0.415,2.907-1.52,3.783
								c-0.588,0.467-1.516,0.697-2.05,0.168c-0.332-0.329-0.394-0.839-0.402-1.307c-0.042-2.294,0.756-4.594,2.209-6.368"/>
						</g>
						<g>
							<path style="fill:#FCFCFC;" d="M436.856,254.219c2.016-1.898,2.686-5.088,1.604-7.636c-0.317-0.746-0.888-1.51-1.697-1.563
								c-1.205-0.079-1.874,1.394-1.943,2.599c-0.115,2.004,0.465,4.041,1.619,5.683"/>
						</g>
					</g>
				</g>
				<g>
					<path style="fill:none;stroke:#FCFCFC;stroke-width:0.4621;stroke-miterlimit:10;" d="M387.812,216.937
						c8.412,2.698,16.672,5.869,24.728,9.493"/>
					<path style="fill:none;stroke:#FCFCFC;stroke-width:0.4621;stroke-miterlimit:10;" d="M486.993,204.895
						c2.392-6.708,5.33-13.221,8.773-19.455"/>
					<path style="fill:none;stroke:#FCFCFC;stroke-width:0.4621;stroke-miterlimit:10;" d="M410.492,179.292
						c1.82,4.155,5.809,6.908,9.783,9.096c3.754,2.067,7.763,3.861,12.029,4.277c7.12,0.694,14.335-2.709,18.939-8.186
						c4.603-5.476,6.71-12.804,6.524-19.955"/>
				</g>
				<path style="fill:#20512C;" d="M423.622,236.117c-2.808-2.885-5.471-5.927-7.955-9.108l10.462,35.298l26.99-8.447
					C441.93,251.452,432.243,244.974,423.622,236.117z"/>
			</g>
			<g>
				<g>
					<g>
						<g>
							
								<ellipse transform="matrix(0.796 -0.6053 0.6053 0.796 -14.2071 326.3282)" style="fill:#F6E7DA;" cx="477.016" cy="184.241" rx="20.95" ry="20.95"/>
							<path style="opacity:0.34;fill:#FAAF4C;" d="M468.921,187.328c-3.075-7.329-2.523-15.213,0.25-22.506
								c-6.973,2.824-12.193,9.31-13,17.316c-1.161,11.512,7.229,21.786,18.741,22.947c4.576,0.462,8.945-0.605,12.635-2.758
								C479.467,199.825,472.289,195.355,468.921,187.328z"/>
						</g>
						<g>
							<circle style="fill:none;stroke:#070B0C;stroke-width:1.1053;stroke-miterlimit:10;" cx="477.016" cy="184.241" r="17.5"/>
							<g>
								<g>
									<path style="fill:none;stroke:#070B0C;stroke-width:0.7035;stroke-linecap:round;stroke-miterlimit:10;" d="
										M470.744,195.943c-1.454-4.231-0.898-9.105,1.471-12.9c2.37-3.795,6.506-6.434,10.946-6.984
										c-0.043,3.38-0.097,6.825-1.178,10.027c-1.645,4.877-5.751,8.853-10.678,10.341"/>
									<path style="fill:none;stroke:#070B0C;stroke-width:0.7035;stroke-linecap:round;stroke-miterlimit:10;" d="
										M471.11,196.036c1.105-5.645,4.143-10.894,8.487-14.666"/>
									<path style="fill:none;stroke:#070B0C;stroke-width:0.7035;stroke-linecap:round;stroke-miterlimit:10;" d="
										M473.582,189.879c1.33-0.23,2.66-0.46,3.99-0.689"/>
									<path style="fill:none;stroke:#070B0C;stroke-width:0.7035;stroke-linecap:round;stroke-miterlimit:10;" d="M475.8,185.23
										c-0.031-1.206-0.061-2.411-0.092-3.616"/>
								</g>
								<g>
									<g>
										<g>
											<path style="fill:#070B0C;" d="M486.435,185.796c0.754,0,0.756-1.173,0-1.173
												C485.68,184.623,485.679,185.796,486.435,185.796L486.435,185.796z"/>
										</g>
									</g>
									<g>
										<g>
											<path style="fill:#070B0C;" d="M485.08,191.459c0.754,0,0.756-1.173,0-1.173
												C484.325,190.286,484.324,191.459,485.08,191.459L485.08,191.459z"/>
										</g>
									</g>
									<g>
										<g>
											<path style="fill:#070B0C;" d="M480.746,195.568c0.755,0,0.756-1.173,0-1.173
												C479.992,194.395,479.99,195.568,480.746,195.568L480.746,195.568z"/>
										</g>
									</g>
									<g>
										<g>
											<path style="fill:#070B0C;" d="M467.344,188.572c0.754,0,0.756-1.173,0-1.173
												C466.589,187.4,466.588,188.572,467.344,188.572L467.344,188.572z"/>
										</g>
									</g>
									<g>
										<g>
											<path style="fill:#070B0C;" d="M468.932,182.149c0.755,0,0.756-1.173,0-1.173
												C468.178,180.976,468.177,182.149,468.932,182.149L468.932,182.149z"/>
										</g>
									</g>
									<g>
										<g>
											<path style="fill:#070B0C;" d="M473.608,177.761c0.754,0,0.756-1.173,0-1.173
												C472.853,176.588,472.852,177.761,473.608,177.761L473.608,177.761z"/>
										</g>
									</g>
								</g>
							</g>
						</g>
					</g>
				</g>
				<g>
					<path style="fill:#070B0C;" d="M481.081,171.393c0.104-1.027-0.645-1.943-1.672-2.047c-1.027-0.104-1.943,0.645-2.047,1.672
						s0.645,1.943,1.672,2.047C480.061,173.169,480.978,172.42,481.081,171.393z"/>
				</g>
				<g>
					<g>
						<path style="fill:#F6E7DA;" d="M479.933,169.831c-4.138-6.837-6.228-17.62-15.471-19.416c-3.77-0.733-7.226,1.011-9.608,3.88
							c-2.702,3.254-3.851,7.308-5.577,11.091c-0.515,1.13-1.086,2.238-1.772,3.275c-0.394,0.597-2.03,2.919-2.48,1.462
							c-0.441-1.428-0.232-3.133-0.165-4.604c0.037-0.804-1.213-0.802-1.25,0c-0.069,1.511-0.709,6.036,1.516,6.365
							c1.819,0.269,3.128-2.005,3.898-3.292c1.133-1.894,1.945-3.958,2.767-5.999c1.559-3.869,3.448-8.326,7.415-10.293
							c4.436-2.199,9.155,0.475,12.045,3.92c3.478,4.146,4.829,9.66,7.602,14.242C479.27,171.149,480.351,170.522,479.933,169.831
							L479.933,169.831z"/>
					</g>
				</g>
				<g>
					<g>
						<path style="fill:#F6E7DA;" d="M445.219,162.952c3.384-6.213,6.662-12.429,12.554-16.654c3.101-2.224,7.076-3.995,10.96-3.139
							c3.503,0.772,6.105,3.555,7.591,6.705c2.018,4.277,1.955,9.2,1.935,13.825c-0.003,0.804,1.247,0.805,1.25,0
							c0.033-7.526-0.463-17.535-8.505-21.09c-7.56-3.342-15.697,2.993-20.149,8.638c-2.685,3.405-4.65,7.291-6.715,11.084
							C443.755,163.028,444.834,163.66,445.219,162.952L445.219,162.952z"/>
					</g>
				</g>
			</g>
		</g>
		<g>
			<path style="fill:#F27749;" d="M497.11,202.874c0,0,29.749,39.877,36.833,34.88c0,0,36.757-45.089,20.584-57.096
				c-9.605-7.131-16.418,21.319-25.975,37.492c-0.292,0.495-27.451-24.92-27.451-24.92s-6.617-9.634-7.427-8.757
				c-1.173,1.271,1.663,9.311,1.663,9.311s-1.552,2.217-3.769,5.432C491.789,199.438,496.27,202.266,497.11,202.874z"/>
			<path style="fill:#D44F18;" d="M554.527,180.658c-0.897-0.666-1.769-1.005-2.622-1.089c0.285,0.417,0.548,0.842,0.796,1.272
				c0.645,0.57,1.159,1.363,1.439,2.414c1.811,6.785,2.102,13.398,1.273,19.887c0.013,0.016,0.027,0.032,0.041,0.049
				C559.282,193.809,560.423,185.035,554.527,180.658z"/>
			<path style="fill:#D44F18;" d="M528.439,233.647c-0.53,0.718-0.981,1.496-1.399,2.296c2.975,1.995,5.434,2.846,6.903,1.81
				c0,0,1.44-1.767,3.62-4.687C534.4,230.691,531.273,229.809,528.439,233.647z"/>
		</g>
	</g>
</g>
</svg>
