<?xml version="1.0" encoding="utf-8"?>
<!-- Generator: Adobe Illustrator 27.5.0, SVG Export Plug-In . SVG Version: 6.00 Build 0)  -->
<svg version="1.1" xmlns="http://www.w3.org/2000/svg" xmlns:xlink="http://www.w3.org/1999/xlink" x="0px" y="0px"
	 viewBox="0 0 750 500" style="enable-background:new 0 0 750 500;" xml:space="preserve">
<!-- <g id="BACKGROUND">
	<rect style="fill:#FFFFFF;" width="750" height="500"/>
	<g>
		<path style="fill:#E6F7ED;" d="M623.75,469.097h-518C75.565,407.973,60.846,338.818,58.32,270.694
			c-1.082-29.159,1.501-61.045,21.165-82.604c16.102-17.654,40.409-24.776,60.897-37.072c30.121-18.079,51.628-47.141,74.995-73.373
			c23.367-26.232,51.525-51.359,86.231-56.8c43.526-6.823,85.191,18.827,119.585,46.362c34.394,27.535,68.527,59.246,111.703,68.018
			c21.719,4.413,44.42,2.624,65.944,7.907c40.407,9.917,71.877,44.668,84.849,84.201c12.972,39.533,9.369,83.006-2.558,122.867
			C669.203,390.059,643.455,432.453,623.75,469.097z"/>
		<path style="fill:#E6F7ED;" d="M566.572,126.005c12.156,0.799,24.775-0.101,35.713-5.466c10.938-5.365,19.91-15.877,20.834-28.024
			c1.108-14.564-9.097-27.622-20.524-36.719C575.44,34.18,537.84,26.366,504.32,35.371c-25.174,6.764-44.551,33.503-22.323,54.737
			C504.247,111.362,536.123,124.003,566.572,126.005z"/>
		<path style="fill:#E6F7ED;" d="M144.436,127.031c-8.554,4.472-18.922,7.036-27.822,3.299
			c-11.59-4.866-16.848-19.352-14.475-31.695c2.373-12.344,10.699-22.71,19.873-31.303c14.135-13.243,59.653-36.263,67.447-3.86
			C195.027,86.624,162.333,117.675,144.436,127.031z"/>
	</g>
</g> -->
<g id="OBJECTS">
	<g>
		<g>
			<defs>
				
					<rect id="SVGID_1_" x="230.125" y="354.846" transform="matrix(-1 -1.224647e-16 1.224647e-16 -1 750 823.9431)" width="289.75" height="114.252"/>
			</defs>
			<clipPath id="SVGID_00000025438486927907607760000003590276155227548829_">
				<use xlink:href="#SVGID_1_"  style="overflow:visible;"/>
			</clipPath>
			<g style="clip-path:url(#SVGID_00000025438486927907607760000003590276155227548829_);">
				<g>
					<path style="fill:#547374;" d="M475.862,478.221c-7.629,4.326-15.436,7.453-22.754,9.499c-0.913,0.25-1.817,0.498-2.711,0.744
						c-0.901,0.218-1.798,0.41-2.68,0.599c-1.768,0.365-3.477,0.722-5.157,0.966c-3.373,0.455-6.51,0.799-9.445,0.788
						c-11.722,0.135-19.203-3.129-20.157-7.927c-0.99-4.927,4.357-10.454,12.741-16.393c2.118-1.441,4.391-3.052,6.869-4.56
						c1.234-0.771,2.49-1.602,3.802-2.385c0.658-0.39,1.323-0.784,1.995-1.183c0.669-0.41,1.345-0.824,2.028-1.243
						c5.502-3.264,11.525-6.659,17.833-10.24c6.316-3.565,11.793-6.614,16.709-8.966c4.859-2.426,9.17-4.14,12.942-5.214
						c1.878-0.544,3.66-0.882,5.309-1.053c1.625-0.198,3.141-0.204,4.536-0.025c2.789,0.357,5.095,1.449,6.809,3.245
						c1.713,1.796,2.669,4.131,2.696,7.03c0.014,1.449-0.205,3.039-0.675,4.769c-0.493,1.703-1.259,3.521-2.291,5.478
						c-2.074,3.898-5.367,8.179-10.009,12.689C489.561,469.268,483.501,473.911,475.862,478.221z"/>
					<path style="fill:#6D9B7C;" d="M503.672,435.661L503.672,435.661L503.672,435.661c-11.148,9.015-26.388,19.799-42.912,28.307
						c-8.238,4.283-16.733,8.063-24.907,11.207c-8.172,3.155-16.017,5.67-22.895,7.714h0h0c7.113-0.899,15.277-2.587,23.758-5.231
						c8.482-2.632,17.271-6.217,25.662-10.581C479.223,458.41,494.143,446.372,503.672,435.661z"/>
				</g>
				<g>
					<g>
						<path style="fill:#D8E29F;" d="M430.75,453.836L430.75,453.836L430.75,453.836c3.514,1.093,7.89,1.672,12.665,1.286
							c2.349-0.22,4.808-0.666,7.313-1.337c2.517-0.661,4.926-1.671,7.388-2.828c2.48-1.147,4.748-2.636,6.975-4.238
							c2.254-1.584,4.258-3.423,6.106-5.344c0.922-0.961,1.826-1.93,2.639-2.936c0.792-1.019,1.537-2.048,2.232-3.077
							c1.399-2.052,2.588-4.106,3.429-6.138v0v0c-0.805,0.701-1.629,1.42-2.473,2.155c-0.873,0.706-1.765,1.428-2.674,2.164
							c-1.836,1.443-3.633,2.967-5.676,4.341c-2.01,1.395-4.032,2.785-6.139,4.075c-2.152,1.26-4.324,2.463-6.488,3.585
							c-4.457,2.144-8.872,3.963-13.232,5.255C438.567,452.196,434.337,453.01,430.75,453.836z"/>
					</g>
					<g>
						<path style="fill:#D8E29F;" d="M422.687,460.76L422.687,460.76L422.687,460.76c2.823,1.613,6.512,2.98,10.586,3.441
							c2.049,0.252,4.228,0.319,6.483,0.189c2.25-0.134,4.48-0.557,6.767-1.137c1.137-0.297,2.275-0.645,3.406-1.039
							c1.105-0.416,2.186-0.893,3.259-1.404c2.12-1.044,4.272-2.176,6.112-3.569c1.872-1.367,3.608-2.85,5.165-4.375
							c1.494-1.571,2.793-3.194,3.888-4.775l0,0l0,0c-1.61,0.921-3.302,1.888-5.065,2.895c-1.768,0.965-3.672,1.872-5.574,2.767
							c-0.955,0.445-1.92,0.88-2.891,1.302c-0.977,0.417-2.006,0.784-3.014,1.155c-2.026,0.733-4.064,1.404-6.088,1.993
							c-2.086,0.531-4.155,0.981-6.178,1.356c-1.012,0.187-2.012,0.357-3,0.505c-1.014,0.123-2.013,0.229-2.993,0.317
							c-1.962,0.18-3.852,0.292-5.65,0.366C426.097,460.816,424.316,460.769,422.687,460.76z"/>
					</g>
					<g>
						<path style="fill:#D8E29F;" d="M415.177,467.087L415.177,467.087L415.177,467.087c1.83,1.482,4.235,2.829,7.075,3.742
							c1.417,0.458,2.943,0.811,4.533,1.032c1.56,0.184,3.186,0.24,4.839,0.155c1.652-0.088,3.329-0.313,4.979-0.668
							c1.606-0.4,3.186-0.926,4.692-1.555c3.056-1.216,5.641-2.998,7.65-4.822l0,0l0,0c-4.994,1.522-11.154,2.993-17.194,3.334
							c-3.059,0.154-6.001,0.112-8.806-0.138C420.114,467.886,417.491,467.483,415.177,467.087z"/>
					</g>
					<g>
						<path style="fill:#D8E29F;" d="M439.341,445.132L439.341,445.132L439.341,445.132c3.508,0.323,7.407-0.15,11.681-1.296
							c2.129-0.576,4.197-1.431,6.34-2.414c1.061-0.499,2.137-1.034,3.186-1.626c1.022-0.61,2.038-1.261,3.042-1.952
							c2.002-1.385,3.998-2.896,5.732-4.612c1.746-1.707,3.504-3.457,4.919-5.366c1.439-1.896,2.753-3.828,3.865-5.756
							c1.045-1.962,1.925-3.901,2.621-5.751l0,0l0,0c-5.645,5.256-12.645,11.482-20.03,16.588
							C453.365,438.152,445.478,442.006,439.341,445.132z"/>
					</g>
					<g>
						<path style="fill:#D8E29F;" d="M448.488,434.493L448.488,434.493L448.488,434.493c5.838-0.717,13.069-4.292,18.87-10.072
							c5.863-5.701,9.714-13.52,10.882-19.816h0l0,0c-4.165,4.854-8.878,10.885-14.277,16.137l-1.966,1.981
							c-0.667,0.646-1.371,1.263-2.046,1.884c-1.352,1.222-2.687,2.43-3.988,3.606c-1.343,1.127-2.65,2.224-3.903,3.275
							c-0.615,0.531-1.216,1.051-1.802,1.558C449.652,433.543,449.061,434.025,448.488,434.493z"/>
					</g>
					<g>
						<path style="fill:#D8E29F;" d="M454.969,422.625L454.969,422.625L454.969,422.625c1.256-0.399,2.601-0.939,3.922-1.653
							c1.298-0.726,2.62-1.601,3.932-2.608c2.687-1.981,5.039-4.642,7.164-7.592c1.03-1.485,1.889-3.082,2.685-4.687
							c0.393-0.805,0.76-1.617,1.099-2.43c0.31-0.824,0.574-1.655,0.82-2.477c0.487-1.646,0.86-3.269,1.111-4.822
							c0.196-1.571,0.244-3.08,0.187-4.467l0,0l0,0c-0.702,1.208-1.401,2.49-2.125,3.815c-0.77,1.308-1.564,2.659-2.376,4.04
							c-1.532,2.785-3.437,5.552-5.215,8.304C462.389,413.477,458.301,418.495,454.969,422.625z"/>
					</g>
					<g>
						<path style="fill:#D8E29F;" d="M430.644,453.729L430.644,453.729L430.644,453.729c-1.151-3.6-1.915-7.808-2.285-12.208
							c-0.223-2.233-0.329-4.499-0.315-6.734c0.027-2.226,0.025-4.549,0.237-6.725c0.236-2.162,0.431-4.375,0.815-6.425
							c0.412-2.033,0.807-4.049,1.345-5.909c0.264-0.933,0.585-1.815,0.892-2.685c0.286-0.882,0.602-1.725,0.946-2.528
							c0.697-1.601,1.498-3.045,2.261-4.375l0,0l0,0c0.041,0.802,0.094,1.643,0.108,2.493c-0.009,0.848-0.017,1.715-0.026,2.599
							c-0.046,1.77,0,3.7-0.144,5.6c-0.099,1.948-0.202,3.953-0.306,5.996c-0.167,2.022-0.321,4.113-0.459,6.251
							c-0.385,4.185-0.703,8.571-1.246,12.719C432.035,446.044,431.339,449.997,430.644,453.729z"/>
					</g>
					<g>
						<path style="fill:#D8E29F;" d="M423.027,461.159L423.027,461.159L423.027,461.159c-1.169-3.073-1.944-6.699-2.427-10.672
							c-0.229-1.968-0.346-3.979-0.349-5.97c-0.007-1.995,0.01-4.067,0.196-6.019c0.089-0.982,0.209-1.946,0.359-2.887
							c0.125-0.964,0.264-1.921,0.44-2.843c0.326-1.867,0.861-3.543,1.337-5.226c0.5-1.662,1.115-3.18,1.821-4.543
							c0.643-1.41,1.362-2.676,2.157-3.763l0,0l0,0c-0.054,1.436-0.111,2.945-0.17,4.517c-0.086,1.582-0.255,3.192-0.369,4.909
							c-0.059,0.86-0.119,1.734-0.179,2.618c-0.079,0.873-0.16,1.757-0.241,2.65c-0.162,1.79-0.307,3.639-0.434,5.526
							c-0.18,1.833-0.339,3.705-0.484,5.593c-0.07,0.948-0.139,1.895-0.209,2.838c-0.09,0.925-0.18,1.845-0.27,2.758
							c-0.175,1.854-0.347,3.679-0.513,5.443C423.516,457.869,423.263,459.527,423.027,461.159z"/>
					</g>
					<g>
						<path style="fill:#D8E29F;" d="M415.173,467.082L415.173,467.082L415.173,467.082c-0.885-2.204-1.533-4.895-1.832-7.751
							c-0.152-1.428-0.214-2.892-0.193-4.358c-0.008-1.504,0.068-3.007,0.233-4.468c0.168-1.461,0.427-2.876,0.764-4.22
							c0.296-1.392,0.671-2.71,1.121-3.924c0.934-2.393,2.017-4.528,3.266-6.111v0l0,0c-0.377,4.267-1.186,9.481-1.761,14.977
							c-0.339,2.7-0.546,5.534-0.797,8.224C415.692,462.142,415.419,464.742,415.173,467.082z"/>
					</g>
					<g>
						<path style="fill:#D8E29F;" d="M438.547,444.461L438.547,444.461L438.547,444.461c-0.776-3.286-1.448-7.263-1.625-11.251
							c-0.096-2-0.218-4.118-0.173-6.167c0.012-1.032,0.061-2.051,0.115-3.074c0.026-1.042,0.079-2.074,0.159-3.092
							c0.155-2.038,0.463-3.991,0.712-5.952c0.261-1.952,0.74-3.759,1.123-5.556c0.403-1.787,0.932-3.45,1.52-4.998
							c0.519-1.579,1.135-3.026,1.829-4.324v0v0c0.957,6.061,0.861,13.721,0.27,21.689
							C441.903,429.708,440.535,437.837,438.547,444.461z"/>
					</g>
					<g>
						<path style="fill:#D8E29F;" d="M446.315,432.991L446.315,432.991L446.315,432.991c-1.312-5.65-1.603-13.076-0.687-19.954
							c0.92-6.907,2.782-13.411,5.547-17.908l0,0l0,0c0.443,5.283,0.214,11.998-0.716,18.731l-0.315,2.555
							c-0.12,0.847-0.28,1.676-0.419,2.516c-0.304,1.692-0.605,3.364-0.898,4.993c-0.377,1.606-0.766,3.188-1.169,4.717
							c-0.21,0.768-0.416,1.52-0.616,2.253C446.793,431.613,446.55,432.312,446.315,432.991z"/>
					</g>
					<g>
						<path style="fill:#D8E29F;" d="M454.034,422.1L454.034,422.1L454.034,422.1c-0.323-1.277-0.533-2.638-0.707-4.086
							c-0.198-1.46-0.314-2.983-0.34-4.531c0.013-3.068,0.078-6.372,0.69-9.498c0.251-1.584,0.529-3.161,0.946-4.664
							c0.203-0.753,0.43-1.493,0.679-2.216c0.219-0.733,0.443-1.455,0.696-2.154c0.503-1.401,1.088-2.725,1.741-3.952
							c0.598-1.242,1.237-2.394,1.95-3.418l0,0l0,0c0.038,1.243,0.054,2.565,0.03,3.941c-0.084,1.359-0.192,2.777-0.315,4.239
							c-0.175,2.948-0.746,5.953-1.139,9.062C457.193,410.929,455.94,417.194,454.034,422.1z"/>
					</g>
					<g>
						<path style="fill:#D8E29F;" d="M469.977,379.644L469.977,379.644L469.977,379.644c-2.313,4.7-4.317,10.887-6.448,17.047
							c-0.934,3.123-2.053,6.179-2.82,9.186c-0.914,2.947-1.6,5.808-2.103,8.363h0h0c1.689-1.984,3.296-4.485,4.844-7.244
							c1.401-2.819,2.865-5.858,3.828-9.072C469.473,391.58,470.256,384.814,469.977,379.644z"/>
					</g>
					<path style="fill:#B0C98F;" d="M462.698,405.183L462.698,405.183L462.698,405.183c-5.425,10.816-13.474,24.311-23.349,36.414
						c-4.943,6.041-10.274,11.752-15.578,16.868c-5.305,5.125-10.69,9.487-15.378,13.334v0v0c5.317-2.869,11.314-6.59,17.11-11.373
						c5.794-4.773,11.488-10.437,16.552-16.628C452.189,431.391,459.45,416.844,462.698,405.183z"/>
				</g>
				<g>
					<path style="fill:#547374;" d="M289.363,435.025c14.484,7.162,25.981,16.588,32.762,25.027
						c6.827,8.459,9.066,15.766,6.184,19.433c-2.93,3.734-10.273,3.282-19.837,0.437c-9.587-2.874-21.493-8.037-34.25-14.348
						c-12.765-6.292-21.76-11.693-27.312-16.918c-1.389-1.293-2.551-2.595-3.499-3.872c-0.955-1.257-1.69-2.509-2.208-3.746
						c-1.036-2.473-1.205-4.881-0.514-7.131c0.691-2.25,2.179-4.129,4.534-5.517c1.177-0.694,2.571-1.266,4.187-1.701
						c1.609-0.414,3.434-0.672,5.486-0.781C263.063,425.512,274.87,427.879,289.363,435.025z"/>
					<path style="fill:#6D9B7C;" d="M241.743,434.244L241.743,434.244L241.743,434.244c12.632,5.039,28.91,11.974,44.545,20.205
						c15.679,8.148,30.654,17.565,42.021,25.036h0h0c-5.017-4.59-11.142-9.547-18.031-14.357c-6.884-4.815-14.53-9.48-22.451-13.623
						C271.996,443.167,255.024,437.162,241.743,434.244z"/>
				</g>
				<g>
					<path style="fill:#6D9B7C;" d="M431.035,406.277L431.035,406.277L431.035,406.277c-8.992,4.403-16.743,9.675-23.351,15.582
						c-6.606,5.916-12.065,12.485-16.434,19.708c-4.383,7.215-7.682,15.094-9.871,23.687c-2.181,8.59-3.269,17.901-3.014,27.91l0,0
						h0c9.978-0.253,19.67-3.236,28.159-8.431c8.493-5.179,15.761-12.555,20.993-21.181c5.227-8.628,8.405-18.483,9.068-28.409
						C437.265,425.214,435.427,415.24,431.035,406.277z"/>
					<path style="fill:#B0C98F;" d="M423.108,463.615c0.21-0.14,0.281-0.422,0.158-0.629c-0.122-0.208-0.394-0.261-0.603-0.122
						c-1.663,1.104-3.397,2.028-5.191,2.748c-1.819,0.704-3.681,1.214-5.553,1.526c-3.724,0.64-7.592,0.409-11.212-0.568
						l2.117-3.018l2.036-3.073c1.381-2.034,2.664-4.13,3.967-6.214c4.063,0.238,8.086-0.456,11.984-1.91
						c3.823-1.494,7.488-3.771,10.5-6.786c0.18-0.177,0.195-0.464,0.033-0.641c-0.162-0.175-0.438-0.177-0.618,0
						c-2.865,2.869-6.344,5.049-9.969,6.509c-3.698,1.422-7.555,2.119-11.405,1.985c4.155-6.816,7.97-13.838,11.426-21.033
						c0.01-0.001,0.017,0.005,0.027,0.004c2.454-0.382,4.827-1.212,6.986-2.446c2.178-1.224,4.188-2.831,5.827-4.781
						c0.16-0.187,0.145-0.468-0.032-0.628c-0.179-0.16-0.453-0.136-0.612,0.05c-0.766,0.892-1.592,1.718-2.478,2.464
						c-0.907,0.737-1.864,1.398-2.861,1.975c-1.998,1.153-4.126,1.983-6.39,2.4c2.583-5.504,5.041-11.073,7.185-16.766
						c0.086-0.223-0.024-0.471-0.246-0.556c-0.223-0.085-0.472,0.026-0.558,0.247c-2.476,6.501-5.258,12.886-8.332,19.126
						c-1.072-2.02-1.807-4.152-2.278-6.345c-0.483-2.199-0.628-4.426-0.447-6.62c0.015-0.23-0.163-0.436-0.399-0.459
						c-0.235-0.022-0.438,0.145-0.453,0.375c-0.208,2.364-0.025,4.78,0.521,7.157c0.499,2.354,1.364,4.67,2.571,6.833
						c0.005,0.009,0.015,0.011,0.02,0.019c-2.813,5.602-5.749,11.149-8.999,16.513c-3.807-6.694-5.42-14.461-4.621-21.658
						c0.028-0.223-0.142-0.43-0.376-0.467c-0.235-0.036-0.446,0.115-0.473,0.336c-0.806,7.533,0.871,15.652,4.968,22.642
						c-3.205,5.237-6.525,10.408-10.114,15.393c-4.266-6.223-6.206-13.713-5.697-20.799c0.018-0.224-0.157-0.429-0.391-0.461
						c-0.232-0.032-0.435,0.124-0.452,0.347c-0.243,3.714,0.075,7.454,1.13,11.174c0.98,3.666,2.621,7.261,4.882,10.491
						l-4.302,5.796c-1.497,1.883-2.946,3.806-4.483,5.656c-2.747-3.736-4.398-8.322-4.585-12.814
						c-0.011-0.23-0.208-0.416-0.443-0.417c-0.235-0.002-0.417,0.183-0.407,0.411c0.216,4.752,1.933,9.572,4.866,13.505
						c-2.592,3.169-5.282,6.256-8.04,9.281c-0.161,0.174-0.15,0.446,0.025,0.607c0.175,0.161,0.449,0.15,0.611-0.026
						c1.735-1.846,3.358-3.794,5.042-5.686c1.628-1.94,3.256-3.882,4.846-5.854c4.441,2.065,9.645,2.59,14.536,1.184
						c0.236-0.067,0.383-0.314,0.328-0.552c-0.055-0.237-0.292-0.373-0.527-0.307c-4.608,1.345-9.551,0.867-13.785-1.03
						c2.695-3.388,5.302-6.848,7.806-10.38C407.706,469.504,416.197,468.295,423.108,463.615z"/>
				</g>
				<g>
					<path style="fill:#6D9B7C;" d="M332.184,430.811c5.999,6.365,10.896,13.172,14.643,19.762
						c3.762,6.586,6.376,12.958,7.857,18.599c3.003,11.309,1.714,19.361-2.7,21.488c-4.524,2.19-11.223-1.613-19.064-8.308
						c-3.913-3.371-8.19-7.457-12.715-12.018c-4.517-4.569-9.282-9.624-14.282-14.925c-4.988-5.312-9.26-9.94-12.715-14.186
						c-3.51-4.176-6.192-7.984-8.117-11.415c-0.967-1.707-1.71-3.366-2.259-4.935c-0.568-1.54-0.923-3.017-1.07-4.417
						c-0.293-2.8,0.243-5.296,1.602-7.375c1.359-2.079,3.415-3.544,6.231-4.236c1.407-0.346,3.004-0.499,4.794-0.44
						c1.77,0.087,3.713,0.412,5.853,0.962c4.266,1.115,9.184,3.317,14.641,6.767C320.277,419.649,326.198,424.433,332.184,430.811z"
						/>
					<path style="fill:#B0C98F;" d="M284.332,413.737L284.332,413.737L284.332,413.737c11.329,8.803,25.372,21.12,37.597,35.143
						c6.135,6.982,11.862,14.317,16.914,21.481c5.062,7.159,9.444,14.143,13.141,20.298v0v0
						c-2.648-6.669-6.304-14.163-10.944-21.742c-4.628-7.584-10.234-15.245-16.479-22.352
						C312.116,432.279,296.943,420.576,284.332,413.737z"/>
				</g>
				<g>
					<g>
						<path style="fill:#D8E29F;" d="M324.435,433.849L324.435,433.849L324.435,433.849c1.502-3.478,2.665-7.633,3.391-12.057
							c0.395-2.234,0.667-4.525,0.807-6.811c0.129-2.279,0.249-4.641,0.157-6.9c-0.112-2.249-0.229-4.533-0.534-6.686
							c-0.327-2.141-0.677-4.253-1.174-6.223c-0.244-0.988-0.542-1.931-0.836-2.857c-0.278-0.934-0.587-1.832-0.924-2.69
							c-0.682-1.712-1.471-3.27-2.249-4.692v0v0c-0.046,0.837-0.1,1.71-0.124,2.596c-0.006,0.885-0.012,1.789-0.018,2.711
							c0.01,1.847-0.053,3.832,0.023,5.811c0.035,2.012,0.072,4.083,0.109,6.193c0.079,2.093,0.138,4.245,0.172,6.432
							c0.155,4.311,0.21,8.772,0.422,13.016C323.781,426.004,324.094,430.061,324.435,433.849z"/>
					</g>
					<g>
						<path style="fill:#D8E29F;" d="M331.226,442.115L331.226,442.115L331.226,442.115c1.529-2.926,2.738-6.481,3.614-10.418
							c0.428-1.956,0.74-3.976,0.928-6.001c0.191-2.028,0.334-4.126,0.301-6.145c-0.013-1.013-0.061-2.014-0.142-2.998
							c-0.061-0.999-0.141-1.993-0.261-2.958c-0.218-1.946-0.642-3.747-1.05-5.522c-0.427-1.762-0.98-3.393-1.631-4.876
							c-0.601-1.516-1.289-2.89-2.058-4.086l0,0l0,0c0,1.492-0.001,3.06-0.001,4.693c0.041,1.637,0.083,3.34,0.126,5.098
							c0.023,3.57,0.207,7.242,0.163,11.113c0.034,1.889,0.038,3.806,0.021,5.729c-0.013,0.963-0.027,1.925-0.04,2.883
							c-0.001,0.944-0.001,1.883-0.001,2.816c-0.017,1.88-0.033,3.731-0.048,5.52C331.132,438.762,331.183,440.461,331.226,442.115z
							"/>
					</g>
					<g>
						<path style="fill:#D8E29F;" d="M338.304,449.022L338.304,449.022L338.304,449.022c1.182-2.072,2.186-4.666,2.844-7.491
							c0.332-1.412,0.573-2.878,0.727-4.361c0.179-1.509,0.267-3.034,0.256-4.534c-0.013-1.501-0.129-2.974-0.334-4.389
							c-0.17-1.448-0.431-2.836-0.781-4.133c-0.726-2.57-1.676-4.876-2.828-6.646l0,0l0,0c0.074,4.413,0.44,9.828,0.441,15.447
							c0.048,2.778-0.057,5.643-0.134,8.373C338.428,444.016,338.363,446.65,338.304,449.022z"/>
					</g>
					<g>
						<path style="fill:#D8E29F;" d="M317.344,423.855L317.344,423.855L317.344,423.855c1.055-3.245,1.986-7.176,2.419-11.218
							c0.223-2.025,0.443-4.158,0.502-6.254c0.038-1.053,0.039-2.1,0.029-3.152c0.012-1.064-0.003-2.123-0.048-3.171
							c-0.225-4.169-0.709-8.272-1.577-11.961c-0.394-1.865-0.913-3.615-1.499-5.247c-0.533-1.655-1.161-3.179-1.867-4.549l0,0l0,0
							c-0.915,6.288-0.913,14.179-0.598,22.321C315.016,408.768,315.869,417.061,317.344,423.855z"/>
					</g>
					<g>
						<path style="fill:#D8E29F;" d="M310.32,411.8L310.32,411.8L310.32,411.8c1.647-5.605,2.236-13.118,1.445-20.199
							c-0.782-7.102-2.73-13.858-5.575-18.503l0,0v0c-0.377,5.454-0.099,12.306,0.682,19.181c0.306,3.48,0.872,6.893,1.358,10.251
							c0.31,1.644,0.629,3.258,0.965,4.819c0.176,0.783,0.347,1.55,0.515,2.297C309.918,410.384,310.122,411.103,310.32,411.8z"/>
					</g>
					<g>
						<path style="fill:#D8E29F;" d="M303.051,400.49L303.051,400.49L303.051,400.49c0.368-1.272,0.629-2.641,0.844-4.096
							c0.233-1.465,0.381-2.999,0.439-4.568c0.064-3.115-0.002-6.464-0.595-9.668c-0.931-6.492-3.428-12.548-6.316-16.705v0v0
							c0,1.27,0.026,2.616,0.09,4.015c0.108,1.385,0.242,2.827,0.39,4.311c0.243,2.986,0.801,6.045,1.214,9.187
							C300.168,389.16,301.32,395.485,303.051,400.49z"/>
					</g>
					<g>
						<path style="fill:#D8E29F;" d="M324.318,433.945L324.318,433.945L324.318,433.945c-3.636,0.749-8.052,0.917-12.762,0.153
							c-2.323-0.399-4.728-1.02-7.152-1.855c-2.434-0.828-4.763-1.956-7.107-3.236c-2.358-1.273-4.519-2.835-6.614-4.505
							c-2.117-1.658-4.002-3.526-5.724-5.464c-0.861-0.97-1.696-1.947-2.451-2.952c-0.738-1.014-1.429-2.036-2.07-3.055
							c-1.29-2.035-2.374-4.064-3.145-6.051l0,0l0,0c0.776,0.695,1.571,1.407,2.385,2.135c0.836,0.708,1.69,1.432,2.562,2.171
							c1.756,1.455,3.493,2.982,5.438,4.404c1.919,1.437,3.859,2.874,5.878,4.233c2.054,1.338,4.136,2.63,6.22,3.85
							c4.272,2.369,8.544,4.45,12.768,6.081C316.675,431.559,320.792,432.775,324.318,433.945z"/>
					</g>
					<g>
						<path style="fill:#D8E29F;" d="M331.613,441.758L331.613,441.758L331.613,441.758c-3.014,1.277-6.83,2.203-10.938,2.261
							c-2.065,0.046-4.231-0.098-6.442-0.434c-2.208-0.339-4.383-0.934-6.58-1.689c-1.093-0.383-2.18-0.814-3.254-1.287
							c-1.054-0.489-2.08-1.031-3.093-1.605c-2.004-1.164-4.003-2.425-5.715-3.888c-1.738-1.444-3.331-2.989-4.744-4.562
							c-1.362-1.606-2.532-3.248-3.503-4.841l0,0l0,0c1.532,0.971,3.141,1.992,4.818,3.055c1.682,1.031,3.486,2.028,5.302,3.014
							c3.594,2.002,7.613,3.702,11.506,5.186c2.011,0.691,4.017,1.31,5.991,1.857c0.987,0.273,1.965,0.53,2.935,0.766
							c0.991,0.22,1.97,0.422,2.935,0.608c1.93,0.375,3.8,0.681,5.589,0.946C328.213,441.407,329.982,441.574,331.613,441.758z"/>
					</g>
					<g>
						<path style="fill:#D8E29F;" d="M338.3,449.027L338.3,449.027L338.3,449.027c-2.027,1.228-4.605,2.249-7.538,2.801
							c-1.464,0.279-3.017,0.442-4.613,0.473c-1.57,0.007-3.185-0.117-4.804-0.377c-1.618-0.263-3.24-0.66-4.816-1.176
							c-1.54-0.547-3.036-1.211-4.445-1.967c-2.856-1.481-5.219-3.432-7.007-5.38l0,0l0,0c4.778,1.869,10.68,3.866,16.616,4.839
							c2.998,0.482,5.928,0.764,8.743,0.857C333.274,449.168,335.935,449.109,338.3,449.027z"/>
					</g>
					<g>
						<path style="fill:#D8E29F;" d="M316.495,424.465L316.495,424.465L316.495,424.465c-3.524,0.033-7.415-0.697-11.582-2.103
							c-2.077-0.703-4.099-1.653-6.168-2.735c-1.026-0.546-2.06-1.128-3.068-1.759c-0.987-0.644-1.964-1.327-2.927-2.045
							c-3.892-2.85-7.337-6.383-10.151-10.106c-1.372-1.879-2.614-3.789-3.664-5.688c-0.998-1.923-1.834-3.821-2.49-5.632l0,0l0,0
							c5.561,5.117,12.33,11.349,19.464,16.685C302.992,416.5,310.583,420.848,316.495,424.465z"/>
					</g>
					<g>
						<path style="fill:#D8E29F;" d="M308.053,413.185L308.053,413.185L308.053,413.185c-5.809-1.056-12.85-4.907-18.443-10.744
							c-5.65-5.768-9.397-13.416-10.558-19.607l0,0l0,0c4.161,4.726,8.84,10.679,14.075,16.025c2.505,2.735,5.283,5.246,7.755,7.684
							c1.29,1.186,2.546,2.341,3.751,3.448c0.591,0.561,1.169,1.11,1.733,1.645C306.944,412.168,307.507,412.684,308.053,413.185z"
							/>
					</g>
					<g>
						<path style="fill:#D8E29F;" d="M302.094,400.985L302.094,400.985L302.094,400.985c-1.248-0.443-2.573-1.03-3.877-1.781
							c-1.286-0.759-2.59-1.663-3.879-2.693c-2.627-2.037-4.964-4.692-7.041-7.635c-4.003-5.939-6.265-13.118-6.039-18.657l0,0h0
							c0.731,1.177,1.463,2.428,2.218,3.726c0.785,1.288,1.596,2.618,2.426,3.977c1.583,2.742,3.46,5.503,5.249,8.248
							C294.895,391.609,298.905,396.715,302.094,400.985z"/>
					</g>
					<g>
						<path style="fill:#D8E29F;" d="M286.527,357.831L286.527,357.831L286.527,357.831c-0.06,5.223,0.982,11.955,3.237,18.299
							c1.027,3.205,2.471,6.261,3.887,9.091c1.529,2.785,3.122,5.313,4.782,7.345l0,0l0,0c-0.456-2.582-1.124-5.472-2.021-8.457
							c-0.784-3.031-1.89-6.129-2.894-9.266C291.313,368.639,289.047,362.458,286.527,357.831z"/>
					</g>
					<path style="fill:#B0C98F;" d="M294.65,383.308L294.65,383.308L294.65,383.308c3.268,11.726,10.042,26.452,19.233,39.612
						c4.594,6.572,9.729,12.759,14.963,18.173c5.234,5.421,10.66,9.956,15.526,13.6v0v0c-4.091-4.519-8.844-9.627-13.571-15.359
						c-4.728-5.727-9.529-11.967-14.039-18.417C307.75,408.005,300.105,394.189,294.65,383.308z"/>
				</g>
				<g>
					<path style="fill:#B0C98F;" d="M345.189,366.899L345.189,366.899L345.189,366.899c-5.937,12.609-9.657,25.196-11.474,37.516
						c-1.808,12.327-1.699,24.402,0.246,36.168c1.928,11.769,5.695,23.242,11.358,34.339c5.67,11.088,13.227,21.819,22.892,31.86
						l0,0l0,0c10.016-9.637,17.24-21.662,21.296-34.79c4.071-13.117,4.966-27.309,2.717-40.998
						c-2.257-13.688-7.653-26.844-15.713-37.965C368.462,381.893,357.765,372.817,345.189,366.899z"/>
					<path style="fill:#D8E29F;" d="M387.619,435.018c0.095-0.335-0.085-0.694-0.403-0.798c-0.318-0.108-0.653,0.081-0.748,0.415
						c-0.757,2.65-1.754,5.179-2.994,7.552c-1.275,2.378-2.77,4.598-4.457,6.624c-3.342,4.05-7.6,7.337-12.293,9.632l-0.545-5.102
						l-0.66-5.089c-0.408-3.397-0.951-6.775-1.467-10.157c4.5-3.43,8.146-7.794,10.966-12.824
						c2.722-5.008,4.569-10.677,5.103-16.537c0.034-0.346-0.206-0.663-0.536-0.706c-0.33-0.04-0.626,0.203-0.66,0.549
						c-0.508,5.578-2.246,10.979-4.79,15.774c-2.639,4.816-6.101,9.031-10.292,12.377c-1.782-10.967-4.027-21.858-6.728-32.635
						c0.009-0.009,0.023-0.01,0.033-0.02c1.135-1.294,2.158-2.69,3.061-4.169c0.883-1.474,1.633-3.027,2.26-4.645
						c1.255-3.235,1.994-6.724,2.051-10.252c0.008-0.341-0.255-0.629-0.587-0.644c-0.334-0.013-0.608,0.253-0.617,0.591
						c-0.041,1.629-0.206,3.241-0.503,4.82c-0.323,1.587-0.768,3.139-1.327,4.638c-1.126,3-2.68,5.777-4.729,8.235
						c-2.121-8.194-4.405-16.351-7.066-24.388c-0.102-0.316-0.439-0.489-0.754-0.386c-0.315,0.103-0.488,0.441-0.387,0.757
						c1.527,4.598,2.883,9.249,4.256,13.894c1.276,4.673,2.568,9.342,3.689,14.055c-2.944-1.207-5.637-2.839-8.089-4.781
						c-2.468-1.939-4.603-4.214-6.354-6.75c-0.187-0.262-0.56-0.329-0.835-0.144c-0.273,0.185-0.343,0.546-0.156,0.809
						c1.876,2.744,4.219,5.192,6.913,7.266c2.633,2.089,5.623,3.803,8.84,5.04c0.013,0.005,0.025-0.001,0.038,0.003
						c1.997,8.5,3.84,17.041,5.26,25.659c-10.083-3.64-18.81-10.494-24.406-18.994c-0.17-0.266-0.537-0.336-0.82-0.167
						c-0.282,0.172-0.373,0.525-0.202,0.789c5.887,8.875,15.014,16.045,25.668,19.729c1.358,8.443,2.562,16.914,3.382,25.428
						c-5.1-1.287-9.852-3.49-14.088-6.353c-4.284-2.861-7.915-6.4-10.897-10.431c-0.185-0.255-0.556-0.315-0.832-0.135
						c-0.274,0.179-0.346,0.531-0.16,0.785c3.114,4.196,6.882,7.882,11.38,10.849c4.39,2.977,9.403,5.25,14.733,6.556l0.84,10.017
						c0.186,3.345,0.445,6.687,0.571,10.036c-6.325-1.33-12.276-4.581-16.63-9.132c-0.224-0.232-0.601-0.244-0.847-0.027
						c-0.246,0.216-0.264,0.579-0.043,0.811c4.62,4.798,10.865,8.229,17.566,9.589c0.249,5.695,0.349,11.397,0.339,17.098
						c-0.003,0.331,0.264,0.6,0.595,0.601c0.332,0.001,0.602-0.266,0.605-0.598c0.051-3.526-0.076-7.052-0.105-10.578
						c-0.116-3.524-0.235-7.049-0.41-10.57c6.537-1.969,12.423-6.219,16.243-12.148c0.184-0.285,0.111-0.675-0.164-0.871
						c-0.275-0.195-0.648-0.12-0.833,0.164c-3.586,5.609-9.155,9.665-15.321,11.612c-0.333-6.017-0.8-12.028-1.414-18.023
						C376.749,455.091,384.542,446.118,387.619,435.018z"/>
				</g>
			</g>
		</g>
		<g>
			<path style="fill:#B0C98F;" d="M671.1,318.356c-6.673-11.286-22.385-14.656-34.81-10.471
				c-12.425,4.185-21.984,14.215-29.66,24.844c-28.163,38.995-36.844,91.288-23.166,137.359h19.161
				c-0.652-20.142,8.404-39.943,20.029-56.677c12.863-18.516,28.992-34.627,41.387-53.46c4.082-6.202,7.789-12.79,9.521-20.01
				C675.296,332.722,674.879,324.747,671.1,318.356z"/>
			<path style="fill:#D8E29F;" d="M602.149,380.356c11.331-24.702,30.906-44.304,46.695-58.62c0.409-0.371,0.439-1.004,0.069-1.413
				c-0.373-0.409-1.005-0.438-1.413-0.069c-15.93,14.445-35.688,34.236-47.17,59.269c-11.283,24.598-14.818,55.044-10.547,90.567
				h2.017C587.529,434.836,590.996,404.668,602.149,380.356z"/>
			<g>
				<path style="fill:#6D9B7C;" d="M618.009,469.391c-0.186-8.781,6.392-17.054,13.389-22.363
					c6.998-5.308,15.162-8.928,22.117-14.292s12.872-13.277,12.476-22.051c-0.411-9.1-8.027-16.961-16.897-19.038
					c-8.87-2.077-18.44,1.001-25.515,6.74c-7.075,5.739-11.879,13.874-15.103,22.394c-5.59,14.767-6.613,33.198-3.178,48.61H618.009
					z"/>
				<path style="fill:#B0C98F;" d="M610.068,446.491c0.092-0.499,0.208-0.978,0.309-1.47c-0.002-0.107,0.018-0.213,0.065-0.311
					c0.329-1.578,0.698-3.122,1.115-4.627c-1.192-4.466-1.187-14.165-1.186-14.58c0.001-0.385,0.312-0.695,0.697-0.695
					c0.001,0,0.001,0,0.001,0c0.385,0.001,0.696,0.313,0.695,0.698c0,0.084-0.004,6.946,0.66,11.706
					c1.781-5.485,4.165-10.442,7.157-14.804c0.003-0.007,0.009-0.011,0.013-0.017c0.558-0.813,1.128-1.616,1.727-2.388
					c0.318-0.409,0.645-0.807,0.974-1.203c-0.023-4.033,1.802-12.791,1.882-13.169c0.079-0.377,0.45-0.623,0.824-0.539
					c0.377,0.079,0.617,0.447,0.539,0.824c-0.017,0.081-1.436,6.887-1.779,11.194c6.02-6.583,13.57-11.018,21.592-12.619
					c0.375-0.079,0.744,0.169,0.819,0.547c0.076,0.377-0.169,0.744-0.547,0.819c-8.818,1.76-17.059,7.088-23.204,15.001
					c-0.13,0.168-0.247,0.35-0.376,0.52c10.494-3.312,17.797-3.42,24.872-3.523l0.66-0.009c0.003,0,0.007,0,0.01,0
					c0.38,0,0.69,0.305,0.697,0.685c0.005,0.385-0.301,0.702-0.686,0.707l-0.66,0.009c-7.372,0.108-14.998,0.223-26.282,4.052
					c-3.864,5.666-6.708,12.347-8.48,19.938c6.922-4.879,20.206-7.062,20.815-7.16c0.382-0.059,0.737,0.197,0.798,0.578
					c0.061,0.38-0.197,0.737-0.577,0.799c-0.155,0.024-15.442,2.534-21.481,7.904c-0.094,0.464-0.205,0.915-0.291,1.386
					c-1.224,6.65-1.694,14.053-1.433,22.627c0.012,0.385-0.291,0.706-0.675,0.718c-0.007,0-0.014,0-0.022,0
					c-0.375,0-0.684-0.298-0.696-0.675C608.349,460.738,608.825,453.24,610.068,446.491z"/>
			</g>
		</g>
		<g>
			<g>
				<path style="fill:#B0C98F;" d="M140.372,469.315c2.375-13.257,0.372-27.884-6.657-39.372
					c-6.988-11.422-17.808-19.905-28.616-27.809c-10.808-7.904-22.015-15.649-30.287-26.178
					c-8.272-10.529-13.293-24.568-9.704-37.468c3.974-14.284,18.254-24.353,33.028-25.605c14.774-1.252,29.505,5.303,40.357,15.405
					c17.603,16.387,25.531,41.113,26.442,65.146c0.912,24.033-5.407,52.427-10.729,75.881H140.372z"/>
				<path style="fill:#D8E29F;" d="M142.077,392.441c-0.014-0.043-0.025-0.086-0.045-0.127c-0.332-0.947-0.659-1.898-1.01-2.833
					c-0.375-1-0.764-1.991-1.162-2.977c2.684-10.884,5.312-31.612,5.339-31.821c0.069-0.548-0.319-1.048-0.867-1.117
					c-0.545-0.065-1.048,0.318-1.117,0.867c-0.024,0.193-2.251,17.756-4.681,28.929c-4.341-9.924-9.887-19.034-16.364-27.041
					c0.978-11.81-1.452-26.285-1.477-26.431c-0.092-0.544-0.61-0.91-1.154-0.817c-0.544,0.093-0.911,0.609-0.818,1.153
					c0.023,0.135,2.14,12.747,1.592,23.859c-1.982-2.324-4.042-4.549-6.177-6.664c-0.077-0.12-0.181-0.217-0.305-0.295
					c-9.953-9.783-21.471-17.23-33.826-21.561c-0.523-0.188-1.092,0.092-1.275,0.612c-0.183,0.522,0.092,1.092,0.613,1.274
					c10.998,3.857,21.32,10.247,30.436,18.587c-11.845-2.46-28.655-1.842-29.445-1.813c-0.552,0.022-0.982,0.486-0.96,1.038
					c0.021,0.552,0.485,1.001,1.038,0.96c0.21-0.006,20.933-0.77,32.306,2.604c11.074,10.969,20.152,24.912,26.182,40.715
					c-10.082-7.8-25.869-12.674-36.013-12.819c-0.563,0.026-1.006,0.434-1.014,0.985c-0.008,0.553,0.434,1.007,0.986,1.015
					c10.781,0.154,28.307,6.043,37.403,14.581c7.55,21.71,10.133,46.589,7.87,75.932c-0.043,0.551,0.37,1.031,0.92,1.074
					c0.026,0.002,0.052,0.003,0.078,0.003c0.518,0,0.956-0.398,0.996-0.923C152.418,439.674,149.775,414.466,142.077,392.441z"/>
			</g>
			<g>
				<path style="fill:#547374;" d="M132.661,469.218c0.16-7.53-5.481-14.625-11.482-19.177c-6.001-4.552-13.002-7.656-18.967-12.256
					s-11.038-11.386-10.699-18.91c0.352-7.804,6.884-14.545,14.49-16.326s15.814,0.858,21.88,5.78
					c6.067,4.922,10.186,11.897,12.952,19.204c4.793,12.664,5.671,28.469,2.725,41.685H132.661z"/>
				<path style="fill:#6D9B7C;" d="M139.471,449.579c-0.079-0.428-0.179-0.838-0.265-1.26c0.001-0.092-0.016-0.182-0.056-0.267
					c-0.282-1.353-0.599-2.678-0.956-3.968c1.022-3.829,1.018-12.147,1.017-12.503c-0.001-0.33-0.268-0.596-0.597-0.596
					c-0.001,0-0.001,0-0.001,0c-0.33,0.001-0.597,0.268-0.596,0.598c0,0.072,0.003,5.957-0.566,10.038
					c-1.527-4.703-3.572-8.954-6.137-12.695c-0.003-0.006-0.008-0.009-0.011-0.015c-0.479-0.698-0.967-1.386-1.481-2.048
					c-0.273-0.351-0.554-0.692-0.835-1.032c0.02-3.459-1.545-10.969-1.614-11.293c-0.068-0.323-0.386-0.534-0.707-0.462
					c-0.323,0.068-0.53,0.384-0.462,0.707c0.015,0.069,1.231,5.906,1.526,9.599c-5.162-5.645-11.637-9.449-18.516-10.822
					c-0.322-0.068-0.638,0.145-0.702,0.469c-0.065,0.323,0.145,0.638,0.469,0.702c7.562,1.509,14.629,6.079,19.898,12.864
					c0.112,0.144,0.212,0.3,0.322,0.446c-8.999-2.841-15.262-2.933-21.329-3.021l-0.566-0.008c-0.003,0-0.006,0-0.009,0
					c-0.326,0-0.592,0.261-0.597,0.588c-0.005,0.33,0.258,0.602,0.588,0.607l0.566,0.008c6.322,0.093,12.862,0.191,22.538,3.475
					c3.314,4.859,5.752,10.588,7.272,17.098c-5.936-4.184-17.328-6.056-17.849-6.14c-0.327-0.05-0.632,0.169-0.684,0.496
					c-0.052,0.325,0.169,0.632,0.495,0.685c0.133,0.021,13.243,2.173,18.42,6.778c0.081,0.398,0.175,0.785,0.25,1.189
					c1.05,5.703,1.452,12.051,1.229,19.404c-0.01,0.33,0.25,0.605,0.579,0.616c0.006,0,0.012,0,0.019,0
					c0.321,0,0.587-0.255,0.597-0.579C140.945,461.797,140.537,455.367,139.471,449.579z"/>
			</g>
		</g>
		<path style="fill:#454F6B;" d="M650.667,473.764H99.333c-1.289,0-2.333-1.045-2.333-2.333l0,0c0-1.289,1.045-2.333,2.333-2.333
			h551.333c1.289,0,2.333,1.045,2.333,2.333l0,0C653,472.72,651.955,473.764,650.667,473.764z"/>
		<g>
			<g>
				<g>
					<path style="fill:#B0C98F;" d="M456.636,146.264c-11.875,23.5-31.759,17.969-38.635,0v26h38.635V146.264z"/>
					<path style="fill:#B0C98F;" d="M466.04,158.335l-0.363-7.049l-8.885,11.792l-19.474,12.561l-19.474-12.561l-8.885-11.792
						l-0.363,7.049c-0.93,18.056-6.524,35.563-16.237,50.813l-0.233,0.366h45.193h45.193l-0.233-0.366
						C472.564,193.899,466.969,176.392,466.04,158.335z"/>
					<g>
						<path style="fill:#8D415F;" d="M401.12,161.221c0.599,2.366,2.643,3.956,5.083,3.956h62.23c2.441,0,4.483-1.59,5.083-3.956
							c0.6-2.366-0.439-4.736-2.585-5.899l-32.564-17.644v-6.319c0-1.728-1.406-3.134-3.134-3.134c-2.789,0-5.078-2.183-5.247-4.931
							c-0.007-0.108-0.01-3.524-0.01-3.634c0-2.899,2.358-5.258,5.257-5.258h1.46h5.134c-1.327-1.296-3.137-2.098-5.134-2.098h-1.46
							c-4.055,0-7.355,3.299-7.355,7.355c0,0.11,0.003,3.526,0.007,3.635c0.172,3.904,3.402,7.027,7.348,7.027
							c0.571,0,1.036,0.465,1.036,1.036v6.319l-32.564,17.644C401.559,156.484,400.52,158.855,401.12,161.221z M404.705,157.166
							l32.613-17.671l32.613,17.671c1.589,0.861,1.829,2.445,1.551,3.54c-0.278,1.095-1.243,2.373-3.05,2.373h-62.23
							c-1.808,0-2.773-1.278-3.05-2.373C402.875,159.611,403.115,158.027,404.705,157.166z"/>
					</g>
					<path style="fill:#D8E29F;" d="M482.511,209.514c-24.5-16.5-24.167-31.205-16.833-58.227l-9.042-5.023l-2.769,10.82
						c-1.754,6.853-7.929,11.647-15.003,11.647h-1.545h-1.545c-7.074,0-13.249-4.794-15.003-11.647L418,146.264l-9.042,5.023
						c7.333,27.023,7.667,41.727-16.833,58.227l2.411,55.456c0.558,12.844,0.132,25.711-1.276,38.489l-1.135,10.304h45.193h45.193
						l-1.135-10.304c-1.408-12.778-1.834-25.646-1.276-38.489L482.511,209.514z"/>
					<path style="fill:#B0C98F;" d="M451.603,199.794c-0.535,4.861-2.746,9.511-6.13,13.038c-0.573,0.597-1.176,1.166-1.814,1.695
						c-3.365,2.785-7.456,4.513-11.45,6.281c-3.994,1.768-8.037,3.667-11.178,6.703c-3.141,3.036-5.272,7.448-4.509,11.749
						c0.707,3.982,4.471,7.432,8.417,7.201c4.936-15.621,19.618-13.2,22.873-29.979c-1.066,15.994-14.264,16.014-21.52,32.574
						c-1.799,4.106-3.234,9.225-4.027,15.86c2.661,2.262,5.721,2.648,5.721,2.648c-0.862-4.109-0.821-9.945,0.458-14.98
						c1.955,2.112,4.775,3.592,7.569,3.914c5.102,0.587,10.19-2.127,13.478-6.072c3.288-3.945,5.008-8.97,6.061-13.997
						C458.077,224.383,455.954,211.305,451.603,199.794z"/>
					<g>
						<path style="fill:#FFFFFF;" d="M445.872,185.185l-2.175-6.06c-0.178-0.495-0.595-0.865-1.108-0.982l-7.43-1.701
							c-0.513-0.117-1.049,0.035-1.425,0.403l-4.595,4.51c-0.21,0.206-0.357,0.469-0.423,0.757l-3.8,16.6
							c-0.19,0.83,0.329,1.658,1.159,1.848l14.201,3.251c0.83,0.19,1.658-0.329,1.848-1.159l3.8-16.6
							C445.99,185.763,445.972,185.463,445.872,185.185z M437.853,181.753c-0.851-0.195-1.384-1.043-1.189-1.894
							c0.195-0.851,1.043-1.383,1.894-1.189c0.851,0.195,1.384,1.043,1.189,1.894C439.552,181.416,438.704,181.948,437.853,181.753z
							"/>
						<g>
							<g>
								<polygon style="fill:#547374;" points="438.446,186.078 435.564,185.418 436.579,188.719 439.462,189.379 								"/>
								<polygon style="fill:#6D9B7C;" points="435.281,189.321 438.32,186.049 435.438,185.389 433.087,187.92 432.212,187.361 
									432.645,190.327 436.149,189.875 435.281,189.321 								"/>
							</g>
							<g>
								<polygon style="fill:#547374;" points="428.36,193.008 429.23,195.834 431.58,193.304 430.711,190.478 								"/>
								<polygon style="fill:#6D9B7C;" points="432.751,194.128 428.398,193.131 429.267,195.957 432.634,196.728 432.588,197.765 
									434.94,195.908 432.797,193.098 432.751,194.128 								"/>
							</g>
							<g>
								<polygon style="fill:#547374;" points="439.405,198.277 441.417,196.111 438.05,195.341 436.038,197.507 								"/>
								<polygon style="fill:#6D9B7C;" points="438.179,193.915 439.492,198.183 441.505,196.017 440.489,192.716 441.411,192.238 
									438.625,191.129 437.264,194.39 438.179,193.915 								"/>
							</g>
						</g>
						<g>
							<path style="fill:#B0C98F;" d="M438.176,179.944c-0.09,0.052-0.194,0.083-0.305,0.086c-1.25,0.031-2.201-1.069-2.398-2.151
								c-0.159-0.871,0.039-1.822,0.603-2.906c0.157-0.301,0.328-0.592,0.494-0.873c0.272-0.461,0.528-0.897,0.714-1.357
								c0.541-1.342,0.431-2.956-0.287-4.212c-0.176-0.307-0.07-0.699,0.236-0.876c0.001,0,0.001-0.001,0.002-0.001
								c0.308-0.176,0.701-0.069,0.877,0.239c0.923,1.614,1.059,3.607,0.363,5.331c-0.221,0.549-0.514,1.047-0.798,1.528
								c-0.164,0.279-0.32,0.543-0.461,0.814c-0.427,0.821-0.584,1.502-0.478,2.082c0.098,0.54,0.564,1.11,1.101,1.096
								c0.355-0.009,0.65,0.272,0.659,0.626C438.504,179.615,438.373,179.83,438.176,179.944z"/>
						</g>
					</g>
				</g>
				<g>
					<path style="fill:#495375;" d="M344.261,146.264c9.917,2.833,35.883,2.5,40.65,0l-15.75,58.75v94.417h-9.15v-94.417
						L344.261,146.264z"/>
					<g>
						<path style="fill:#8D415F;" d="M328.388,161.221c0.599,2.366,2.643,3.956,5.083,3.956h62.23c2.441,0,4.483-1.59,5.083-3.956
							c0.6-2.366-0.439-4.736-2.585-5.899l-32.564-17.644v-6.319c0-1.728-1.406-3.134-3.134-3.134c-2.789,0-5.078-2.183-5.247-4.931
							c-0.007-0.108-0.01-3.524-0.01-3.634c0-2.899,2.358-5.258,5.257-5.258h1.46h5.134c-1.327-1.296-3.137-2.098-5.134-2.098h-1.46
							c-4.055,0-7.355,3.299-7.355,7.355c0,0.11,0.003,3.526,0.007,3.635c0.172,3.904,3.402,7.027,7.348,7.027
							c0.571,0,1.036,0.465,1.036,1.036v6.319l-32.564,17.644C328.827,156.484,327.788,158.855,328.388,161.221z M331.973,157.166
							l32.613-17.671l32.614,17.671c1.589,0.861,1.829,2.445,1.551,3.54c-0.278,1.095-1.243,2.373-3.05,2.373h-62.23
							c-1.808,0-2.773-1.278-3.05-2.373C330.143,159.611,330.383,158.027,331.973,157.166z"/>
					</g>
					<g>
						<path style="fill:#797C99;" d="M360.011,205.014l-15.75-58.75l-25.347,14.571c-2.457,1.413-4.105,3.9-4.448,6.713
							l-15.455,126.716l21,3.279l9.5-88.529l-6,95.855l36.5,1.284V205.014z"/>
						<path style="fill:#99A3B0;" d="M344.261,146.264l-8.789,20.489c-0.921,2.148,0.188,4.626,2.404,5.369l6.385,2.142
							l-5.772,12.151c-0.849,1.788-0.263,3.929,1.379,5.034l20.143,13.564L344.261,146.264z"/>
						<path style="fill:#495375;" d="M318.011,165.176l11.5,40.921C326.011,176.764,322.844,167.755,318.011,165.176z"/>
						<path style="fill:#495375;" d="M299.011,294.264l15.716,0.991c1.569,0.099,2.949-1.031,3.161-2.589l1.262-9.254
							c0.206-1.509-0.752-2.934-2.228-3.311l-11.077-2.837l16.13,1.978l-1.964,18.301L299.011,294.264z"/>
						<circle style="fill:#99A3B0;" cx="305.628" cy="285.316" r="2.18"/>
					</g>
					<g>
						<path style="fill:#797C99;" d="M369.16,205.014l15.75-58.75l25.347,14.571c2.457,1.413,4.105,3.9,4.448,6.713l15.455,126.716
							l-21,3.279l-9.5-88.529l6,95.855l-36.5,1.284V205.014z"/>
						<path style="fill:#99A3B0;" d="M384.91,146.264l8.789,20.489c0.922,2.148-0.188,4.626-2.404,5.369l-6.385,2.142l5.772,12.151
							c0.849,1.788,0.263,3.929-1.379,5.034l-20.143,13.564L384.91,146.264z"/>
						<path style="fill:#495375;" d="M411.16,165.176l-11.5,40.921C403.16,176.764,406.327,167.755,411.16,165.176z"/>
						<path style="fill:#495375;" d="M430.16,294.264l-15.716,0.991c-1.569,0.099-2.949-1.031-3.161-2.589l-1.262-9.254
							c-0.206-1.509,0.752-2.934,2.228-3.311l11.077-2.837l-16.13,1.978l1.964,18.301L430.16,294.264z"/>
						<path style="fill:#99A3B0;" d="M421.363,285.316c0,1.204,0.976,2.18,2.18,2.18c1.204,0,2.18-0.976,2.18-2.18
							s-0.976-2.18-2.18-2.18C422.339,283.137,421.363,284.113,421.363,285.316z"/>
					</g>
				</g>
				<g>
					<path style="fill:#A08B7C;" d="M277.876,147.014c13.968,9.583,31.554,4.25,36.761,0l-18.38,68.158L277.876,147.014z"/>
					<g>
						<path style="fill:#8D415F;" d="M259.959,161.221c0.599,2.366,2.642,3.956,5.083,3.956h62.23c2.441,0,4.484-1.59,5.083-3.956
							c0.6-2.366-0.439-4.736-2.585-5.899l-32.564-17.644v-6.319c0-1.728-1.406-3.134-3.134-3.134c-2.789,0-5.078-2.183-5.247-4.931
							c-0.007-0.108-0.01-3.524-0.01-3.634c0-2.899,2.358-5.258,5.257-5.258h1.46h5.134c-1.327-1.296-3.137-2.098-5.134-2.098h-1.46
							c-4.055,0-7.355,3.299-7.355,7.355c0,0.11,0.002,3.526,0.007,3.635c0.172,3.904,3.402,7.027,7.348,7.027
							c0.571,0,1.036,0.465,1.036,1.036v6.319l-32.564,17.644C260.398,156.484,259.359,158.855,259.959,161.221z M263.544,157.166
							l32.613-17.671l32.613,17.671c1.589,0.861,1.829,2.445,1.551,3.54c-0.278,1.095-1.243,2.373-3.05,2.373h-62.23
							c-1.808,0-2.773-1.278-3.05-2.373C261.715,159.611,261.954,158.027,263.544,157.166z"/>
					</g>
					<path style="fill:#BBA389;" d="M277.876,147.014l18.381,68.158v181.092c-21.912,0-39.417,4-49.831-3l6.086-170.625
						l-6.086,68.858l-20.935-8.545l19.826-108.024c1.666-9.077,7.689-16.754,16.109-20.533L277.876,147.014z"/>
					<path style="fill:#CABFAB;" d="M277.876,147.014l18.381,68.158l-20.884-18.601c-1.224-1.091-1.659-2.818-1.097-4.359
						l5.402-14.795l-10.12-6.569c-1.728-1.122-2.322-3.373-1.371-5.201L277.876,147.014z"/>
					<path style="fill:#BBA389;" d="M314.637,147.014l-18.38,68.158v191.342c21.912,0,39.417-6.25,49.831-13.25l-6.086-170.625
						l6.086,68.858l20.935-8.545l-19.826-108.024c-1.666-9.077-7.689-16.754-16.109-20.533L314.637,147.014z"/>
					<path style="fill:#CABFAB;" d="M314.637,147.014l-18.38,68.158l20.884-18.601c1.224-1.091,1.659-2.818,1.097-4.359
						l-5.402-14.795l10.12-6.569c1.728-1.122,2.322-3.373,1.371-5.201L314.637,147.014z"/>
					<path style="fill:#A08B7C;" d="M290.063,396.362c2.022-0.061,4.087-0.098,6.193-0.098V215.172L290.063,396.362z"/>
				</g>
				<path style="fill:#99A3B0;" d="M555.521,450.597H521.25V156.593c0-22.331-18.168-40.5-40.5-40.5H258.294
					c-22.332,0-40.5,18.169-40.5,40.5v294.004h-34.271c-10.201,0-18.5,8.299-18.5,18.5h9c0-5.238,4.262-9.5,9.5-9.5h38.771h38.771
					c5.238,0,9.5,4.262,9.5,9.5h9c0-10.201-8.299-18.5-18.5-18.5h-34.271V156.593c0-17.369,14.131-31.5,31.5-31.5H480.75
					c17.369,0,31.5,14.131,31.5,31.5v294.004h-34.272c-10.201,0-18.5,8.299-18.5,18.5h9c0-5.238,4.262-9.5,9.5-9.5h38.772h38.771
					c5.238,0,9.5,4.262,9.5,9.5h9C574.021,458.896,565.723,450.597,555.521,450.597z"/>
				<path style="fill:#8D415F;" d="M371.316,119.661v1.412c0,0.579-0.47,1.049-1.049,1.049c-0.579,0-1.049-0.47-1.049-1.049v-1.412
					c0-2.899-2.359-5.258-5.258-5.258h5.134C370.462,115.74,371.316,117.602,371.316,119.661z"/>
				<path style="fill:#8D415F;" d="M444.048,119.661v1.412c0,0.579-0.47,1.049-1.049,1.049s-1.049-0.47-1.049-1.049v-1.412
					c0-2.899-2.359-5.258-5.258-5.258h5.134C443.195,115.74,444.048,117.602,444.048,119.661z"/>
				<path style="fill:#8D415F;" d="M302.887,119.661v1.412c0,0.579-0.47,1.049-1.049,1.049s-1.049-0.47-1.049-1.049v-1.412
					c0-2.899-2.359-5.258-5.258-5.258h5.134C302.034,115.74,302.887,117.602,302.887,119.661z"/>
			</g>
			<g>
				<path style="fill:#547374;" d="M315.909,202.139h-1.998h-1.998c-5.157,0-10.279-0.844-15.162-2.5
					c2.995,5.761,8.949,9.375,15.442,9.375h1.719h1.719c6.493,0,12.446-3.614,15.442-9.375
					C326.187,201.295,321.066,202.139,315.909,202.139z"/>
				<g>
					<path style="fill:#8D415F;" d="M277.713,215.688c0.599,2.366,2.642,3.956,5.083,3.956h62.23c2.441,0,4.484-1.59,5.083-3.956
						c0.6-2.366-0.439-4.737-2.585-5.9l-32.564-17.644v-6.319c0-1.728-1.406-3.134-3.134-3.134c-2.789,0-5.078-2.183-5.247-4.931
						c-0.007-0.108-0.01-3.524-0.01-3.634c0-2.899,2.358-5.258,5.257-5.258h1.46h5.134c-1.327-1.296-3.137-2.098-5.134-2.098h-1.46
						c-4.055,0-7.355,3.299-7.355,7.355c0,0.11,0.003,3.526,0.007,3.635c0.172,3.904,3.402,7.027,7.348,7.027
						c0.571,0,1.036,0.465,1.036,1.036v6.319l-32.564,17.644C278.152,210.951,277.112,213.322,277.713,215.688z M281.297,211.633
						l32.613-17.671l32.613,17.671c1.589,0.861,1.829,2.445,1.551,3.54c-0.278,1.095-1.243,2.373-3.05,2.373h-62.23
						c-1.808,0-2.773-1.278-3.05-2.373C279.468,214.077,279.708,212.494,281.297,211.633z"/>
					<path style="fill:#8D415F;" d="M320.641,174.128v1.412c0,0.579-0.47,1.049-1.049,1.049s-1.049-0.47-1.049-1.049v-1.412
						c0-2.899-2.359-5.258-5.258-5.258h5.134C319.787,170.207,320.641,172.069,320.641,174.128z"/>
				</g>
				<g>
					<path style="fill:#6D9B7C;" d="M361.282,226.631c-1.875-8.358-7.388-15.441-15.031-19.309l-15.18-7.683
						c-2.996,5.761-8.949,9.375-15.442,9.375h-1.719h-1.719c-6.493,0-12.446-3.614-15.442-9.375l-15.18,7.683
						c-7.643,3.868-13.156,10.951-15.031,19.309l-10.872,48.467l10.167,5.667l2.5,76.667c5.886,5.889,25,7.333,45.577,7.333
						s39.691-1.444,45.577-7.333l2.5-76.667l10.167-5.667L361.282,226.631z"/>
					<polygon style="fill:#547374;" points="361.988,280.764 350.86,286.967 350.277,233.142 347.488,293.385 354.738,288.931 
						360.77,318.101 					"/>
					<g>
						<g>
							<polygon style="fill:#B0C98F;" points="321.172,248.578 307.254,248.578 315.383,262.658 329.301,262.658 							"/>
							<polygon style="fill:#D8E29F;" points="310.056,266.783 320.566,248.578 306.649,248.578 298.52,262.658 293.916,261.012 
								299.016,274.169 314.623,268.416 310.056,266.783 							"/>
						</g>
						<g>
							<polygon style="fill:#B0C98F;" points="282.172,290.973 289.131,303.026 297.26,288.946 290.301,276.893 							"/>
							<polygon style="fill:#D8E29F;" points="303.496,291.498 282.475,291.498 289.434,303.551 305.692,303.551 306.568,308.361 
								315.412,297.366 302.627,286.726 303.496,291.498 							"/>
						</g>
						<g>
							<polygon style="fill:#B0C98F;" points="338.387,303.551 345.346,291.498 329.088,291.498 322.129,303.551 							"/>
							<polygon style="fill:#D8E29F;" points="328.179,284.821 338.69,303.026 345.649,290.973 337.52,276.893 341.247,273.729 
								327.303,271.568 324.482,287.96 328.179,284.821 							"/>
						</g>
					</g>
					<polygon style="fill:#547374;" points="265.833,280.764 276.961,286.967 277.544,233.142 280.333,293.385 273.083,288.931 
						267.051,318.101 					"/>
				</g>
				<g>
					<path style="fill:#FFFFFF;" d="M323.326,218.98l-5.718-2.959c-0.467-0.242-1.025-0.229-1.48,0.034l-6.601,3.811
						c-0.455,0.263-0.745,0.74-0.77,1.265l-0.297,6.432c-0.014,0.295,0.058,0.587,0.205,0.842l8.515,14.748
						c0.426,0.738,1.369,0.991,2.107,0.565l12.616-7.284c0.738-0.426,0.99-1.369,0.565-2.107l-8.515-14.748
						C323.805,219.323,323.588,219.116,323.326,218.98z M315.115,221.924c-0.756,0.437-1.723,0.178-2.16-0.579
						c-0.437-0.756-0.177-1.723,0.579-2.16c0.756-0.437,1.724-0.177,2.16,0.579C316.13,220.52,315.871,221.488,315.115,221.924z"/>
					<g>
						<g>
							<polygon style="fill:#547374;" points="318.492,224.689 315.932,226.167 318.923,227.894 321.484,226.416 							"/>
							<polygon style="fill:#6D9B7C;" points="318.381,229.219 318.381,224.753 315.821,226.232 315.821,229.685 314.799,229.871 
								317.134,231.75 319.395,229.034 318.381,229.219 							"/>
						</g>
						<g>
							<polygon style="fill:#547374;" points="315.821,236.631 318.381,238.109 318.381,234.655 315.821,233.177 							"/>
							<polygon style="fill:#6D9B7C;" points="319.799,234.462 315.932,236.695 318.492,238.173 321.484,236.447 322.156,237.238 
								322.615,234.276 319.133,233.677 319.799,234.462 							"/>
						</g>
						<g>
							<polygon style="fill:#547374;" points="327.499,232.974 327.499,230.017 324.508,231.744 324.508,234.701 							"/>
							<polygon style="fill:#6D9B7C;" points="323.631,230.612 327.499,232.845 327.499,229.889 324.508,228.162 324.857,227.184 
								322.062,228.267 323.284,231.583 323.631,230.612 							"/>
						</g>
					</g>
					<g>
						<path style="fill:#B0C98F;" d="M314.695,220.163c-0.09,0.052-0.194,0.083-0.305,0.086c-1.25,0.031-2.201-1.069-2.398-2.151
							c-0.158-0.871,0.039-1.822,0.603-2.906c0.157-0.301,0.328-0.592,0.494-0.873c0.272-0.461,0.528-0.897,0.714-1.357
							c0.541-1.342,0.431-2.956-0.287-4.212c-0.176-0.307-0.07-0.699,0.237-0.876c0.001,0,0.001-0.001,0.002-0.001
							c0.308-0.176,0.701-0.069,0.877,0.239c0.923,1.614,1.059,3.607,0.363,5.331c-0.221,0.549-0.514,1.046-0.798,1.528
							c-0.164,0.279-0.32,0.543-0.461,0.814c-0.427,0.821-0.584,1.502-0.478,2.082c0.098,0.54,0.564,1.11,1.101,1.096
							c0.355-0.009,0.65,0.271,0.659,0.626C315.022,219.834,314.892,220.05,314.695,220.163z"/>
					</g>
				</g>
			</g>
			<g>
				<g>
					<g>
						<path style="fill:#454F6B;" d="M221.096,261.014l25.254,85.633c1.49,5.052,2.246,10.291,2.246,15.557v80.559h-32.5
							c-3.333-37,1.667-82.667,1.667-82.667l-33.333-63.333v146h-35.333c-5-44.667,3.667-85,3.667-85
							c-11.333-61.333-7.667-84.5-3.917-96.75H221.096z"/>
						<path style="fill:#422C4F;" d="M184.429,296.764c12.042,0.5,19.292-2.125,19.292-2.125
							c-6.458,5.958-16.653,7.139-16.653,7.139L184.429,296.764z"/>
						<g>
							<path style="fill:#797C99;" d="M243.929,437.764h-1v-77.149c0-3.834-0.557-7.641-1.655-11.313l-25.349-84.798l0.958-0.286
								l25.349,84.797c1.126,3.766,1.697,7.668,1.697,11.6V437.764z"/>
						</g>
						<g>
							<path style="fill:#422C4F;" d="M184.429,296.764c-1.813-0.109-3.643-0.624-5.417-1.373v5.624
								c1.23,0.53,2.033,0.764,2.033,0.764l-2.033,6.132v22.443l5.417,15.036V296.764z"/>
							<path style="fill:#422C4F;" d="M165.846,284.139c0.617,9.516,7.912,14.377,12.167,16.42v-5.61
								C172.055,292.09,166.957,286.641,165.846,284.139z"/>
							<path style="fill:#422C4F;" d="M177.757,311.695c-1.697,5.119-1.627,10.66,0.201,15.735l0.053,0.148v-16.651L177.757,311.695
								z"/>
							<path style="fill:#797C99;" d="M179.012,301.015c-0.308-0.133-0.643-0.284-1-0.456v10.368l1-3.016V301.015z"/>
							<polygon style="fill:#797C99;" points="178.012,437.764 179.012,437.764 179.012,330.354 178.012,327.578 							"/>
							<path style="fill:#454F6B;" d="M179.012,295.391c-0.335-0.142-0.67-0.283-1-0.442v5.61c0.357,0.172,0.692,0.323,1,0.456
								V295.391z"/>
							<polygon style="fill:#454F6B;" points="178.012,310.927 178.012,327.578 179.012,330.354 179.012,307.911 							"/>
						</g>
						<g>
							<path style="fill:#422C4F;" d="M202.34,268.856c0,0,0.151,1.423,0.29,3.664c6.969-0.848,13.868-2.27,20.588-4.311
								l-2.122-7.195h-72.25c-0.51,1.665-1.017,3.542-1.486,5.68c0.512,0.178,1.031,0.332,1.546,0.503
								c0.064-0.332,0.124-0.669,0.191-0.995c4.534,0.896,9.004,1.44,13.438,1.563c0,0-0.069,1.184-0.218,3.055
								c5.695,1.191,11.472,1.979,17.279,2.355c0.141-1.627,0.325-3.244,0.551-4.843
								C187.516,269.072,194.943,269.248,202.34,268.856z"/>
							<path style="fill:#797C99;" d="M179.594,273.175c-0.416,4.788-0.462,9.66-0.115,14.401c3.472,2.273,7.295,4.529,11.243,5.809
								c3.751-1.377,7.821-2.774,11.573-4.151c0.798-5.901,0.586-12.653,0.335-16.713
								C194.993,273.45,187.272,273.673,179.594,273.175z"/>
							<path style="fill:#454F6B;" d="M202.63,272.521c-0.139-2.241-0.29-3.664-0.29-3.664c-7.397,0.391-14.825,0.216-22.195-0.525
								c-0.226,1.599-0.409,3.216-0.551,4.843C187.272,273.673,194.993,273.45,202.63,272.521z"/>
							<path style="fill:#797C99;" d="M146.89,283.855c1.846,2.245,3.903,4.497,6.127,5.887c2.36-0.987,4.912-1.973,7.272-2.96
								c1.08-5.423,1.721-12.137,2.026-15.963c-4.535-0.948-9.013-2.159-13.41-3.622C147.883,272.518,147.2,278.505,146.89,283.855z
								"/>
							<path style="fill:#454F6B;" d="M149.096,266.202c-0.066,0.326-0.127,0.664-0.191,0.995c4.398,1.463,8.875,2.674,13.41,3.622
								c0.149-1.871,0.218-3.055,0.218-3.055C158.1,267.642,153.629,267.098,149.096,266.202z"/>
						</g>
					</g>
					<g>
						<path style="fill:#422C4F;" d="M256.443,453.882l-0.616-0.235c-3.641-1.386-6.742-3.902-8.849-7.179l-2.382-3.705h-18.375
							c0,0-3.838,9.351-2.922,19.5h42.692C263.949,458.483,260.603,455.466,256.443,453.882z"/>
						<path style="fill:#FFFFFF;" d="M223.299,462.264c0.205,2.27,0.645,4.579,1.422,6.833h43.375
							c-0.245-2.439-0.98-4.751-2.104-6.833H223.299z"/>
					</g>
					<g>
						<path style="fill:#422C4F;" d="M185.219,453.882l-0.617-0.235c-3.641-1.386-6.742-3.902-8.849-7.179l-2.382-3.705h-18.375
							c0,0-3.838,9.351-2.922,19.5h42.692C192.725,458.483,189.379,455.466,185.219,453.882z"/>
						<path style="fill:#FFFFFF;" d="M152.075,462.264c0.205,2.27,0.645,4.579,1.422,6.833h43.375
							c-0.245-2.439-0.98-4.751-2.104-6.833H152.075z"/>
					</g>
				</g>
				<g>
					<path style="fill:#EBA58E;" d="M297.054,177.062c0-0.461,0.163-0.908,0.461-1.26l0.438-0.518
						c-1.595,0.346-3.169,0.48-4.36,0.536c-0.132,0.291-0.208,0.606-0.208,0.931c0,1.25,1.013,2.263,2.263,2.263h3.359
						C297.928,179.014,297.054,178.14,297.054,177.062z"/>
					<path style="fill:#EBA58E;" d="M293.385,176.751c0-0.325,0.076-0.64,0.208-0.931c-0.346,0.016-0.667,0.028-0.938,0.035
						l-1.559,3.159h4.552C294.398,179.014,293.385,178.001,293.385,176.751z"/>
					<path style="fill:#F2C9AD;" d="M308.917,170.062l-3.52-6.577c-1.006-1.88-2.966-3.054-5.098-3.054h-6.37
						c-4.899,0-9.372,2.782-11.539,7.175l-2.627,5.325l-21.5,24.667l-11.167-12.333l-17.333,15.667l15.764,16.959
						c8.322,8.952,23.029,6.8,28.438-4.16l17.131-34.715l1.559-3.159c0.271-0.007,0.592-0.019,0.938-0.035
						c1.191-0.056,2.765-0.19,4.36-0.536c2.246-0.487,4.522-1.396,5.79-3.128l-2.747,3.659c-0.26,0.346-0.401,0.768-0.401,1.201
						c0,1.104,0.895,2,2,2h0.113c1.091,0,2.126-0.483,2.828-1.318l2.954-3.518C309.459,173.022,309.629,171.392,308.917,170.062z"/>
					<path style="fill:#EBA58E;" d="M300.595,177.015c0-0.433,0.141-0.854,0.401-1.201l2.747-3.659
						c-1.268,1.732-3.544,2.641-5.79,3.128l-0.438,0.518c-0.298,0.352-0.461,0.799-0.461,1.26c0,1.078,0.874,1.952,1.952,1.952
						h3.589C301.491,179.014,300.595,178.119,300.595,177.015z"/>
					<path style="fill:#422C4F;" d="M249.858,188.316c-0.138,11.699-13.721,19.473-13.721,19.473l-6.375-6.858l17.333-15.667
						L249.858,188.316z"/>
					<path style="fill:#EBA58E;" d="M265.99,206.133l-7.728-8.536l1.155-1.325C267.804,197.848,265.99,206.133,265.99,206.133z"/>
				</g>
				<g>
					<path style="fill:#CC6164;" d="M174.419,148.931h32.02c10.106,0,19.663,4.597,25.972,12.492l18.518,23.175
						c-3.5,11.5-21.333,21.5-21.333,21.5l-8.5-9.167v30.581c0,8.826,0.573,17.643,1.714,26.394l1.286,9.859c-33,7.5-78,0-78,0
						l1.259-12.732c0.66-6.675,0.991-13.378,0.991-20.085v-23.082c0-14.025,1.537-28.009,4.582-41.699l0,0
						C155.168,156.096,164.102,148.931,174.419,148.931z"/>
					<g>
						<g>
							<path style="fill:#A34262;" d="M216.405,260.479c-4.645,0.566-9.992,1.129-15.704,1.443
								c-5.71,0.321-11.781,0.395-17.842,0.149c-6.06-0.254-12.105-0.827-17.769-1.616c-5.666-0.783-10.949-1.783-15.532-2.729
								c4.376,1.65,9.581,3.199,15.253,4.354c5.669,1.162,11.801,1.93,17.957,2.187c6.157,0.25,12.331-0.011,18.076-0.703
								C206.593,262.879,211.908,261.764,216.405,260.479z"/>
						</g>
						<g>
							<path style="fill:#A34262;" d="M155.605,251.164c4.691,0.801,10.244,1.157,16.146,0.721
								c5.899-0.423,12.133-1.635,18.117-3.622c5.98-1.999,11.695-4.768,16.669-7.968c4.984-3.191,9.214-6.807,12.486-10.261
								c-3.776,2.903-8.275,6.011-13.347,8.821c-5.064,2.818-10.691,5.338-16.515,7.286c-5.829,1.934-11.842,3.293-17.585,4.076
								C165.832,251.011,160.368,251.222,155.605,251.164z"/>
						</g>
						<g>
							<path style="fill:#A34262;" d="M151.496,233.142c2.579,1.67,5.737,3.352,9.277,4.765c3.536,1.418,7.448,2.566,11.439,3.303
								c3.992,0.73,8.057,1.049,11.866,0.981c3.811-0.062,7.361-0.511,10.365-1.155c-6.134,0.372-14.142,0.222-21.97-1.247
								C164.635,238.378,157.097,235.671,151.496,233.142z"/>
						</g>
						<g>
							<path style="fill:#A34262;" d="M212.346,153.242c-1.916,0.737-3.992,2.096-5.723,4.053c-1.736,1.943-3.115,4.474-3.76,7.218
								c-0.645,2.743-0.537,5.624,0.151,8.137c0.678,2.523,1.931,4.665,3.318,6.178c-0.843-1.876-1.561-4.081-1.881-6.473
								c-0.326-2.387-0.256-4.948,0.316-7.395c0.577-2.445,1.656-4.77,3.011-6.761C209.13,156.2,210.756,154.546,212.346,153.242z"
								/>
						</g>
						<path style="fill:#A34262;" d="M221.096,196.931l-13.234-14.271c2.216,24.782,13.234,39.98,13.234,39.98V196.931z"/>
					</g>
				</g>
				<g>
					<path style="fill:#F2C9AD;" d="M176.262,136.764l-6.559-20.242c-4.415-13.623,5.742-27.591,20.063-27.591h0
						c13.066,0,22.988,11.76,20.789,24.64l-2.759,16.161c-0.693,4.062-4.214,7.033-8.335,7.033h-4.699v12.167h-18.833
						L176.262,136.764z"/>
					<path style="fill:#EBA58E;" d="M193.804,126.931l2.956,0.666c1.96,2.001,4.669,0.292,4.669,0.292
						c-1.667,2.583-4.667,2.375-4.667,2.375c-2.125,5.375-9.012,8.477-9.012,8.477l0.175-3.016
						c-4.121,3.581-10.335,2.677-10.335,2.677l0.665-1.474l-2.029,1.13l0.035-1.293v-10.563L193.804,126.931z"/>
					<path style="fill:#8E5A61;" d="M204.402,122.407c0.094-2.369,0.17-4.841-1.113-6.927c-0.412-0.67-0.983-1.246-1.659-1.648
						c-2.474-1.47-4.58-0.077-5.855,1.674c-1.297,1.781-1.93,4.033-1.751,6.228c0.179,2.195,1.169,4.315,2.737,5.862
						c-1.475,4.576-4.741,8.934-9.01,11.144c0.023-1.667,0.255-3.393,0.278-5.06c-2.84,2.457-6.686,4.54-10.438,4.721
						c0.475-1.165,1.173-2.448,1.648-3.613c-2.421,1.685-5.363,2.673-8.311,2.784c1.191-1.169,2.14-2.557,2.628-4.153
						c-7.703-7.679-12.169-18.491-13.035-29.334c-0.293-3.665-0.085-7.57,1.901-10.664c1.986-3.094,6.223-4.98,9.497-3.307
						c0.291-3.384,3.969-6.599,7.199-7.652c3.229-1.053,6.724-0.787,10.103-0.44c3.379,0.347,6.833,0.758,10.138-0.026
						c2.274-0.54,4.45-1.64,6.786-1.658c3.26-0.025,6.293,2.201,7.727,5.13c1.434,2.928,1.417,6.419,0.483,9.543
						s-2.721,5.927-4.718,8.504c0.551,1.566,0.434,3.262-0.116,4.828c-0.55,1.566-1.647,2.934-3.056,3.812l-0.072,4.777
						C206.362,118.929,205.661,120.857,204.402,122.407L204.402,122.407z"/>
					<path style="fill:#EBA58E;" d="M201.134,120.709c-0.708-0.207-1.478,0.251-1.851,0.887c-0.373,0.636-0.433,1.404-0.44,2.141
						c-0.003,0.366,0.006,0.741,0.141,1.08c0.136,0.339,0.425,0.64,0.787,0.69c0.325,0.045,0.652-0.12,0.878-0.359
						c0.225-0.239,0.365-0.545,0.489-0.849c0.824-2.022,1.115-4.258,0.836-6.424c-0.076-0.586-0.207-1.198-0.606-1.634
						c-0.498-0.545-1.341-0.69-2.047-0.47c-0.706,0.22-1.281,0.752-1.692,1.366c-0.411,0.614-0.678,1.311-0.94,2.002
						c0.255-0.499,0.76-1.071,1.116-1.504c0.356-0.434,0.822-0.797,1.367-0.93c0.545-0.133,1.172-0.001,1.548,0.415
						c0.329,0.364,0.427,0.878,0.467,1.366C201.244,119.176,201.253,120.026,201.134,120.709z"/>
				</g>
			</g>
			<g>
				<g>
					<path style="fill:#F0BF6C;" d="M519.735,254.098l-12.398,64.267c-2.42,12.543-3.526,25.296-3.286,38.068
						c0.365,19.45,0.019,52.838-4.649,89.332h40c6.667-48.667-2.333-102.333-2.333-102.333l19.333-54.667l9.333,59.333
						c-0.333,47.333-8.667,97.667-8.667,97.667h43c2.333-53.333-6-99.667-6-99.667c7.667-51.667,10.833-57.551,10.833-86.083
						C575.977,235.467,519.735,254.098,519.735,254.098z"/>
					<path style="fill:#E8916A;" d="M604.888,263.139c0.009-1.013,0.014-2.051,0.014-3.125
						c-28.925-24.547-85.167-5.917-85.167-5.917l-1.636,8.482C545.535,273.788,577.3,273.929,604.888,263.139z"/>
					<path style="fill:#E8916A;" d="M554.448,276.341l1.954,12.423l-18.111,51.211v-22.182c0-2.758,1-5.423,2.814-7.501l0,0
						c2.101-2.407,3.097-5.585,2.744-8.761l-0.356-3.205c-0.509-4.579,1.787-9.014,5.819-11.242l2.841-1.57l-7.029-3.461
						c-6.086-2.996-11.515-7.174-15.971-12.289l0,0L554.448,276.341z"/>
					<path style="fill:#E8916A;" d="M554.448,276.341l32.454-3.41l-3.403,2.412c-7.896,5.595-18.23,6.393-26.89,2.076
						L554.448,276.341z"/>
					<path style="fill:#E8916A;" d="M524.368,340.861c-4.406,5.341-9.729,9.923-15.666,13.487c2.496,0.802,5.305,0.551,7.533-0.832
						c2.103-1.306,3.582-3.412,4.772-5.584C522.196,345.76,522.977,342.909,524.368,340.861z"/>
					<path style="fill:#E8916A;" d="M590.607,339.955c-2.153,6.665-7.163,12.354-13.503,15.332c2.17,0.569,4.646,1.506,6.67,0.537
						c1.6-0.766,2.642-2.343,3.476-3.909C589.154,348.343,590.076,343.968,590.607,339.955z"/>
					<path style="fill:#E8916A;" d="M570.151,337.765c1.535,4.048,3.828,7.806,6.725,11.023c-2.246-0.477-4.221-1.941-5.516-3.836
						C570.065,343.056,569.779,340.03,570.151,337.765z"/>
				</g>
				<path style="fill:#422C4F;" d="M531.564,138.105c-4.403-2.844-7.42-7.737-7.985-12.948c-0.565-5.211,1.333-10.637,5.024-14.359
					c-4.406-2.668-7.239-7.692-7.312-12.842c-0.074-5.15,2.661-10.255,6.99-13.047c-1.819-4.358-2.524-9.504-0.601-13.818
					c1.923-4.314,6.749-7.471,11.373-6.511c0.187-5.011,3.21-10.251,7.857-12.136c4.647-1.885,10.354-0.796,13.98,2.668
					c6.525-5.196,16.61-5.38,23.64-0.89c7.03,4.49,10.712,13.653,8.742,21.759c3.94,1.434,7.135,4.601,8.224,8.65
					c1.088,4.049,0.085,8.602-2.606,11.818c5.502,2.128,9.383,8.515,8.811,14.387c-0.571,5.872-5.381,11.072-11.19,12.099
					c1.841,4.636-0.097,10.758-4.13,13.693c-4.034,2.935-9.457,3.465-14.321,2.356c-6.157,5.63-13.881,8.884-22.221,8.657
					C547.499,147.412,538.572,142.632,531.564,138.105z"/>
				<g>
					<g>
						<path style="fill:#BD6C67;" d="M500.135,215.83L500.135,215.83c-5.899,0.263-11.382-3.031-13.919-8.363l-24.593-51.681
							c-8.148-0.892-16.011-3.99-22.994-8.316c-0.962-0.596-1.491-1.704-1.373-2.829c0.304-2.903,1.061-5.808,2.25-8.486
							c0.797-1.795,3.049-2.353,4.6-1.147c2.199,1.709,4.613,3.046,7.263,4.18c-2.777-1.97-5.144-4.665-7.27-7.394
							c-0.629-0.807-0.511-1.966,0.265-2.633l0.028-0.024c0.78-0.671,1.954-0.611,2.651,0.146c3.596,3.903,7.898,7.172,12.773,9.257
							c-0.814-2.842-1.351-5.699-1.647-8.602c-0.234-2.295,1.553-4.298,3.86-4.298l0,0c2.375,9.875,9.75,14.875,9.208,24.958
							l26.333,37.077l8.436-18.943l20.196,9.586l-13.385,28.994C510.515,212.299,505.622,215.585,500.135,215.83z"/>
						<path style="fill:#422C4F;" d="M506.005,168.732l20.196,9.586l-11.41,24.716c-8.056-12.936-3.89-25.436-3.14-26.936
							l-6.358-5.77L506.005,168.732z"/>
						<path style="fill:#8C404C;" d="M497.569,187.675l6.865,9.666c0.969-11.326-6.306-10.921-6.306-10.921L497.569,187.675z"/>
					</g>
					<g>
						<path style="fill:#6D9B7C;" d="M531.652,134.514L531.652,134.514c-5.688,0.813-10.714,4.126-13.701,9.034l-14.574,23.936
							l12.15,5.767L531.652,134.514z"/>
						<path style="fill:#547374;" d="M512.409,171.771c4.743-11.757,7.872-17.009,12.245-20.446l-9.127,21.926L512.409,171.771z"/>
					</g>
				</g>
				<g>
					<path style="fill:#BD6C67;" d="M548.575,141.74c3.217,2.242,7.425,2.836,11.257,2.007c3.832-0.829,7.296-2.99,10.078-5.753
						c1.403-1.394,2.643-2.938,3.756-4.573l-7.639-1.781v-15.625l-15.125,3.25v12.5l-7.218,1.031
						C543.725,136.302,545.678,139.721,548.575,141.74z"/>
					<path style="fill:#8C404C;" d="M550.902,125.639c4.688,3.125,11.041-0.759,15.125-4.438v-5.188l-15.125,3.25V125.639z"/>
				</g>
				<g>
					<path style="fill:#6D9B7C;" d="M589.402,213.764c0-19,11-60.5,0.75-76.5l-16.486-3.844c-1.113,1.635-2.352,3.179-3.756,4.573
						c-2.782,2.763-6.246,4.924-10.078,5.753c-3.833,0.829-8.04,0.234-11.257-2.007c-2.897-2.019-4.85-5.438-4.891-8.944
						l-12.032,1.719l-17.497,42.033c-2.493,5.99-0.547,12.908,4.704,16.718c4.064,2.95,6.238,7.841,5.699,12.833
						c-1.542,14.295-4.932,43.505-7.906,53.916c46,15.25,88.25,0,88.25,0C604.902,245.514,589.402,232.764,589.402,213.764z"/>
					<path style="fill:#547374;" d="M569.78,196.889h-42.628c0.205-1.352,1.838-1.852,3.204-1.794
						c1.366,0.058,2.72,0.55,4.074,0.353c2.114-0.309,3.593-2.157,5.1-3.671c1.507-1.514,3.743-2.872,5.67-1.95
						c1.885,0.903,2.328,3.463,3.969,4.758c1.345,1.062,3.257,1.071,4.917,0.646c1.66-0.426,3.206-1.226,4.868-1.644
						C562.602,192.668,567.093,194.258,569.78,196.889z"/>
					<path style="fill:#547374;" d="M594.199,151.326h-21.472l4.675,56.8l-36.25,10.638c0,0-10.09-9.994-16.928-9.603h0
						c-0.43,3.899-0.958,8.535-1.554,13.437h0c7.899,13.667,17.399,10.167,17.399,10.167l42.489,10.003
						c5.624,1.324,11.109,0.34,15.633-2.221c-4.189-7.935-8.789-16.431-8.789-26.782
						C589.402,199.021,596.019,170.738,594.199,151.326z"/>
				</g>
				<g>
					<path style="fill:#6D9B7C;" d="M587.994,136.761L587.994,136.761c7.711,1.798,13.695,7.879,15.368,15.617l5.706,26.386
						l-30.833,2.5l-5.509-29.938c-1.211-6.581,2.928-12.962,9.431-14.539l0,0C584.074,136.322,586.073,136.313,587.994,136.761z"/>
					<g>
						<path style="fill:#BD6C67;" d="M580.415,181.088l4.821,31.677l-44.833,9.167l-9.435-10.954
							c-1.539-1.787-3.673-3.003-6.016-3.278c-6.925-0.814-11.049,5.065-11.049,5.065l0,0c1.167,1.362,3.089,1.855,4.737,1.147
							c2.378-1.022,4.513-1.022,4.513-1.022c-4.479,1.513-7.199,3.319-8.814,4.78c-1.421,1.285-2.127,3.176-1.881,5.075l0.45,3.471
							c0.332,2.561,3.475,3.613,5.281,1.767c2.41-2.462,4.188-3.003,4.188-3.003c5.525,10.284,16.65,5.409,16.65,5.409l46.663,6.412
							c11.901,1.635,22.187-8.312,20.952-20.261l-3.854-37.267L580.415,181.088z"/>
						<path style="fill:#8C404C;" d="M585.235,212.764l11.792,6c-3.5-9.625-7.725-8.216-12.112-8.108L585.235,212.764z"/>
						<polygon style="fill:#422C4F;" points="580.415,181.088 602.788,179.274 602.976,181.088 581.417,187.675 						"/>
					</g>
				</g>
				<g>
					<path style="fill:#BD6C67;" d="M575.178,105.981c-3.002-3.438-4.283-8.718-2.816-13.041c-2.882-2.031-5.782-4.077-8.236-6.608
						c-2.454-2.531-4.316-5.609-5.047-9.058c-4.207,4.977-10.312,8.285-16.761,9.18c-0.061,0.057-0.12,0.112-0.182,0.169
						l-1.417,6.754c-1.28,6.102-1.217,12.41,0.185,18.485l0.125,0.539c0.624,2.704,1.966,5.227,4.013,7.101
						c3.481,3.187,8.256,4.24,12.614,3.007l5.629-1.593c3.257-0.922,6.192-2.615,8.596-4.884
						C571.784,112.397,572.911,108.578,575.178,105.981z"/>
					<g>
						<path style="fill:#422C4F;" d="M568.086,99.233l-10.137-3.757c1.483-1.239,3.931-1.286,5.699-0.506
							C565.417,95.75,567.089,97.578,568.086,99.233z"/>
						<path style="fill:#422C4F;" d="M561.388,101.751c-0.37,0.997-1.348,1.553-2.185,1.243c-0.837-0.31-1.216-1.37-0.847-2.367
							c0.37-0.997,1.348-1.553,2.185-1.243C561.378,99.695,561.758,100.754,561.388,101.751z"/>
						<path style="fill:#422C4F;" d="M542.168,89.626l5.785,2.144c0.069-1.763-0.839-3.055-1.912-3.328
							C544.968,88.17,543.395,88.796,542.168,89.626z"/>
						<path style="fill:#422C4F;" d="M543.431,95.095c-0.37,0.997-0.282,1.948,0.196,2.126c0.478,0.177,1.165-0.487,1.534-1.484
							c0.37-0.997,0.282-1.949-0.196-2.126C544.487,93.433,543.8,94.098,543.431,95.095z"/>
						<path style="fill:#8C404C;" d="M550.887,106.018l-5.695-2.111c0.09,1.195,0.905,2.353,2.01,2.817
							C548.307,107.187,549.971,106.79,550.887,106.018z"/>
						<path style="fill:#FFFFFF;" d="M559.019,111.652c-4.52-0.29-9.039-0.579-13.559-0.869c0.579,1.653,2.018,2.952,3.649,3.591
							c1.631,0.638,3.474,0.637,5.161,0.164C555.956,114.063,557.687,112.789,559.019,111.652z"/>
					</g>
				</g>
				<g>
					<g>
						<path style="fill:#BD6C67;" d="M576.971,457.659c6.782,0.637,14.042-0.876,20.252-3.95c-1.183-5.075-2.987-7.944-2.987-7.944
							l-30.061,0c-0.607,1.077-1.311,2.099-2.087,3.062C568.042,449.285,573.806,452.563,576.971,457.659z"/>
						<path style="fill:#FFFFFF;" d="M576.971,457.659c-3.165-5.096-8.929-8.374-14.884-8.832c-2.105,2.612-4.784,4.763-7.819,6.194
							c-3.511,1.655-7.428,2.377-10.828,4.249c-3.4,1.872-5.947,6.003-5.288,9.828h59.583c0.944-6.244,0.4-11.473-0.513-15.389
							C591.013,456.783,583.753,458.296,576.971,457.659z"/>
					</g>
					<path style="fill:#422C4F;" d="M564.174,445.765h30.061C579.402,453.764,564.174,445.765,564.174,445.765z"/>
				</g>
				<g>
					<g>
						<path style="fill:#BD6C67;" d="M515.304,457.659c6.782,0.637,14.042-0.876,20.252-3.95c-1.183-5.075-2.987-7.944-2.987-7.944
							l-30.061,0c-0.607,1.077-1.311,2.099-2.087,3.062C506.376,449.285,512.14,452.563,515.304,457.659z"/>
						<path style="fill:#FFFFFF;" d="M515.304,457.659c-3.165-5.096-8.929-8.374-14.884-8.832c-2.105,2.612-4.784,4.763-7.819,6.194
							c-3.511,1.655-7.428,2.377-10.828,4.249c-3.4,1.872-5.947,6.003-5.288,9.828h59.583c0.944-6.244,0.401-11.473-0.513-15.389
							C529.346,456.783,522.086,458.296,515.304,457.659z"/>
					</g>
					<path style="fill:#422C4F;" d="M502.508,445.765h30.061C517.735,453.764,502.508,445.765,502.508,445.765z"/>
				</g>
			</g>
		</g>
	</g>
</g>
</svg>
