<?xml version="1.0" encoding="utf-8"?>
<!-- Generator: Adobe Illustrator 27.5.0, SVG Export Plug-In . SVG Version: 6.00 Build 0)  -->
<svg version="1.1" xmlns="http://www.w3.org/2000/svg" xmlns:xlink="http://www.w3.org/1999/xlink" x="0px" y="0px"
	 viewBox="0 0 750 500" style="enable-background:new 0 0 750 500;" xml:space="preserve">
<!-- <g id="BACKGROUND">
	<rect style="fill:#E2FFD1;" width="750" height="500"/>
</g> -->
<g id="OBJECTS">
	<!-- <g>
		<path style="fill:#FFFFFF;" d="M552.408,102.975h86.665c0,0,1.967-13.741-9.159-17.335c-11.127-3.594-13.663-6.131-17.891-11.204
			c-4.228-5.074-18.885-8.738-27.545,4.017c-6.455,9.506-13.499,9.37-18.328,10.57C555.086,91.771,552.197,96.422,552.408,102.975z"
			/>
		<path style="fill:#FFFFFF;" d="M140.649,219.248H77.61c0,0-1.431-9.995,6.662-12.609c8.093-2.614,9.939-4.459,13.014-8.15
			c3.075-3.69,13.737-6.356,20.036,2.922c4.695,6.915,9.819,6.816,13.332,7.689C138.702,211.098,140.803,214.481,140.649,219.248z"
			/>
	</g> -->
	<!-- <path style="fill:#C9EBB5;" d="M50.532,447.944h623.53c0,0,1.997-115.131-75.573-193.497
		c-19.917-20.122-35.503-44.162-45.055-70.813C533.69,128.549,484.113,40.414,369,40.414c-146.312,0-209.871,110.17-226.958,215.098
		c-4.425,27.173-17.283,52.288-36.59,71.914C80.671,352.615,50.532,394.281,50.532,447.944z"/> -->
	<g>
		<path style="fill:#72A652;" d="M664.559,276.542c0,0,7.652,10.243,10.771,27.247c3.119,17.004,1.403,27.882,3.3,37.91
			s7.368,25.803-1.939,34.203c0,0-3.546-12.497-9.034-19.053c-5.487-6.556-9.488-21.921-9.596-32.574
			c-0.108-10.653-4.834-31.201-15.598-42.683L664.559,276.542z"/>
		<path style="fill:none;stroke:#EAFFDE;stroke-width:0.8164;stroke-miterlimit:10;" d="M676.698,361.868
			c-0.891-7.886-6.541-11.594-7.458-24.49c-0.918-12.896-1.168-44.017-11.939-54.782"/>
		<path style="fill:#58803F;" d="M642.463,281.594c8.96,9.558,13.734,25.395,15.145,36.581c0-0.002,0-0.003,0-0.005
			c-0.646-16.374,6.951-41.627,6.951-41.627L642.463,281.594z"/>
		<path style="fill:#72A652;" d="M664.559,276.542l-20.256-0.745c-3.493-0.129-6.561,1.781-7.855,4.894
			c-5.016,12.074-17.44,43.111-22.576,66.199c-6.511,29.265-33.223,71.986-39.967,101.054h29.996c0,0,17.395-30.635,25.869-68.601
			C638.243,341.377,657.828,281.594,664.559,276.542z"/>
		<path style="fill:none;stroke:#EAFFDE;stroke-width:0.8164;stroke-miterlimit:10;" d="M650.819,276.542
			c-4.434,9.469-16.181,36.253-21.962,65.699c-7.212,36.735-34.921,90.266-40.953,105.703"/>
	</g>
	<g>
		<path style="fill:#A2C48D;" d="M625.786,215.605c-20.434-8.996-26.087,14.306-28.211,30.863s1.533,25.34-24.31,34.728
			s-20.61,31.798-18.39,49.298c2.22,17.5,1.724,22.291-19.108,30.294c-20.832,8.003-39.983,34.654-18.141,87.157h89.471
			c0,0,19.422-7.26,12.872-60.144c-3.459-27.928,15.412-34.658,16.143-53.572c0.73-18.914-15.87-38.971-5.39-61.92
			C641.203,249.359,644.94,224.038,625.786,215.605z"/>
		<path style="fill:#EAFFDE;" d="M554.783,447.654l7.376-25.172l-19.875-64.406c0.504-0.231,0.99-0.461,1.46-0.689l19.229,62.316
			l18.436-62.915l-20.927-67.817c0.411-0.418,0.84-0.83,1.293-1.232l20.45,66.269l14.429-49.24l-9.37-30.366
			c0.477-0.334,0.934-0.67,1.361-1.009l8.824,28.594l12.434-42.433l-9.015-29.214c0.275-0.87,0.568-1.726,0.882-2.563l8.948,28.996
			l10.188-34.766l1.576,0.58l-7.701,26.281l24.391-13.674c0.062,0.613,0.109,1.234,0.141,1.863L614.1,251.191l-11.956,40.802
			l26.737-14.782c-0.23,0.76-0.432,1.517-0.609,2.271l-26.804,14.82l-3.102,10.588l0.01,0.031l-0.02,0.005l-11.815,40.319
			l47.364-26.187c0.153,0.565,0.3,1.129,0.442,1.691l-48.483,26.805l-2.742,9.356l0.078,0.252l-0.162,0.037l-13.255,45.232
			l50.256-27.786c-0.103,0.677-0.189,1.371-0.26,2.079l-50.672,28.016l-12.66,43.204h-0.874L554.783,447.654z"/>
	</g>
	<g>
		<path style="fill:#72A652;" d="M75.38,296.229c0,0-6.783,9.095-9.535,24.193c-2.751,15.098-1.216,24.756-2.89,33.66
			c-1.674,8.904-6.514,22.91,1.758,30.368c0,0,3.135-11.096,8.001-16.917c4.865-5.821,8.401-19.463,8.486-28.922
			c0.084-9.459,4.259-27.703,13.804-37.897L75.38,296.229z"/>
		<path style="fill:none;stroke:#EAFFDE;stroke-width:0.8164;stroke-miterlimit:10;" d="M64.692,371.988
			c0.783-7.001,5.795-10.294,6.596-21.745c0.801-11.45,0.99-39.082,10.542-48.64"/>
		<path style="fill:#58803F;" d="M95.004,300.714l-19.624-4.485c0,0,4.353,21.804,5.969,39.323
			C82.167,325.611,86.405,309.897,95.004,300.714z"/>
		<path style="fill:#72A652;" d="M75.38,296.229l17.984-0.661c3.102-0.114,5.828,1.581,6.979,4.345
			c4.467,10.721,15.53,38.278,20.116,58.777c5.812,25.984,29.575,63.915,35.593,89.724h-35.763c0,0-12.703-23.647-18.349-57.881
			C95.296,350.243,81.361,300.714,75.38,296.229z"/>
		<path style="fill:none;stroke:#EAFFDE;stroke-width:0.8164;stroke-miterlimit:10;" d="M87.372,295.788
			c0,0,13.335,26.158,19.778,58.774c6.443,32.616,31.102,80.145,36.474,93.852"/>
	</g>
	<g>
		<path style="fill:#A2C48D;" d="M109.74,242.124c18.133-7.988,23.178,12.702,25.081,27.403
			c1.903,14.701-1.335,22.499,21.621,30.834c22.955,8.335,18.333,28.233,16.381,43.771c-1.952,15.538-1.507,19.792,16.998,26.897
			c18.505,7.106,35.537,30.768,16.2,77.385h-79.439c0,0-17.252-6.446-11.493-53.401c3.042-24.797-13.721-30.773-14.39-47.566
			c-0.669-16.793,14.049-34.602,4.72-54.977C96.089,272.094,92.743,249.611,109.74,242.124z"/>
		<path style="fill:#EAFFDE;" d="M173.03,448.156l-6.576-22.35l17.578-57.185c-0.448-0.205-0.88-0.409-1.297-0.612l-17.007,55.329
			l-16.436-55.861l18.509-60.214c-0.365-0.371-0.746-0.737-1.149-1.094l-18.086,58.839l-12.864-43.72l8.288-26.961
			c-0.424-0.297-0.83-0.595-1.21-0.896l-7.804,25.388l-11.085-37.676l7.973-25.938c-0.245-0.772-0.506-1.533-0.786-2.276
			l-7.913,25.745l-9.082-30.868l-1.399,0.515l6.866,23.334l-21.671-12.141c-0.054,0.544-0.095,1.096-0.123,1.654l22.401,12.55
			l10.659,36.228l-23.755-13.125c0.205,0.675,0.385,1.347,0.543,2.017l23.815,13.158l2.766,9.4l-0.008,0.027l0.018,0.004
			l10.533,35.799l-42.081-23.251c-0.135,0.502-0.265,1.002-0.391,1.501l43.076,23.8l2.444,8.307l-0.069,0.224l0.144,0.033
			l11.817,40.161l-44.651-24.671c0.092,0.601,0.17,1.217,0.234,1.846l45.021,24.875l11.287,38.36h0.776L173.03,448.156z"/>
	</g>
	
		<ellipse transform="matrix(0.7071 -0.7071 0.7071 0.7071 -23.584 327.8848)" style="fill:#72A652;" cx="384" cy="192.411" rx="80.307" ry="80.307"/>
	<g>
		<g>
			
				<ellipse transform="matrix(0.8839 -0.4676 0.4676 0.8839 11.7101 204.9074)" style="fill:#FFFFFF;" cx="418.653" cy="78.863" rx="33.588" ry="33.588"/>
			<polygon style="fill:#FFFFFF;" points="446.056,92.935 462.033,118.146 434.671,105.447 			"/>
		</g>
		<g>
			<g>
				<path style="fill:#6CA348;" d="M413.827,71.405l3.659-6.337c0.258-0.447,0.258-0.998,0-1.445l-1.806-3.128
					c-0.244-0.423-0.642-0.724-1.1-0.85c-0.266-0.073-0.549,0.047-0.687,0.286l-6.421,11.128c-0.191,0.331,0.048,0.745,0.43,0.745
					h5.232C413.42,71.805,413.684,71.652,413.827,71.405z"/>
				<path style="fill:#6CA348;" d="M427.116,68.123l-5.111-8.853c-0.36-0.623-1.025-1.007-1.744-1.007h-4.243
					c-0.582,0-1.127,0.253-1.504,0.68c-0.087,0.099-0.028,0.254,0.102,0.275c0.548,0.087,1.035,0.417,1.318,0.906l6.268,10.85
					l-1.438,0.835l6.555,2.372l1.192-6.868L427.116,68.123z"/>
			</g>
			<g>
				<path style="fill:#6CA348;" d="M426.497,78.376l3.66,6.336c0.258,0.447,0.735,0.722,1.252,0.722l3.611-0.001
					c0.488,0,0.948-0.194,1.286-0.528c0.196-0.194,0.234-0.499,0.096-0.738l-6.429-11.123c-0.191-0.331-0.669-0.331-0.861,0
					l-2.615,4.532C426.354,77.823,426.354,78.128,426.497,78.376z"/>
				<path style="fill:#6CA348;" d="M422.698,91.526l10.222-0.002c0.72,0,1.384-0.384,1.744-1.007l2.121-3.675
					c0.291-0.504,0.344-1.102,0.163-1.642c-0.042-0.125-0.206-0.151-0.289-0.049c-0.35,0.431-0.878,0.688-1.444,0.689l-12.53,0.007
					l-0.004-1.663l-5.331,4.491l5.353,4.465L422.698,91.526z"/>
			</g>
			<g>
				<path style="fill:#6CA348;" d="M414.125,85.841l-7.317-0.013c-0.516-0.001-0.994,0.274-1.253,0.72l-1.811,3.124
					c-0.245,0.422-0.307,0.918-0.188,1.377c0.069,0.267,0.314,0.453,0.59,0.453l12.848,0.019c0.383,0,0.622-0.413,0.431-0.745
					l-2.608-4.536C414.675,85.995,414.411,85.842,414.125,85.841z"/>
				<path style="fill:#6CA348;" d="M404.656,75.957l-5.127,8.843c-0.361,0.622-0.362,1.39-0.004,2.014l2.115,3.679
					c0.29,0.505,0.781,0.85,1.339,0.965c0.129,0.026,0.235-0.103,0.188-0.226c-0.198-0.519-0.155-1.105,0.129-1.595l6.281-10.843
					l1.44,0.831l-1.211-6.865l-6.548,2.39L404.656,75.957z"/>
			</g>
		</g>
	</g>
	<g>
		<path style="fill:#232E57;" d="M262.594,427.694c0,0,3.398,12.107,13.887,24.692c1.343,1.611-0.352,3.959-2.304,3.193
			c-8.085-3.169-20.13-9.512-22.858-19.858v19.253h-4.756l-3.375-28.406L262.594,427.694z"/>
		<path style="fill:#232E57;" d="M147.166,412.689c0,0-4.969,11.552-4.724,27.933c0.031,2.097-2.762,2.857-3.8,1.035
			c-4.294-7.547-9.674-20.052-5.291-29.813l-12.104,14.973l-3.699-2.99l15.234-24.212L147.166,412.689z"/>
		<path style="fill:#4E62A8;" d="M240.695,199.46l24.154,102.551c1.494,6.342,2.51,12.788,3.039,19.283l9.33,114.557
			c0,0-28.969,1.969-56.531-4.219l10.125-116.719l-11.531-73.989l-4.771,63.863c-0.75,10.034-3.4,19.834-7.809,28.879
			l-42.545,87.278c0,0-37.125-1.688-47.812-32.344l63-86.625c0,0,2.218-72,20.515-102.515H240.695z"/>
		<polyline style="fill:none;stroke:#232E57;stroke-width:0.75;stroke-miterlimit:10;" points="229.239,259.039 238.123,315.288 
			232.733,433.846 		"/>
		<path style="fill:#232E57;" d="M262.183,290.689l-21.488-91.228h-40.836c-4.666,7.781-8.285,18.26-11.089,29.554
			c-1.442,5.807,0.559,11.948,5.178,15.752c7.792,6.416,16.545,14.329,22.856,29.316l2.477-33.158l5.741,36.834
			c0.515,3.306,2.514,6.188,5.418,7.851C238.486,290.216,248.644,292.603,262.183,290.689z"/>
		<path style="fill:#3C542E;" d="M222.234,99.804c0,0,12.071-3.35,17.156,5.625c2.391,4.219-0.844,8.578-2.25,11.391
			c-1.406,2.813-0.258,4.922,3.105,8.578c3.364,3.656,3.926,12.375-5.214,12.375s-22.641,0-28.688,0
			c-6.047,0-10.266-1.736-10.406-7.875c-0.141-6.139,6.891-10.547,6.609-17.719C202.266,105.007,204.094,96.851,222.234,99.804z"/>
		<g>
			<path style="fill:#FF9587;" d="M325.386,156.734l-0.39,0.694c-1.009,1.794-2.699,3.106-4.688,3.638l-3.198,0.856
				c0,0,6.375-3.664,5.812-4.789s-4.219,0.563-7.594,2.25s-5.484,5.625-5.484,5.625l-40.641,18c0,0-11.109-16.453-18.281-27.703
				c-7.172-11.25-12.799-11.283-12.799-11.283l0.565,23.236c0,0,11.391,21.516,19.688,30.937c8.297,9.422,17.578,4.078,24.469-1.265
				c6.891-5.344,28.828-25.313,28.828-25.313s7.828,1.276,14.578-4.563c1.087-0.941,2.955-3.96,4.072-5.855
				c0.561-0.952,0.458-2.15-0.252-2.997l-1.32-1.575C327.859,155.564,326.208,155.617,325.386,156.734z"/>
			<path style="fill:#DE5F50;" d="M238.665,166.318l0.023,0.94c0,0,9.489,17.921,17.454,28.213l-13.124-43.965L238.665,166.318z"/>
			<path style="fill:none;stroke:#DE5F50;stroke-width:0.5;stroke-miterlimit:10;" d="M327.737,155.955c0,0-0.858,4.668-5.453,6.259
				"/>
			<path style="fill:none;stroke:#DE5F50;stroke-width:0.5;stroke-miterlimit:10;" d="M329.046,157.06c0,0-0.858,4.668-5.453,6.259"
				/>
			<path style="fill:none;stroke:#DE5F50;stroke-width:0.5;stroke-miterlimit:10;" d="M330.154,158.345c0,0-0.858,4.668-5.453,6.259
				"/>
		</g>
		<path style="fill:#FF9587;" d="M224.766,105.101c0,0,4.051,2.985,6.398,6.634c0.576,0.895,0.783,1.969,0.602,3.018
			c-0.223,1.294-0.376,3.309,0.312,5.113c1.125,2.953,2.672,9.422-3.656,11.531l0.513,9l9.188,3.624
			c2.675,1.055,4.528,3.525,4.793,6.389l1.959,21.206l-43.031,3.516l-1.969-24.485c-0.169-2.099,0.997-4.079,2.915-4.949
			l9.123-4.138c0.821-0.373,1.391-1.144,1.507-2.038l2.064-15.999C215.484,123.523,224.906,119.304,224.766,105.101z"/>
		<circle style="fill:#FF9587;" cx="213.902" cy="122.785" r="3.621"/>
		<path style="fill:#DE5F50;" d="M228.422,131.398c-3.797,1.453-8.859,0.469-10.898-3.703c-0.773,3.281,1.296,16.406,11.136,7.875
			L228.422,131.398z"/>
		<path style="fill:#E8B83A;" d="M222.234,99.804c-0.982-0.16-1.916-0.287-2.804-0.383c-3.667-0.397-7.2,1.629-8.666,5.014
			c-1.657,3.823-1.573,8.018-0.483,10.979C210.281,108.043,217.313,101.07,222.234,99.804z"/>
		<path style="fill:#E8B83A;" d="M205.734,164.875l2.859-8.445l18.422,10.969l11.649-11.531c0,0,6.773,9.984,7.616,13.219
			c0.844,3.234-8.158,18.562-8.158,18.562l2.572,11.813c0,0-22.009,5.484-40.836,0l5.641-8.985l-6.891-18.718L205.734,164.875z"/>
		<path style="fill:none;stroke:#E8B83A;stroke-width:0.75;stroke-miterlimit:10;" d="M204.098,144.758
			c0,0,5.55,10.336,5.761,19.336"/>
		<path style="fill:none;stroke:#E8B83A;stroke-width:0.75;stroke-miterlimit:10;" d="M238.969,162.968
			c0,0,1.195-13.219-4.962-20.57"/>
		
			<line style="fill:none;stroke:#DE5F50;stroke-width:0.75;stroke-miterlimit:10;" x1="214.992" y1="144.758" x2="223.289" y2="151.506"/>
		<path style="fill:none;stroke:#4E62A8;stroke-width:0.75;stroke-miterlimit:10;" d="M197.72,203.365
			c0,0,16.803,9.642,44.776,1.158"/>
		
			<line style="fill:none;stroke:#4E62A8;stroke-width:0.75;stroke-miterlimit:10;" x1="219.141" y1="239.538" x2="223.289" y2="207.939"/>
		<path style="fill:none;stroke:#4E62A8;stroke-width:0.75;stroke-miterlimit:10;" d="M229.234,207.41c0,0,0.525,25.025-9.308,26.14
			"/>
		<path style="fill:none;stroke:#4E62A8;stroke-width:0.75;stroke-miterlimit:10;" d="M209.859,207.167
			c0,0-3.956,15.659-19.135,14.593"/>
		<polyline style="fill:none;stroke:#232E57;stroke-width:0.75;stroke-miterlimit:10;" points="197.72,221.761 189.75,306.476 
			124.985,403.259 		"/>
		<path style="fill:#293459;" d="M225.117,117.757c0,0.505-0.409,0.914-0.914,0.914c-0.505,0-0.914-0.409-0.914-0.914
			c0-0.505,0.409-0.914,0.914-0.914C224.708,116.843,225.117,117.253,225.117,117.757z"/>
		<path style="fill:#293459;" d="M230.602,117.757c0,0.505-0.409,0.914-0.914,0.914c-0.505,0-0.914-0.409-0.914-0.914
			c0-0.505,0.409-0.914,0.914-0.914C230.192,116.843,230.602,117.253,230.602,117.757z"/>
		<path style="fill:none;stroke:#3C542E;stroke-miterlimit:10;" d="M221.883,115.086c0,0,2.039-1.125,4.289,0"/>
		<path style="fill:none;stroke:#3C542E;stroke-miterlimit:10;" d="M228.281,115.414c0,0,1.279-0.906,3.586,0.101"/>
		<path style="fill:none;stroke:#DE5F50;stroke-width:0.75;stroke-miterlimit:10;" d="M227.719,116.843v2.742
			c0,0,2.25-0.07,1.055,1.758"/>
		<path style="fill:#FFFFFF;" d="M229.959,122.518l-6.177-0.993c0,0,1.154,5.996,3.515,6.17
			C229.658,127.869,229.959,122.518,229.959,122.518z"/>
		<path style="fill:#DE5F50;" d="M224.203,120.617c0,0.647-0.682,1.172-1.523,1.172c-0.841,0-1.523-0.525-1.523-1.172
			c0-0.647,0.682-1.172,1.523-1.172C223.521,119.445,224.203,119.97,224.203,120.617z"/>
		<path style="fill:#DE5F50;" d="M230.602,121.525c0,0.502,0.653,0.908,1.458,0.908c0.272,0,0.524-0.049,0.742-0.13
			c-0.13-0.602-0.288-1.165-0.454-1.668c-0.093-0.012-0.19-0.018-0.288-0.018C231.254,120.617,230.602,121.023,230.602,121.525z"/>
		<g>
			<polygon style="fill:#FFFFFF;" points="225.138,264.345 276.695,269.849 288.381,208.855 236.825,203.351 			"/>
			<polygon style="fill:#ECFFE0;" points="276.695,269.849 282.629,270.483 288.381,208.855 			"/>
			<path style="fill:none;stroke:#FFFFFF;stroke-width:0.8677;stroke-miterlimit:10;" d="M275.02,209.58l-24.796-2.647
				c0,0,6.582-19.783,14.56-18.931C272.763,188.854,275.02,209.58,275.02,209.58z"/>
			<path style="fill:#72A652;" d="M265.481,217.15c0,0-0.395,5.255,0.464,12.713c1.2,10.417,1.295,21.676-8.598,26.187
				c-5.854-17.632,4.322-34.589,4.322-34.589c-8.761,9.46-8.61,25.086-7.913,32.722C240.604,238.93,247.874,219.353,265.481,217.15z
				"/>
		</g>
		<g>
			<path style="fill:#FF9587;" d="M202.79,145.698c-7.415,3.7-12.056,7.356-20.493,23.95c-8.438,16.594-19.828,30.375-16.313,43.031
				c3.516,12.656,41.766,13.547,56.383,14.484c3.945,2.625,11.411-2.276,11.411-2.276l4.553,1.634
				c0.732,0.263,1.55,0.003,1.996-0.635l3.051-4.364c0.461-0.659,0.288-1.569-0.382-2.014l-4.092-2.713
				c-1.878-1.245-4.273-1.412-6.305-0.438l-10.231,4.899l-34.164-16.734l16.997-40.189L202.79,145.698z"/>
			<path style="fill:#DE5F50;" d="M188.203,204.523L188.203,204.523c-4.593-2.018-5.895-7.92-2.579-11.684l14.462-16.411
				L188.203,204.523z"/>
			
				<line style="fill:none;stroke:#DE5F50;stroke-width:0.5;stroke-miterlimit:10;" x1="235.875" y1="218.164" x2="242.995" y2="222.07"/>
			
				<line style="fill:none;stroke:#DE5F50;stroke-width:0.5;stroke-miterlimit:10;" x1="235.025" y1="220.117" x2="241.773" y2="223.818"/>
			
				<line style="fill:none;stroke:#DE5F50;stroke-width:0.5;stroke-miterlimit:10;" x1="234.135" y1="221.761" x2="240.695" y2="225.36"/>
		</g>
	</g>
	<g>
		<path style="fill:#BDD95F;" d="M293.504,387.639c0,0,6.267-2.918,10.416,4.179c4.149,7.096,20.88,22.365,30.654,5.283
			c10.881-4.461,1.107-20.535-11.999-23.499C310.744,370.925,298.867,377.772,293.504,387.639z"/>
		<path style="fill:none;stroke:#72A652;stroke-width:0.706;stroke-miterlimit:10;" d="M295.808,385.543
			c29.123-11.963,46.519,20.438,56.029,44.265"/>
		<g>
			<path style="fill:#BDD95F;" d="M477.327,383.908c0,0-8.162,3.724-10.535,13.218c-2.373,9.494-7.491,13.142-13.372,13.621
				c-5.881,0.479-11.911-3.218-17.852,0.121c0.426-8.642-4.539-21.184,4.897-27.297
				C449.901,377.459,466.606,377.353,477.327,383.908z"/>
			<path style="fill:none;stroke:#72A652;stroke-width:0.706;stroke-miterlimit:10;" d="M472.324,383.775
				c0,0-26.471-0.759-40.947,36.061"/>
		</g>
		<path style="fill:#72A652;" d="M439.573,318.825c0,0,7.031,9.406,4.781,18.124c-2.25,8.719-5.181,12.375-2.169,22.781
			c3.012,10.406,4.419,20.531-2.613,27.281c-7.031,6.75-12.75,10.372-8.062,22.061c4.687,11.689-14.719,34.03-14.719,34.03
			l-43.031,1.005c0,0,9.049-30.658,7.9-43.033c-1.15-12.375,12.428-15.75,14.78-22.5c2.352-6.75-1.305-15.469,4.883-21.937
			c6.188-6.469,15.469-5.696,18-14.239C421.855,333.856,419.324,320.388,439.573,318.825z"/>
		<path style="fill:#3C542E;" d="M441.059,354.335c-0.036-0.31-0.06-0.608-0.083-0.906l-17.543,9.789l12.689-36.256l-0.785-0.275
			l-7.436,21.246l-3.576-22.46c-0.245,0.326-0.469,0.661-0.682,1l3.68,23.112l-8.821,25.205l-7.588-24.12
			c-0.252,0.12-0.503,0.242-0.758,0.361l7.887,25.07l-9.522,27.206l-10.88-38.349c-0.096,0.787-0.154,1.58-0.189,2.375
			l10.592,37.336l-9.049,25.855l-15.092-38.483c-0.191,0.289-0.372,0.585-0.545,0.888l15.216,38.797l-4.113,11.751l0.393,0.138
			l0.443-0.01l1.798-5.136l29.158-8.581c0.206-0.346,0.409-0.694,0.611-1.046l-29.431,8.661l6.448-18.422l27.18-11.195
			c-0.095-0.267-0.185-0.53-0.269-0.789l-26.544,10.933l8.297-23.706l31.751-16.261c0.061-0.332,0.102-0.671,0.147-1.009
			l-31.5,16.132l10.074-28.783L441.059,354.335z"/>
		<g>
			<path style="fill:#3C542E;" d="M359.839,443.103c0,0-1.688-10.319-6.75-17.596s-14.766-5.729-20.25-9.386
				c-5.484-3.656-10.406-9.984-21.375-12.234c-10.969-2.25-15.047,4.359-22.078,7.734c-7.031,3.375-11.813,9.771-11.109,13.886
				c0.703,4.114,2.27,6.556,11.823,7.304c9.552,0.748,12.365-1.783,16.302,1.17s0.563,7.697,11.109,9.122
				c10.547,1.425,22.641-2.888,27.844,4.19L359.839,443.103z"/>
			<path style="fill:none;stroke:#72A652;stroke-width:0.8313;stroke-miterlimit:10;" d="M283.34,423.574
				c13.219-10.969,24.187-7.594,29.531-3.938c5.344,3.656,7.312,6.783,14.203,8.173c6.891,1.39,20.352,0.133,25.153,17.496"/>
		</g>
		<g>
			<path style="fill:#3C542E;" d="M406.062,443.464l20.663,2.492c0,0,10.563,0.658,16.365-3.734
				c5.802-4.392,8.642-12.138,15.716-11.61c7.074,0.528,18.241,1.655,20.502-7.847c2.261-9.503-6.63-14.928-13.976-13.666
				c-7.346,1.262-8.068,7.175-20.664,6.028C432.072,413.981,411.236,419.828,406.062,443.464z"/>
			<path style="fill:none;stroke:#72A652;stroke-width:0.8313;stroke-miterlimit:10;" d="M417.334,444.371
				c0,0,23.657-32.473,60.649-22.701"/>
		</g>
		<g>
			<g>
				<path style="fill:#ED7440;" d="M312.338,323.742c-1.162,0.736-1.839,1.944-1.948,3.217c-1.196-0.446-2.579-0.352-3.741,0.384
					c-1.162,0.736-1.839,1.944-1.948,3.217c-1.197-0.446-2.579-0.352-3.741,0.384c-1.974,1.249-2.561,3.862-1.312,5.836
					c1.249,1.974,3.862,2.561,5.836,1.312c1.162-0.736,1.839-1.944,1.948-3.217c1.197,0.446,2.579,0.352,3.741-0.384
					c1.162-0.736,1.839-1.944,1.948-3.217c1.197,0.446,2.579,0.352,3.741-0.384c1.974-1.249,2.561-3.862,1.312-5.836
					C316.925,323.081,314.312,322.493,312.338,323.742z"/>
				<path style="fill:#EDB255;" d="M315.958,327.977c-4.874-0.92-6.361,4.025-6.361,4.025s-5.106-0.773-6.361,4.025
					c0,0-5.576-0.624-6.771,4.285l23.184,7.575l3.079-24.195C317.781,322.67,315.958,327.977,315.958,327.977z"/>
				
					<line style="fill:none;stroke:#EDDBBE;stroke-width:0.75;stroke-miterlimit:10;" x1="310.2" y1="332.955" x2="318.041" y2="345.345"/>
				<g>
					
						<line style="fill:none;stroke:#EDDBBE;stroke-width:0.75;stroke-miterlimit:10;" x1="304.077" y1="336.83" x2="317.054" y2="345.97"/>
					
						<line style="fill:none;stroke:#EDDBBE;stroke-width:0.75;stroke-miterlimit:10;" x1="316.324" y1="329.08" x2="319.028" y2="344.72"/>
				</g>
			</g>
			
				<line style="fill:none;stroke:#3C542E;stroke-width:0.7115;stroke-miterlimit:10;" x1="319.65" y1="347.887" x2="354.799" y2="403.43"/>
			<g>
				<path style="fill:#72A652;" d="M326.392,348.649c-0.611,3.515-0.256,6.731,0.774,8.603c1.6-1.415,3.019-4.323,3.63-7.838
					c0.611-3.515,0.256-6.731-0.774-8.603C328.422,342.226,327.003,345.134,326.392,348.649z"/>
				<path style="fill:#72A652;" d="M319.072,356.867c3.438,0.953,6.192,2.65,7.443,4.382c-1.964,0.841-5.199,0.878-8.637-0.075
					c-3.438-0.953-6.192-2.65-7.443-4.382C312.399,355.951,315.634,355.914,319.072,356.867z"/>
			</g>
		</g>
		<g>
			<g>
				<path style="fill:#ED7440;" d="M371.207,278.706c-1.308,0.106-2.416,0.827-3.072,1.853c-0.813-0.908-2.022-1.441-3.33-1.335
					c-1.308,0.106-2.416,0.827-3.072,1.853c-0.813-0.908-2.022-1.441-3.33-1.335c-2.221,0.18-3.876,2.126-3.697,4.347
					c0.18,2.221,2.126,3.876,4.347,3.697c1.308-0.106,2.416-0.826,3.072-1.853c0.813,0.908,2.022,1.441,3.33,1.335
					c1.308-0.106,2.416-0.826,3.072-1.853c0.813,0.908,2.022,1.441,3.33,1.335c2.221-0.18,3.876-2.126,3.697-4.347
					C375.375,280.181,373.429,278.526,371.207,278.706z"/>
				<path style="fill:#EDB255;" d="M372.387,283.888c-3.708-2.939-7.158,0.578-7.158,0.578s-3.97-2.918-7.158,0.579
					c0,0-4.432-3-7.618,0.616l16.221,16.68l13.332-19.069C376.28,280.215,372.387,283.888,372.387,283.888z"/>
				
					<line style="fill:none;stroke:#3C542E;stroke-width:0.6788;stroke-miterlimit:10;" x1="365.316" y1="285.539" x2="366.443" y2="299.481"/>
				<g>
					
						<line style="fill:none;stroke:#3C542E;stroke-width:0.6788;stroke-miterlimit:10;" x1="358.426" y1="286.095" x2="365.332" y2="299.57"/>
					
						<line style="fill:none;stroke:#3C542E;stroke-width:0.6788;stroke-miterlimit:10;" x1="372.206" y1="284.982" x2="367.554" y2="299.391"/>
				</g>
			</g>
			
				<line style="fill:none;stroke:#3C542E;stroke-width:0.6788;stroke-miterlimit:10;" x1="366.674" y1="302.341" x2="371.725" y2="364.84"/>
			<g>
				<path style="fill:#72A652;" d="M372.031,305.975c-2.075,2.698-3.201,5.571-3.162,7.609c1.979-0.485,4.467-2.312,6.542-5.01
					c2.075-2.698,3.201-5.571,3.162-7.609C376.593,301.45,374.105,303.277,372.031,305.975z"/>
				<path style="fill:#72A652;" d="M362.203,309.669c2.481,2.33,4.054,4.985,4.343,7.002c-2.032-0.161-4.78-1.565-7.261-3.894
					c-2.481-2.33-4.054-4.985-4.343-7.002C356.973,305.936,359.722,307.339,362.203,309.669z"/>
			</g>
		</g>
		<g>
			<g>
				<path style="fill:#ED7440;" d="M416.78,307.582c-1.265-0.349-2.553-0.052-3.521,0.687c-0.452-1.131-1.405-2.047-2.67-2.396
					c-1.265-0.349-2.553-0.052-3.521,0.687c-0.452-1.131-1.405-2.047-2.67-2.396c-2.148-0.593-4.37,0.667-4.963,2.815
					c-0.593,2.148,0.667,4.37,2.815,4.963c1.265,0.349,2.553,0.052,3.521-0.687c0.452,1.131,1.405,2.047,2.67,2.396
					c1.265,0.349,2.553,0.052,3.521-0.687c0.452,1.131,1.405,2.047,2.67,2.396c2.148,0.593,4.37-0.667,4.963-2.815
					C420.188,310.397,418.928,308.175,416.78,307.582z"/>
				<path style="fill:#EDB255;" d="M416.11,312.854c-2.475-4.032-6.922-1.911-6.922-1.911s-2.728-4.102-6.922-1.911
					c0,0-3.135-4.338-7.368-2.034l9.516,21.232l19.063-13.34C421.027,310.74,416.11,312.854,416.11,312.854z"/>
				
					<line style="fill:none;stroke:#3C542E;stroke-width:0.6788;stroke-miterlimit:10;" x1="408.902" y1="311.98" x2="405.179" y2="325.463"/>
				<g>
					
						<line style="fill:none;stroke:#3C542E;stroke-width:0.6788;stroke-miterlimit:10;" x1="402.239" y1="310.14" x2="404.105" y2="325.167"/>
					
						<line style="fill:none;stroke:#3C542E;stroke-width:0.6788;stroke-miterlimit:10;" x1="415.565" y1="313.82" x2="406.253" y2="325.76"/>
				</g>
			</g>
			
				<line style="fill:none;stroke:#3C542E;stroke-width:0.6788;stroke-miterlimit:10;" x1="404.415" y1="328.229" x2="382.041" y2="409.258"/>
			<g>
				<path style="fill:#72A652;" d="M408.201,333.48c-2.874,1.823-4.918,4.135-5.58,6.063c2.026,0.223,4.989-0.64,7.863-2.462
					c2.874-1.823,4.918-4.135,5.58-6.063C414.038,330.795,411.075,331.657,408.201,333.48z"/>
				<path style="fill:#72A652;" d="M397.702,333.579c1.532,3.039,2.099,6.073,1.678,8.067c-1.853-0.848-3.954-3.109-5.486-6.148
					c-1.532-3.039-2.099-6.073-1.678-8.067C394.07,328.279,396.171,330.54,397.702,333.579z"/>
			</g>
		</g>
		<path style="fill:#72A652;" d="M454.841,369.175c-2.874,1.823-4.918,4.135-5.58,6.063c2.026,0.223,4.989-0.64,7.863-2.462
			c2.874-1.823,4.918-4.135,5.58-6.063C460.678,366.49,457.715,367.352,454.841,369.175z"/>
		<path style="fill:#72A652;" d="M323.018,295.544c-1.499,3.055-2.035,6.095-1.593,8.084c1.844-0.868,3.921-3.15,5.421-6.206
			c1.499-3.055,2.035-6.095,1.593-8.084C326.594,290.206,324.517,292.489,323.018,295.544z"/>
		<path style="fill:#72A652;" d="M397.374,291.57c-1.5,3.055-2.035,6.095-1.593,8.084c1.844-0.868,3.921-3.15,5.421-6.206
			c1.5-3.055,2.035-6.095,1.593-8.084C400.951,286.232,398.874,288.515,397.374,291.57z"/>
		<path style="fill:#3C542E;" d="M404.929,443.38c2.154-10.147,2.681-15.355-2.192-23.544c-6.296-10.578-10.659-12.924-7.621-25.672
			c1.138-4.774,0.121-8.323-1.805-11.281c-4.734,4.492-12.532,8.688-11.649,18.191c1.149,12.375-7.9,43.033-7.9,43.033
			L404.929,443.38z"/>
		<path style="fill:#72A652;" d="M338.511,294.059c0,0,13.594,6.935,16.125,22.522c2.531,15.587,9.844,12.02,15.75,22.522
			c5.906,10.502,0.563,18.096,5.063,25.127c4.5,7.031,17.087,10.125,15,23.063c-2.087,12.938-2.063,13.7,4.125,23.303
			c6.188,9.603,12.923,17.409,7.594,31.632l-51.187,1.879c0,0-2.25-7.033-0.562-20.252c1.687-13.219-1.687-18.563-6.75-27
			c-5.062-8.438,3.094-18.281,1.406-22.781c-1.688-4.5-9.844-8.438-9-20.953c0.844-12.516,1.688-18.151-4.219-28.13
			C325.949,315.012,330.261,301.231,338.511,294.059z"/>
		<path style="fill:#3C542E;" d="M378.765,441.483l17.676-28.041c-0.167-0.253-0.335-0.507-0.503-0.761l-17.476,27.724
			l-8.379-29.805l12.028-39.891c-0.233-0.188-0.466-0.376-0.698-0.564l-11.749,38.964l-9.964-35.443l10.79-34.371
			c-0.036-0.065-0.067-0.128-0.103-0.193c-0.153-0.272-0.307-0.529-0.462-0.782l-10.636,33.882l-8.085-28.757l5.995-18.506
			c-0.181-0.337-0.357-0.694-0.527-1.071l-5.874,18.132l-10.667-37.944l-0.801,0.225l6.026,21.434l-16.217-12.062
			c-0.013,0.342-0.018,0.684-0.016,1.025l16.602,12.349l9.133,32.485l-18.329-13.225c-0.018,0.322-0.037,0.651-0.057,0.983
			l18.748,13.527l3.615,12.857l-0.093,0.295l0.193,0.06l5.642,20.069l-20.947-11.782c-0.086,0.267-0.171,0.537-0.256,0.81
			l21.521,12.105l9.592,34.12l-23.655-12.869c0.009,0.317,0.02,0.631,0.021,0.958l23.948,13.028l3.557,12.653l0.855-0.031
			L378.765,441.483z"/>
	</g>
	<g>
		<g>
			
				<ellipse transform="matrix(0.4743 -0.8804 0.8804 0.4743 69.7364 308.7827)" style="fill:#FFFFFF;" cx="293.409" cy="96.002" rx="32.902" ry="32.902"/>
			<polygon style="fill:#FFFFFF;" points="266.123,108.888 249.661,133.05 276.863,121.508 			"/>
		</g>
		<path style="fill:#DE5F50;" d="M305.401,84.226c-6.778-2.866-11.993,5.388-11.993,5.388s-5.214-8.254-11.993-5.388
			c-6.687,2.828-7.821,19.604,11.993,28.775C313.223,103.83,312.088,87.054,305.401,84.226z"/>
	</g>
	<g>
		<ellipse style="fill:#9E5E4C;" cx="385.011" cy="447.293" rx="46.5" ry="9.469"/>
		<g>
			<path style="fill:#9E5E4C;" d="M381.661,236.891v210.5c0,0.285,1.5,0.516,3.35,0.516c1.85,0,3.351-0.231,3.351-0.516v-210.5
				H381.661z"/>
			<polygon style="fill:#824838;" points="381.661,260.45 388.362,286.095 388.362,236.891 381.661,236.891 			"/>
		</g>
		<g>
			<path style="fill:#E6AEA1;" d="M369.636,137.919c0,0,14.062-3.469,30.75,0l-15.375,15.188L369.636,137.919z"/>
			<g>
				<circle style="fill:#9E5E4C;" cx="385.011" cy="126.329" r="4.324"/>
				<path style="fill:#9E5E4C;" d="M393.626,140.022c-1.378-0.721-2.349-2.034-2.637-3.563l-1.092-5.806h-4.887h-4.887l-1.092,5.806
					c-0.287,1.528-1.259,2.841-2.637,3.563l-10.568,5.533l19.184,5.84l19.184-5.84L393.626,140.022z"/>
			</g>
			<path style="fill:#FFFFFF;" d="M418.48,190.176l3.938,11.947l24.188-5.939l-12.996-35.111c-1.935-5.229-5.966-9.411-11.12-11.538
				l-20.884-8.617l-16.594,6.609l-16.594-6.609l-20.884,8.617c-5.154,2.127-9.185,6.309-11.12,11.538l-12.996,35.111l24.188,5.939
				l3.937-11.947l0.563,35.035l-9.563,21.128l24.283,7.911c6.624,2.158,13.741-1.468,15.89-8.095l2.295-7.08l2.296,7.08
				c2.149,6.627,9.266,10.253,15.89,8.095l24.283-7.911l-9.563-21.128L418.48,190.176z"/>
			<polygon style="fill:#FFDED6;" points="385.011,147.528 389.335,157.825 407.701,143.434 402.109,141.024 			"/>
			<polygon style="fill:#FFDED6;" points="385.011,147.528 380.687,157.825 362.322,143.434 367.914,141.024 			"/>
			<polygon style="fill:#FFDED6;" points="336.666,199.437 347.977,170.817 350.605,180.762 351.542,190.176 347.605,202.123 			"/>
			<polygon style="fill:#E6AEA1;" points="323.98,191.544 349.855,198.387 347.977,203.919 321.68,197.895 			"/>
			<polygon style="fill:#FFFFFF;" points="385.011,147.528 380.23,155.45 365.23,144.294 369.636,137.919 			"/>
			<polygon style="fill:#FFDED6;" points="433.356,199.437 422.046,170.817 419.417,180.762 418.48,190.176 422.417,202.123 			"/>
			<polyline style="fill:none;stroke:#BA8171;stroke-width:0.75;stroke-miterlimit:10;" points="351.542,190.176 350.605,180.762 
				344.411,157.325 			"/>
			<polyline style="fill:none;stroke:#BA8171;stroke-width:0.75;stroke-miterlimit:10;" points="418.48,190.176 419.417,180.762 
				425.611,157.325 			"/>
			<polygon style="fill:#E6AEA1;" points="446.042,191.544 420.167,198.387 422.046,203.919 448.342,197.895 			"/>
			<polygon style="fill:#FFFFFF;" points="385.011,147.528 389.792,155.45 404.792,144.294 400.386,137.919 			"/>
			
				<line style="fill:none;stroke:#BA8171;stroke-width:0.75;stroke-miterlimit:10;" x1="385.011" y1="150.059" x2="385.011" y2="234.762"/>
			<g>
				<path style="fill:#E6AEA1;" d="M381.689,164.609c0,0.883-0.716,1.599-1.599,1.599c-0.883,0-1.599-0.716-1.599-1.599
					c0-0.883,0.716-1.599,1.599-1.599C380.973,163.009,381.689,163.725,381.689,164.609z"/>
				<circle style="fill:#E6AEA1;" cx="380.089" cy="183.143" r="1.599"/>
				<circle style="fill:#E6AEA1;" cx="380.089" cy="201.678" r="1.599"/>
				<circle style="fill:#E6AEA1;" cx="380.089" cy="220.213" r="1.599"/>
			</g>
			<g>
				<path style="fill:none;stroke:#3C542E;stroke-width:0.75;stroke-miterlimit:10;" d="M418.918,147.882
					c-0.676,7.246-10.434,15.748-13.627,23.318"/>
				<path style="fill:#53783B;" d="M423.916,151.417c-3.508,1.131-6.241,3.117-7.403,5.13c2.119,0.955,5.497,0.971,9.005-0.16
					s6.241-3.117,7.403-5.13C430.802,150.301,427.424,150.286,423.916,151.417z"/>
				<path style="fill:#53783B;" d="M412.855,149.482c-0.815-3.595-2.55-6.493-4.452-7.829c-1.14,2.025-1.456,5.389-0.641,8.984
					c0.815,3.595,2.55,6.493,4.452,7.83C413.354,156.44,413.67,153.077,412.855,149.482z"/>
				<g>
					<path style="fill:#EDB255;" d="M427.859,135.527c-0.547-3.311-2.544-4.178-4.216-4.638s-3.832-0.74-5.997,1.825
						c0,0-1.211-1.443-3.589-2.424c-2.354-0.971-4.668,1.497-3.577,3.798l7.766,16.392l15.065-10.103
						c2.115-1.418,1.391-4.723-1.128-5.094C429.639,134.907,427.859,135.527,427.859,135.527z"/>
					<g>
						
							<line style="fill:none;stroke:#EDDBBE;stroke-width:0.75;stroke-miterlimit:10;" x1="417.669" y1="134.64" x2="418.08" y2="145.863"/>
						
							<line style="fill:none;stroke:#EDDBBE;stroke-width:0.75;stroke-miterlimit:10;" x1="426.853" y1="137.17" x2="420.753" y2="146.599"/>
					</g>
					<path style="fill:#ED7440;" d="M414.247,142.038l3.999,8.441l7.758-5.202c-1.972-0.916-3.607-0.36-3.607-0.36
						c-0.261-1.578-1.213-1.991-2.01-2.211c-0.797-0.22-1.826-0.352-2.858,0.87C417.529,143.576,416.41,142.261,414.247,142.038z"/>
				</g>
			</g>
			<path style="fill:none;stroke:#BA8171;stroke-width:0.75;stroke-miterlimit:10;" d="M394.386,171.2h19.688
				c0,0,0.75,18.976-9.844,18.976C393.636,190.176,394.386,171.2,394.386,171.2z"/>
			
				<line style="fill:none;stroke:#BA8171;stroke-width:0.75;stroke-miterlimit:10;" x1="395.933" y1="174.387" x2="412.527" y2="174.387"/>
		</g>
	</g>
	<g>
		<g>
			<polygon style="fill:#FFFFFF;" points="508.083,365.467 449.021,365.467 443.159,294.967 502.222,294.967 			"/>
			<path style="fill:#72A652;" d="M469.253,306.404c0,0-0.188,6-2.063,14.344c-2.619,11.654-4.087,24.395,6.572,30.701
				c8.762-19.264-0.713-39.701-0.713-39.701c8.78,11.775,6.719,29.455,5.006,38.02C494.797,334.082,488.93,311.03,469.253,306.404z"
				/>
			<polygon style="fill:#ECFFE0;" points="449.021,365.467 432.921,365.467 443.159,294.967 			"/>
			<path style="fill:none;stroke:#FFFFFF;stroke-width:0.9884;stroke-miterlimit:10;" d="M458.206,297.405h28.406
				c0,0-5.063-23.203-14.203-23.203S458.206,297.405,458.206,297.405z"/>
		</g>
		<g>
			<path style="fill:#FF9587;" d="M496.848,425.418l0.451,6.314c0.243,3.402-1.915,6.515-5.186,7.481l-9.574,2.826
				c0,0-9.106-0.723-9.106,6.649v3.758h40.544c0,0,0.049-6.235-2.116-11.826c-0.992-2.563-1.308-5.338-0.97-8.066l0.988-7.987
				L496.848,425.418z"/>
			<path style="fill:#33406E;" d="M502.732,439.272c-1.069-3.263-4.28-3.691-6.286-3.619c-0.892,1.673-2.412,2.993-4.334,3.56
				l-9.574,2.826c0,0-9.106-0.723-9.106,6.649v3.758h40.544c0,0,0.049-6.235-2.116-11.826c-0.173-0.447-0.318-0.902-0.45-1.361
				l-5.624,1.695C504.477,441.349,503.158,440.573,502.732,439.272z"/>
			<path style="fill:#4E62A8;" d="M513.977,452.446c0,0,0.011-1.533-0.24-3.758h-40.304v3.758H513.977z"/>
		</g>
		<g>
			<path style="fill:#FF9587;" d="M577.37,411.94l5.123,13.639c1.341,3.569,1.155,7.533-0.514,10.961l-4.312,8.858
				c0,0-6.674,6.236-1.231,11.207l2.775,2.534l27.341-29.938c0,0-5.069-4.702-11.057-6.74c-1.523-0.518-2.559-1.932-2.598-3.541
				l-0.297-12.518L577.37,411.94z"/>
			<path style="fill:#33406E;" d="M589.242,428.62c-3.13-1.412-5.612,0.672-6.911,2.201c0.634,1.787,0.583,3.799-0.294,5.601
				l-4.369,8.975c0,0-6.674,6.236-1.231,11.207l2.775,2.534l27.341-29.938c0,0-4.571-4.241-10.159-6.413
				c-0.447-0.174-0.881-0.374-1.308-0.585l-2.541,5.296C591.952,428.732,590.489,429.182,589.242,428.62z"/>
			<path style="fill:#4E62A8;" d="M606.553,429.201c0,0-1.125-1.042-2.937-2.357l-27.179,29.76l2.775,2.534L606.553,429.201z"/>
		</g>
		<path style="fill:#33406E;" d="M545.154,224.628L515.799,339.31c0,0,4.365,37.6-2.06,87.796h-21.275l-8.539-70.924
			c-1.985-16.485-1.34-33.181,1.91-49.464l15.021-75.259L545.154,224.628z"/>
		<polyline style="fill:none;stroke:#232E57;stroke-width:0.75;stroke-miterlimit:10;" points="532.781,239.554 508.79,338.193 
			508.79,427.106 		"/>
		<path style="fill:#33406E;" d="M576.74,218.376l-0.564,114.464c0,0,13.221,20.383,19.626,83.01l-16.852,6.082l-26.111-71.063
			c-3.183-8.662-5.438-17.637-6.728-26.775l-13.33-94.432L576.74,218.376z"/>
		<path style="fill:#232E57;" d="M576.74,218.376l-32.094,8.24l0.509-1.988l-44.299,6.831l-2.254,11.295l34.18,5.825
			c0,0,20.596,13.396,43.739,14.363L576.74,218.376z"/>
		<path style="fill:#33406E;" d="M557.161,227.561c0,0,5.362,13.642,19.475,11.827l0.104-21.011L557.161,227.561z"/>
		<path style="fill:none;stroke:#232E57;stroke-width:0.75;stroke-miterlimit:10;" d="M570.739,236.916v95.36
			c0,0,20.593,71.083,20.737,85.136"/>
		
			<line style="fill:none;stroke:#4E62A8;stroke-width:0.5;stroke-miterlimit:10;" x1="536.649" y1="257.065" x2="532.781" y2="229.662"/>
		<path style="fill:none;stroke:#4E62A8;stroke-width:0.5;stroke-miterlimit:10;" d="M526.303,228.965
			c0,0-1.734,22.093,9.755,23.177"/>
		<path style="fill:#FF9587;" d="M482.899,180.365l-3.656,38.009L467.29,271.53l-1.116,7.254c-0.301,1.953,1.211,3.715,3.187,3.715
			h7.624c1.279,0,2.348-0.975,2.464-2.249l0.308-3.366c0.075-0.821-0.157-1.641-0.651-2.301l-0.285-0.381
			c0,0,0.663-2.653-0.559-5.117c-0.313-0.631-0.339-1.366-0.012-1.99l24.477-46.831l3.656-33.953L482.899,180.365z"/>
		<path style="fill:#DE5F50;" d="M506.384,186.311l-23.484-5.946l-0.432,4.49c-0.21,2.187,0.749,4.327,2.544,5.594
			c5.109,3.607,12.634,10.647,18.414,23.332L506.384,186.311z"/>
		<path style="fill:#70915E;" d="M496.249,137.174c-5.628,3.923-9.039,12.157-16.884,43.83l31.21,10.915L496.249,137.174z"/>
		<polygon style="fill:#4C693D;" points="494.97,186.462 498.296,149.453 507.095,188.338 		"/>
		<polygon style="fill:#9EBF8C;" points="477.489,178.105 509.211,186.706 508.187,193.966 475.954,184.708 		"/>
		<path style="fill:#70915E;" d="M531.809,119.07l22.107,3.815c8.784,1.516,16.923,5.598,23.391,11.732l22.705,21.531
			l-28.125,21.094l2.109,35.437l3.656,7.594l-10.266,2.531l-22.207,16.626c-2.798,2.095-6.602,2.232-9.543,0.345l-10.893-6.987
			l-5.144,6.82c-1.994,2.644-5.597,3.476-8.548,1.974l-13.133-6.685l5.625-18.562c0,0-2.391-3.938,0.141-6.188l-3.375-47.672
			l-4.219-25.313l18.844-12.516L531.809,119.07z"/>
		
			<line style="fill:none;stroke:#9EBF8C;stroke-width:0.75;stroke-miterlimit:10;" x1="547.478" y1="224.628" x2="572.349" y2="216.257"/>
		
			<line style="fill:none;stroke:#9EBF8C;stroke-width:0.75;stroke-miterlimit:10;" x1="554.666" y1="217.264" x2="572.89" y2="213.604"/>
		<path style="fill:#4C693D;" d="M528.414,116.905l2.436,0.748c2.997,0.92,5.618,2.782,7.472,5.31l4.834,6.589
			c1.964,2.677,1.67,6.388-0.69,8.722l-9.685,9.577l1.181,1.375c1.966,2.287,1.752,5.724-0.482,7.75l-9.476,8.594l-9.035-7.861
			c-1.961-1.706-2.38-4.589-0.985-6.783l1.785-2.808l-9.047-7.274c-1.806-1.452-2.221-4.034-0.962-5.978l7.797-12.045
			L528.414,116.905z"/>
		<polygon style="fill:#4C693D;" points="571.887,177.242 554.966,156.476 573.018,196.24 		"/>
		<path style="fill:none;stroke:#9EBF8C;stroke-width:0.75;stroke-miterlimit:10;" d="M553.606,151.086
			c-1.406-8.578,0.563-20.813,7.031-25.031"/>
		<path style="fill:#FF9587;" d="M571.789,174.896l14.976,19.299l-22.773,31.854l-4.336,5.803c0,0,4.147,7.016,13.362,7.534v-8.028
			c0,0,18.746-14.891,26.994-21.495c8.248-6.604,12.967-17.738,5.27-32.89c-7.697-15.152-10.359-19.941-10.359-19.941
			L571.789,174.896z"/>
		<path style="fill:#DE5F50;" d="M594.923,157.033l-23.134,17.864l8.662,11.163l18.181-22.033
			C595.966,158.909,594.923,157.033,594.923,157.033z"/>
		
			<line style="fill:none;stroke:#DE5F50;stroke-width:0.9884;stroke-miterlimit:10;" x1="586.765" y1="194.196" x2="593.644" y2="185.462"/>
		
			<line style="fill:none;stroke:#9EBF8C;stroke-width:0.75;stroke-miterlimit:10;" x1="524.005" y1="165.57" x2="524.744" y2="231.459"/>
		<path style="fill:#4E62A8;" d="M578.95,421.933l16.853-6.082c-0.275-2.688-0.563-5.292-0.862-7.826l-18.784,6.307L578.95,421.933z
			"/>
		<path style="fill:#4E62A8;" d="M491.48,418.935l0.984,8.171h21.275c0.354-2.766,0.67-5.486,0.961-8.171H491.48z"/>
		<path style="fill:none;stroke:#DE5F50;stroke-width:0.9884;stroke-miterlimit:10;" d="M472.564,268.787c0,0,1.969,4.688,0,10.453
			l2.672,0.216c0.895,0.072,1.522,0.914,1.336,1.792l-0.265,1.25"/>
		
			<line style="fill:none;stroke:#DE5F50;stroke-width:0.9884;stroke-miterlimit:10;" x1="478.821" y1="274.201" x2="473.433" y2="274.201"/>
		<path style="fill:none;stroke:#9EBF8C;stroke-width:0.9884;stroke-miterlimit:10;" d="M533.966,167.164l17.25-1.594
			c0,0,3.094,19.372-7.125,20.539C533.872,187.275,533.966,167.164,533.966,167.164z"/>
		<path style="fill:#293459;" d="M519.927,105.172c0,0,1.125-8.859,1.477-13.57c0.352-4.711-3.151-8.297-7.833-6.609
			c-3.135-4.219-9.745-2.953-11.432-0.07c-3.516-5.625-11.742-2.602-12.797,2.109c-7.875-2.32-11.531,7.664-6.469,13.148
			c5.063,5.484,13.865,1.993,13.865,1.993l23.049,6.304L519.927,105.172z"/>
		<path style="fill:#FF9587;" d="M508.88,98.349c0.979,2.744,3.616,7.046,10.555,7.244l10.828,13.641l0,0
			c1.74,0.474,2.811,2.219,2.448,3.985l-8.706,42.351l-11.056-35.734c-0.475-1.535-0.181-3.204,0.79-4.484l0,0l-3.164-6.117
			c0,0-5.578,4.711-10.667,1.705c-3.84-2.269-3.625-7.656-3.254-10.306c0.156-1.117,0.053-2.25-0.285-3.326l-1.728-5.51
			c-0.155-0.495,0.162-1.005,0.672-1.103c1.111-0.214,2.902-0.812,3.931-2.482c0.358-0.58,1.099-0.731,1.677-0.37
			c1.874,1.169,4.017,0.44,5.514-0.403C507.364,96.915,508.522,97.345,508.88,98.349z"/>
		<path style="fill:#DE5F50;" d="M510.575,119.234c2.203-1.477,4.547-6.211,4.969-8.508c1.399,1.884,1.094,4.516,0.641,6.286
			c-0.328,1.284-0.407,2.613-0.178,3.918c0.354,2.016,0.547,5.029-1.026,6.483L510.575,119.234z"/>
		<path style="fill:#FF9587;" d="M522.386,104.476c-0.646,2.299-2.806,3.703-4.825,3.136s-3.132-2.891-2.486-5.19
			c0.646-2.299,2.806-3.703,4.825-3.136C521.92,99.853,523.032,102.177,522.386,104.476z"/>
		
			<line style="fill:none;stroke:#DE5F50;stroke-width:0.9884;stroke-miterlimit:10;" x1="528.247" y1="126.054" x2="522.434" y2="133.789"/>
		<path style="fill:#FFFFFF;" d="M501.835,111.769l6.328-2.906c0,0,0.568,5.212-1.541,7.321
			C504.512,118.293,501.835,111.769,501.835,111.769z"/>
		<path style="fill:#293459;" d="M500.194,107.375c0,0.453-0.367,0.82-0.82,0.82c-0.453,0-0.82-0.367-0.82-0.82
			c0-0.453,0.367-0.82,0.82-0.82C499.827,106.554,500.194,106.922,500.194,107.375z"/>
		<circle style="fill:#293459;" cx="504.437" cy="105.734" r="0.82"/>
		<polyline style="fill:none;stroke:#DE5F50;stroke-width:0.5;stroke-miterlimit:10;" points="501.728,106.352 501.95,109.904 
			504.012,108.804 		"/>
		<path style="fill:none;stroke:#293459;stroke-width:0.9884;stroke-miterlimit:10;" d="M502.419,104.351
			c0,0,1.453-2.484,4.547-1.313"/>
		<path style="fill:none;stroke:#293459;stroke-width:0.9884;stroke-miterlimit:10;" d="M500.479,104.914
			c0,0-2.407-1.376-3.31,1.148"/>
		<path style="fill:none;stroke:#DE5F50;stroke-width:0.5;stroke-miterlimit:10;" d="M517.017,105.422
			c-0.922-3.044,1.713-4.927,3.296-3.397"/>
		<polygon style="fill:#9EBF8C;" points="569.109,175.125 597.709,152.16 602.86,157.686 574.046,180.276 		"/>
	</g>
</g>
</svg>
