<?xml version="1.0" encoding="utf-8"?>
<!-- Generator: Adobe Illustrator 27.5.0, SVG Export Plug-In . SVG Version: 6.00 Build 0)  -->
<svg version="1.1" xmlns="http://www.w3.org/2000/svg" xmlns:xlink="http://www.w3.org/1999/xlink" x="0px" y="0px"
	 viewBox="0 0 750 500" style="enable-background:new 0 0 750 500;" xml:space="preserve">
<!-- <g id="BACKGROUND">
	<rect style="fill:#FFFFFF;" width="750" height="500"/>
	<path style="fill:#F2E8E2;" d="M212.528,454.791h378.567c46.778-58.344,69.178-141.536,58.573-219.863
		c-4.262-31.477-14.854-64.109-37.708-82.294c-28.933-23.023-68.307-16.354-101.86-4.023
		c-33.553,12.331-67.513,29.62-102.506,24.851c-34.981-4.767-64.496-30.722-92.904-54.562c-28.408-23.84-60.26-47.424-95.472-46.214
		c-39.187,1.347-73.797,35.083-89.096,76.388s-13.842,88.561-4.762,132.204C139.049,347.084,169.752,408.113,212.528,454.791z"/>
	<g>
		<g>
			<g>
				<path style="fill:#DEC5B6;" d="M387.168,381.871c-88.869,0-161.169-72.3-161.169-161.169c0-88.869,72.3-161.169,161.169-161.169
					c88.869,0,161.169,72.3,161.169,161.169C548.337,309.571,476.037,381.871,387.168,381.871z M387.168,60.533
					c-88.317,0-160.169,71.852-160.169,160.169c0,88.317,71.852,160.169,160.169,160.169s160.169-71.852,160.169-160.169
					C547.337,132.385,475.486,60.533,387.168,60.533z"/>
			</g>
			<g>
				<g>
					<rect x="386.668" y="60.043" style="fill:#DEC5B6;" width="1" height="321.317"/>
				</g>
				<g>
					<path style="fill:#DEC5B6;" d="M329.365,372.232c-22.306-35.085-36.186-72.785-41.256-112.056
						c-4.056-31.415-2.514-63.895,4.583-96.54c12.082-55.577,36.433-92.864,36.678-93.234l0.834,0.551
						c-0.244,0.369-24.505,37.528-36.543,92.933c-11.104,51.11-13.778,128.651,36.548,207.809L329.365,372.232z"/>
				</g>
				<g>
					<path style="fill:#DEC5B6;" d="M444.971,372.232l-0.844-0.537c50.326-79.157,47.652-156.698,36.548-207.809
						c-12.038-55.405-36.3-92.564-36.543-92.933l0.834-0.551c0.245,0.37,24.596,37.657,36.678,93.234
						c7.097,32.645,8.639,65.125,4.583,96.54C481.158,299.447,467.277,337.147,444.971,372.232z"/>
				</g>
			</g>
			<g>
				<g>
					<rect x="241.426" y="152.484" style="fill:#DEC5B6;" width="291.483" height="1"/>
				</g>
				<g>
					<rect x="226.499" y="220.202" style="fill:#DEC5B6;" width="321.338" height="1"/>
				</g>
				<g>
					<rect x="241.427" y="287.919" style="fill:#DEC5B6;" width="291.483" height="1"/>
				</g>
			</g>
		</g>
	</g>
</g> -->
<g id="OBJECTS">
	<g>
		<g>
			<path style="fill:#F2E8E2;" d="M683.49,172.326L683.49,172.326c0-6.78-5.496-12.276-12.276-12.276l0,0
				c6.78,0,12.276-5.496,12.276-12.276h0c0,6.78,5.496,12.276,12.275,12.276l0,0C688.986,160.05,683.49,165.546,683.49,172.326z"/>
			<path style="fill:#F2E8E2;" d="M118.555,85.386L118.555,85.386c0-6.78-5.496-12.276-12.276-12.276l0,0
				c6.78,0,12.276-5.496,12.276-12.276l0,0c0,6.78,5.496,12.276,12.276,12.276l0,0C124.051,73.111,118.555,78.607,118.555,85.386z"
				/>
			<path style="fill:#F2E8E2;" d="M56.119,247.3L56.119,247.3c0-6.78-5.496-12.275-12.276-12.275l0,0
				c6.78,0,12.276-5.496,12.276-12.276l0,0c0,6.78,5.496,12.276,12.276,12.276l0,0C61.616,235.024,56.119,240.52,56.119,247.3z"/>
			<path style="fill:#F2E8E2;" d="M480.06,83.826L480.06,83.826c0-3.848-3.119-6.967-6.967-6.967l0,0
				c3.848,0,6.967-3.119,6.967-6.967l0,0c0,3.848,3.119,6.967,6.967,6.967l0,0C483.179,76.859,480.06,79.978,480.06,83.826z"/>
			<path style="fill:#F2E8E2;" d="M110.807,98.989L110.807,98.989c0-4.279-3.469-7.748-7.748-7.748l0,0
				c4.279,0,7.748-3.469,7.748-7.748l0,0c0,4.279,3.469,7.748,7.748,7.748l0,0C114.276,91.241,110.807,94.71,110.807,98.989z"/>
			<path style="fill:#F2E8E2;" d="M699.009,176.901L699.009,176.901c0-3.947-3.2-7.147-7.147-7.147l0,0
				c3.947,0,7.147-3.2,7.147-7.147l0,0c0,3.947,3.2,7.147,7.147,7.147l0,0C702.209,169.755,699.009,172.954,699.009,176.901z"/>
		</g>
	</g>
	<g>
		<g>
			<g>
				<path style="fill:#4A826B;" d="M649.146,260.47c6.611,24.829,4.708,51.842-5.318,75.499
					c-6.873,16.217-17.297,30.623-26.987,45.331c-9.69,14.708-18.859,30.19-22.724,47.373c-1.912,8.5-2.332,17.517-0.939,26.118
					h31.298c1.47-18.006,6.387-35.733,14.546-51.855c9.656-19.081,23.763-36.128,29.731-56.664
					C677.18,317.27,667.711,284.292,649.146,260.47z"/>
				<g>
					<g>
						<path style="fill:#476765;" d="M607.195,454.648c-0.572-7.876,0.339-15.847,2.428-23.478
							c2.081-7.642,5.175-14.975,8.781-22.012c7.232-14.1,16.574-26.921,24.365-40.61c1.96-3.414,3.833-6.877,5.56-10.411
							c1.735-3.531,3.235-7.166,4.633-10.839c2.686-7.389,4.581-15.056,5.763-22.832c1.112-7.787,1.453-15.688,1.011-23.552
							c-0.471-7.862-1.728-15.685-3.783-23.307c2.212,7.577,3.635,15.39,4.271,23.274c0.545,7.891,0.289,15.839-0.738,23.692
							c-1.07,7.848-3.007,15.574-5.67,23.037c-2.706,7.457-6.253,14.573-10.182,21.435c-7.9,13.708-17.215,26.516-24.551,40.466
							c-3.671,6.961-6.824,14.219-8.992,21.79C607.859,438.846,606.785,446.76,607.195,454.648z"/>
					</g>
				</g>
			</g>
			<g>
				<path style="fill:#4A826B;" d="M608.944,454.791c-8.544-19.589-8.193-42.708-4.171-64.012
					c4.711-24.952,13.921-48.938,17.787-74.035c3.866-25.097,1.606-52.77-14.238-72.614c7.23,25.012,1.264,52.964-5.832,78.015
					c-7.095,25.051-16.446,49.8-18.236,75.775c-1.46,21.188,5.742,41.392,19.542,56.872H608.944z"/>
				<g>
					<g>
						<path style="fill:#476765;" d="M598.685,444.025c-2.238-7.181-3.882-14.552-4.928-22.012
							c-1.017-7.464-1.425-15.014-1.24-22.552c0.374-15.076,3.261-30.099,8.463-44.263c2.584-7.084,5.558-13.998,8.26-21.004
							c2.712-6.999,5.122-14.121,6.673-21.452c1.557-7.329,2.226-14.846,2.066-22.344c-0.13-7.5-1.11-14.996-2.942-22.292
							c1.99,7.254,3.137,14.745,3.431,22.278c0.262,7.533-0.324,15.106-1.801,22.512c-1.445,7.421-3.902,14.592-6.577,21.625
							c-2.682,7.038-5.623,13.962-8.171,21.019c-5.249,14.053-8.1,28.958-8.637,43.946c-0.278,7.495,0.046,15.014,0.957,22.466
							C595.121,429.406,596.602,436.798,598.685,444.025z"/>
					</g>
				</g>
			</g>
			<g>
				<g>
					<g>
						<path style="fill:#476765;" d="M626.785,332.187c0.601-2.049,1.31-4.1,2.524-5.857c1.214-1.757,2.998-3.208,5.094-3.614
							c3.564-0.689,7.158,1.889,8.649,5.199c1.49,3.31,1.289,7.132,0.628,10.701c-1.293,6.985-4.216,13.539-7.823,19.62
							c-1.814,3.057-3.804,6.007-5.874,8.895c-1.483,2.069-4.061,7.183-6.399,8.075c-0.711-3.383-0.308-7.42-0.337-10.893
							c-0.029-3.642,0.014-7.285,0.204-10.922C623.824,346.234,624.764,339.078,626.785,332.187z"/>
					</g>
					<g>
						<path style="fill:#476765;" d="M629.652,381.216c5.39-5.553,12.153-9.983,19.72-11.607c2.476-0.531,5.054-0.758,7.54-0.274
							c2.486,0.484,4.881,1.729,6.425,3.736c2.76,3.587,2.218,8.937-0.259,12.725c-2.477,3.788-6.501,6.277-10.591,8.216
							c-7.041,3.337-14.683,5.39-22.443,6.079c-3.312,0.294-8.918,1.232-12.067-0.034c-1.85-0.743-0.224-2.183,0.645-3.69
							c0.94-1.631,1.915-3.242,2.94-4.822C623.945,387.872,626.599,384.362,629.652,381.216z"/>
					</g>
					<g>
						<path style="fill:#476765;" d="M611.617,399.445c-0.429-7.727-2.631-15.506-7.28-21.693c-1.521-2.024-3.32-3.886-5.514-5.15
							c-2.194-1.265-4.819-1.894-7.301-1.391c-4.436,0.9-7.534,5.294-8.148,9.778c-0.613,4.484,0.794,9.002,2.611,13.147
							c3.129,7.136,7.553,13.697,12.961,19.304c2.308,2.393,5.926,6.777,9.134,7.886c1.885,0.651,1.6-1.501,1.933-3.209
							c0.359-1.848,0.68-3.704,0.941-5.568C611.562,408.212,611.86,403.822,611.617,399.445z"/>
					</g>
					<g>
						<path style="fill:#476765;" d="M613.935,427.94c6.164-4.68,13.516-8.042,21.241-8.509c2.528-0.153,5.111,0.011,7.495,0.863
							s4.565,2.444,5.79,4.66c2.189,3.962,0.849,9.169-2.17,12.542c-3.019,3.373-7.372,5.228-11.707,6.529
							c-7.463,2.24-15.327,3.12-23.102,2.634c-3.319-0.208-9.001-0.124-11.925-1.849c-1.717-1.013,0.107-2.192,1.192-3.551
							c1.175-1.471,2.381-2.918,3.632-4.324C607.292,433.661,610.444,430.59,613.935,427.94z"/>
					</g>
					<g>
						<path style="fill:#476765;" d="M593.749,454.791l-0.877-0.478c17.926-32.847,29.925-67.925,35.663-104.261l0.988,0.156
							C623.766,386.657,611.73,421.845,593.749,454.791z"/>
					</g>
				</g>
			</g>
		</g>
		<g>
			<g>
				<path style="fill:#4A826B;" d="M238.762,454.791h4.45c4.669-18.543,6.013-38.809-2.686-55.722
					c-4.083-7.939-10.141-14.658-15.248-21.98c-13.878-19.897-20.623-44.662-18.753-68.848c-3.444,9.838-6.967,20.834-8.904,31.076
					c-1.937,10.242-2.31,20.936,0.394,31.002c2.81,10.461,8.791,19.772,15.189,28.513c6.399,8.74,13.338,17.158,18.483,26.69
					C236.527,434.484,239.727,444.697,238.762,454.791z"/>
				<g>
					<g>
						<path style="fill:#476765;" d="M235.929,447.409c0.495-2.473,0.812-4.973,0.967-7.482c0.114-2.512,0.054-5.027-0.15-7.528
							c-0.223-2.501-0.591-4.985-1.076-7.447c-0.509-2.457-1.144-4.886-1.87-7.288c-2.939-9.614-7.566-18.603-12.42-27.413
							c-4.787-8.853-9.885-17.61-13.692-26.997c-1.892-4.689-3.49-9.506-4.589-14.445c-0.518-2.476-0.921-4.974-1.181-7.487
							c-0.234-2.516-0.31-5.043-0.219-7.562c0.018,2.522,0.184,5.035,0.483,7.533c0.334,2.493,0.807,4.964,1.395,7.406
							c0.601,2.439,1.313,4.849,2.114,7.229c0.82,2.374,1.731,4.716,2.707,7.03c3.926,9.259,8.992,17.981,13.858,26.813
							c4.787,8.859,9.467,17.916,12.278,27.673c0.688,2.437,1.284,4.899,1.753,7.387c0.443,2.493,0.776,5.005,0.945,7.53
							c0.131,2.528,0.117,5.061-0.073,7.582C236.938,442.463,236.528,444.96,235.929,447.409z"/>
					</g>
				</g>
			</g>
			<g>
				<g>
					<path style="fill:#242A4B;" d="M114.717,258.683c0,0-16.001,20.852-11.406,47.746c0,0,29.617-26.383,35.574-28.425
						C144.843,275.961,122.037,260.129,114.717,258.683z"/>
					<path style="fill:#476765;" d="M154.878,368.614c2.116,10.397,5.85,20.759,12.883,28.704
						c6.318,7.137,14.854,11.859,22.308,17.8c12.752,10.163,22.396,24.16,27.406,39.673h26.467
						c1.361-12.102,2.437-24.849-2.774-35.814c-9.452-19.89-35.459-26.207-48.279-44.112c-18.091-25.267-3.956-63.829-21.751-89.305
						c-6.126-8.77-15.471-14.885-25.4-18.867c-9.928-3.982-20.513-6.007-31.021-8.009c19.662,21.685,30.867,49.552,35.658,78.428
						C152.111,347.578,152.762,358.217,154.878,368.614z"/>
				</g>
				<g>
					<g>
						<path style="fill:#4A826B;" d="M229.338,454.324c-1.645-8.677-5.327-16.824-9.93-24.289
							c-4.588-7.504-10.076-14.41-15.76-21.121c-5.695-6.709-11.517-13.339-16.849-20.384c-5.319-7.035-10.131-14.561-13.477-22.788
							c-3.339-8.221-5.361-16.876-7.026-25.529c-1.659-8.663-3.001-17.37-4.886-25.957c-1.913-8.566-4.526-17.026-8.504-24.865
							c-3.925-7.825-9.397-15.035-16.622-20.138c7.319,4.966,12.962,12.109,17.057,19.913c4.094,7.845,6.805,16.332,8.819,24.919
							c2.012,8.6,3.328,17.324,5.029,25.954c1.689,8.623,3.734,17.21,7.058,25.325c3.275,8.133,8.01,15.602,13.278,22.62
							c5.268,7.035,11.098,13.642,16.71,20.439c5.622,6.783,11.068,13.769,15.59,21.362
							C224.311,437.367,227.854,445.618,229.338,454.324z"/>
					</g>
				</g>
			</g>
			<g>
				<path style="fill:#4A826B;" d="M172.735,432.425c6.648,6.073,12.214,13.787,14.583,22.366h30.979
					c-3.833-24.578-19.872-47.024-42.01-58.423c-11.238-5.787-23.872-8.894-34.272-16.078c-8.483-5.86-15.043-14.174-20.085-23.167
					c-5.042-8.993-8.658-18.702-12.165-28.397c-1.572,10.508-3.666,22.586-2.414,33.137c1.251,10.551,4.657,20.993,10.924,29.572
					c6.738,9.223,16.392,15.852,26.141,21.804C154.165,419.19,164.302,424.721,172.735,432.425z"/>
				<g>
					<g>
						<path style="fill:#476765;" d="M111.864,352.149c2.204,5.631,4.982,11.041,8.465,15.969c1.721,2.475,3.576,4.856,5.572,7.112
							c2.009,2.245,4.149,4.369,6.406,6.359c4.504,3.999,9.562,7.311,14.816,10.258c5.26,2.947,10.739,5.503,16.186,8.144
							c5.433,2.666,10.855,5.414,15.992,8.671c5.133,3.251,9.912,7.135,13.92,11.735c3.96,4.638,7.079,9.952,9.352,15.581
							c2.243,5.643,3.692,11.591,4.289,17.613c-0.822-5.992-2.363-11.885-4.742-17.425c-2.346-5.546-5.508-10.755-9.48-15.263
							c-4.036-4.446-8.715-8.289-13.827-11.471c-5.102-3.2-10.507-5.903-15.943-8.542c-5.425-2.664-10.908-5.255-16.192-8.25
							c-1.315-0.758-2.643-1.494-3.92-2.32l-1.933-1.207l-1.88-1.293c-2.522-1.7-4.902-3.611-7.148-5.66
							C122.755,374.022,115.833,363.584,111.864,352.149z"/>
					</g>
				</g>
			</g>
		</g>
	</g>
	<g>
		<g>
			<g>
				<path style="fill:#D48F65;" d="M535.091,315.555l0.741,125.531h22.327c0,0,7.78-69.28,13.113-125.531H535.091z"/>
				<g>
					<g>
						<path style="fill:#F9D6B0;" d="M535.091,410.001l-0.108-13.34h28.575l-2.17,17.17
							C561.387,413.831,540.518,419.193,535.091,410.001z"/>
						<g>
							<g>
								<g>
									<path style="fill:#DBAE7D;" d="M539.238,398.64c0.394,1.231,0.483,2.461,0.5,3.692c-0.015,1.231-0.103,2.461-0.5,3.692
										c-0.396-1.231-0.485-2.461-0.5-3.692C538.755,401.101,538.844,399.87,539.238,398.64z"/>
								</g>
								<g>
									<path style="fill:#DBAE7D;" d="M549.27,398.64c0.394,1.231,0.483,2.461,0.5,3.692c-0.015,1.231-0.103,2.461-0.5,3.692
										c-0.396-1.231-0.485-2.461-0.5-3.692C548.787,401.101,548.876,399.87,549.27,398.64z"/>
								</g>
								<g>
									<path style="fill:#DBAE7D;" d="M559.302,398.64c0.394,1.231,0.483,2.461,0.5,3.692c-0.015,1.231-0.103,2.461-0.5,3.692
										c-0.396-1.231-0.485-2.461-0.5-3.692C558.819,401.101,558.908,399.87,559.302,398.64z"/>
								</g>
							</g>
						</g>
					</g>
					<g>
						<path style="fill:#242A4B;" d="M534.26,441.086l0.42-32.41c0.003-0.265,0.161-0.499,0.409-0.593
							c1.101-0.418,4.361-1.307,8.618,0.684c0,0,7.291,5.277,9.475,5.021c1.684-0.197,5.913-1.304,7.763-1.801
							c0.433-0.116,0.845,0.236,0.803,0.683l-2.582,27.671c0,0,2.479,9.699-0.031,13.833c-0.233,0.384-0.652,0.617-1.102,0.617
							h-48.268c-0.523,0-0.989-0.317-1.187-0.801c-0.546-1.336-1.034-3.969,2.958-4.967
							C516.983,447.661,534.26,441.086,534.26,441.086z"/>
						<g>
							<g>
								<path style="fill:#3E4982;" d="M543.706,408.767c-0.011,4.67-0.174,9.334-0.401,13.997
									c-0.233,4.663-0.581,9.318-1.083,13.976c-0.143,1.163-0.311,2.324-0.526,3.488c-0.106,0.582-0.237,1.165-0.41,1.757
									l-0.167,0.456c-0.079,0.155-0.179,0.362-0.296,0.484c-0.244,0.235-0.491,0.494-0.754,0.642
									c-1.036,0.695-2.123,1.165-3.227,1.591c-1.099,0.441-2.227,0.781-3.36,1.099c-2.268,0.62-4.577,1.082-6.911,1.34
									c-2.328,0.206-4.725,0.293-6.992-0.319c2.307,0.387,4.644,0.198,6.929-0.167c2.29-0.353,4.552-0.893,6.758-1.592
									c1.098-0.362,2.194-0.732,3.258-1.164c1.063-0.422,2.124-0.91,3.017-1.528c0.248-0.145,0.391-0.327,0.573-0.489
									c0.082-0.088,0.095-0.162,0.153-0.26l0.128-0.367c0.146-0.529,0.267-1.086,0.361-1.653c0.195-1.132,0.344-2.282,0.475-3.436
									c0.581-4.61,0.914-9.263,1.31-13.907L543.706,408.767z"/>
							</g>
						</g>
					</g>
				</g>
			</g>
			<g>
				<path style="fill:#D48F65;" d="M478.699,315.555c-7.854,56.76-15.07,127.031-15.07,127.031l20.194-1.5l31.399-125.531H478.699z"
					/>
				<g>
					<g>
						<path style="fill:#F9D6B0;" d="M465.962,409.491l2.043-16.979l27.702,3.638l-4.149,17.234
							C491.557,413.384,478.983,425.959,465.962,409.491z"/>
						<g>
							<g>
								<g>
									<path style="fill:#DBAE7D;" d="M471.449,397.214c0.21,1.275,0.118,2.505-0.045,3.725c-0.194,1.215-0.462,2.42-1.034,3.579
										c-0.212-1.275-0.12-2.506,0.045-3.725C470.612,399.578,470.879,398.373,471.449,397.214z"/>
								</g>
								<g>
									<path style="fill:#DBAE7D;" d="M481.373,398.679c0.21,1.275,0.118,2.505-0.045,3.725c-0.194,1.215-0.462,2.42-1.034,3.579
										c-0.213-1.275-0.12-2.506,0.045-3.725C480.536,401.043,480.804,399.839,481.373,398.679z"/>
								</g>
								<g>
									<path style="fill:#DBAE7D;" d="M491.298,400.145c0.21,1.275,0.118,2.505-0.045,3.725c-0.194,1.215-0.462,2.42-1.034,3.579
										c-0.212-1.275-0.12-2.506,0.045-3.725C490.46,402.509,490.728,401.305,491.298,400.145z"/>
								</g>
							</g>
						</g>
					</g>
					<g>
						<path style="fill:#242A4B;" d="M462.906,441.086l2.413-32.41c0.003-0.265,0.161-0.499,0.409-0.593
							c1.101-0.418,4.361-1.307,8.618,0.684c0,0,7.291,5.277,9.475,5.021c1.684-0.197,5.913-1.304,7.763-1.801
							c0.434-0.116,0.845,0.236,0.803,0.683l-4.575,27.671c0,0,2.48,9.699-0.031,13.833c-0.233,0.384-0.652,0.617-1.102,0.617
							h-48.268c-0.523,0-0.989-0.317-1.187-0.801c-0.546-1.336-1.034-3.969,2.958-4.967
							C445.629,447.661,462.906,441.086,462.906,441.086z"/>
						<g>
							<g>
								<path style="fill:#3E4982;" d="M474.346,408.767c-0.318,4.696-0.796,9.376-1.344,14.049
									c-0.558,4.673-1.227,9.331-2.097,13.975c-0.24,1.158-0.494,2.313-0.823,3.466c-0.183,0.579-0.336,1.147-0.639,1.741
									c-0.053,0.141-0.188,0.313-0.299,0.466c-0.12,0.143-0.258,0.223-0.388,0.335c-0.263,0.231-0.533,0.366-0.802,0.519
									c-1.078,0.592-2.184,1.022-3.302,1.426c-1.115,0.408-2.245,0.76-3.386,1.069c-2.278,0.63-4.579,1.165-6.905,1.57
									c-1.164,0.193-2.337,0.347-3.516,0.433c-1.17,0.067-2.383,0.163-3.52-0.196c1.156,0.251,2.338,0.063,3.493-0.068
									c1.159-0.159,2.309-0.385,3.45-0.65c2.287-0.498,4.551-1.113,6.778-1.826c2.201-0.748,4.478-1.447,6.456-2.547
									c0.241-0.14,0.495-0.275,0.671-0.442c0.089-0.08,0.215-0.153,0.278-0.237c0.05-0.092,0.114-0.143,0.165-0.28
									c0.229-0.457,0.387-1.031,0.548-1.573c0.303-1.112,0.537-2.258,0.764-3.403c0.944-4.583,1.598-9.241,2.318-13.881
									L474.346,408.767z"/>
							</g>
						</g>
					</g>
				</g>
			</g>
		</g>
		<g>
			<g>
				<g>
					<path style="fill:#D48F65;" d="M525.519,145.161c0.857,0.651,1.806,1.278,2.809,1.868c6.527-0.827,13.213-1.091,18.606-5.783
						c1.769-1.539,3.102-3.368,4.138-5.371c1.308-4.534,2.313-9.078,3.08-13.685c-1.742-0.294-3.27-0.765-4.581-1.366
						c-3.32-10.353-0.087-29.892,0.338-32.382c0.02-0.09,0.03-0.17,0.05-0.26l-26.8,15.07c0.45,0.75,0.7,1.77,0.81,2.95v0.01
						c0.24,2.39-0.1,5.43-0.58,8.2c-0.55,3.135-1.283,5.909-1.587,7.006c-2.095,2.528-4.834,3.868-8.475,5.821
						C516.674,133.703,519.286,140.43,525.519,145.161z"/>
					<path style="fill:#CF7B57;" d="M523.389,114.413c14.57,1.84,21.95-15.56,22.22-16.21c-2.69,4.27-6.59,6.43-10.4,7.46
						c-4.69,1.28-9.24,0.85-11.15,0.57c-0.03-0.01-0.06-0.01-0.09-0.02C524.209,108.603,523.869,111.643,523.389,114.413z"/>
				</g>
				<g>
					<path style="fill:#4A826B;" d="M575.149,273.154c-0.02,0.34-0.03,0.68-0.05,1.02c-0.2,4.09-0.43,8.2-0.66,12.21
						c-0.02,0.36-0.04,0.72-0.06,1.08c-1.21,20.39-2.67,37.98-2.67,37.98h-95.15c0,0,0.25-3.76,0.93-10.05
						c0.04-0.37,0.08-0.75,0.13-1.14c1.7-15.55,5.8-44.79,14.46-71.55c0.1-0.32,0.2-0.64,0.31-0.95c0.92-2.83,1.9-5.62,2.93-8.36
						c0.13-0.34,0.26-0.68,0.39-1.02c4.53-11.82,10.08-22.68,16.85-31.01c0,0-6.34-23.51-9.54-35.41v-0.01
						c-0.24-0.89-0.47-1.72-0.67-2.47c-0.69-2.56-1.12-4.17-1.13-4.24c-0.07-0.34-3.83-16.41,3.71-25.39
						c7.54-8.99,16.73-11.92,16.73-11.92s2.3,18.42,8.86,18.59c6.55,0.17,19.44-20.26,19.44-20.26s3.02,1.46,8.64,1.67
						c0,0,9.96,7.61,12.43,15.52c2.46,7.92-6.39,36-6.39,36l-5.1,26.71c0,0,0.87,1.03,2.21,2.81c0.19,0.26,0.4,0.53,0.61,0.82
						c3.68,4.99,9.93,14.47,12.5,24.22c0.54,2.06,0.86,5.58,1.01,10.09c0.01,0.33,0.02,0.67,0.03,1.02
						C576.139,248.044,575.759,260.484,575.149,273.154z"/>
					<g style="opacity:0.5;">
						<g>
							<g>
								<path style="fill:#4A826B;" d="M528.759,269.304c0.31,8.61-5.06,17.01-16.43,25.69c-10.78,8.23-22.46,15.07-34.84,20.4
									c0.04-0.37,0.08-0.75,0.13-1.14c12.11-5.28,23.54-11.99,34.1-20.05c11.1-8.47,16.34-16.6,16.04-24.86
									c-0.42-11.37-11.51-19.31-20.88-22.65c-4.4-1.57-9.07-2.65-13.57-3.7c-0.41-0.1-0.82-0.19-1.23-0.29
									c0.1-0.32,0.2-0.64,0.31-0.95c0.38,0.09,0.76,0.18,1.14,0.27c4.54,1.05,9.23,2.14,13.68,3.73
									C516.879,249.194,528.319,257.434,528.759,269.304z"/>
							</g>
							<g>
								<path style="fill:#4A826B;" d="M554.419,303.144c-0.42,3.19,0.69,6.76,3.29,10.62c3.31,4.93,8,8.94,13.34,11.68h-2.24
									c-4.72-2.75-8.84-6.54-11.93-11.12c-2.74-4.07-3.91-7.87-3.46-11.31c0.71-5.46,5.13-9.92,13.52-13.64
									c2.46-1.09,4.96-2.09,7.5-2.99c-0.02,0.36-0.04,0.72-0.06,1.08c-2.38,0.86-4.73,1.8-7.04,2.83
									C559.309,293.854,555.079,298.054,554.419,303.144z"/>
							</g>
							<g>
								<path style="fill:#4A826B;" d="M575.899,239.114c-5.15-0.3-10.34-1.29-14.95-3.76c-7.31-3.9-13.22-13-10.46-21.47
									c1.77-5.44,6.52-9.01,11.26-10.92c0.19,0.26,0.4,0.53,0.61,0.82c-4.58,1.79-9.22,5.2-10.92,10.4
									c-2.59,7.98,3.04,16.58,9.98,20.29c4.43,2.37,9.45,3.33,14.45,3.62C575.879,238.424,575.889,238.764,575.899,239.114z"/>
							</g>
							<g>
								<path style="fill:#4A826B;" d="M521.659,223.994c-2.6,3.42-6.72,5.14-10.02,6.26c-5.29,1.8-10.79,2.85-16.32,3.14
									c0.13-0.34,0.26-0.68,0.39-1.02c5.3-0.32,10.55-1.34,15.61-3.06c3.16-1.08,7.11-2.72,9.54-5.93
									c2.58-3.4,3.34-8.31,2.3-15.01c-2.45-15.81-10.42-29.67-20.14-42.42v-0.01c-0.24-0.89-0.47-1.72-0.67-2.47
									c10.27,13.23,19.22,28.09,21.8,44.75C525.229,215.204,524.409,220.364,521.659,223.994z"/>
							</g>
							<g>
								<path style="fill:#4A826B;" d="M575.149,273.154c-0.02,0.34-0.03,0.68-0.05,1.02c-3.07,0.42-6.11,0.99-9.12,1.75
									c-12.31,3.12-22.39,9.39-28.37,17.67c-4.33,6-7.17,13.68-8.93,24.18c-0.45,2.64-0.78,5.19-1.01,7.67h-1
									c0.23-2.53,0.57-5.14,1.02-7.84c1.79-10.65,4.69-18.46,9.11-24.59c6.12-8.47,16.39-14.89,28.93-18.06
									C568.829,274.174,571.979,273.584,575.149,273.154z"/>
							</g>
						</g>
					</g>
					<g>
						<g>
							<g>
								<path style="fill:#295744;" d="M523.094,235.794c1.363,3.734,2.94,7.324,4.912,10.711c1.949,3.4,4.27,6.56,6.821,9.608
									c-3.112-2.487-5.677-5.652-7.687-9.109C525.154,243.534,523.695,239.732,523.094,235.794z"/>
							</g>
							<g>
								<path style="fill:#295744;" d="M518.824,238.328c1.084,3.563,2.185,7.111,3.39,10.622c1.216,3.507,2.478,6.994,3.858,10.437
									c1.358,3.451,2.833,6.854,4.355,10.239c0.765,1.691,1.557,3.37,2.368,5.042l1.212,2.511
									c0.422,0.828,0.835,1.662,1.239,2.501c-1.012-1.565-1.945-3.176-2.886-4.786c-0.902-1.63-1.775-3.277-2.628-4.936
									c-1.694-3.323-3.203-6.74-4.59-10.203c-1.365-3.472-2.612-6.993-3.659-10.572
									C520.426,245.607,519.508,241.99,518.824,238.328z"/>
							</g>
							<g>
								<path style="fill:#295744;" d="M478.951,319.491c7.575-0.206,15.151-0.303,22.726-0.383l22.726-0.117l22.726,0.115
									l11.363,0.14l11.363,0.245l-11.363,0.245l-11.363,0.14l-22.726,0.115l-22.726-0.117
									C494.102,319.793,486.527,319.697,478.951,319.491z"/>
							</g>
						</g>
					</g>
				</g>
			</g>
			<g>
				<g>
					
						<rect x="437.496" y="134.624" transform="matrix(0.977 -0.2134 0.2134 0.977 -24.9637 108.0817)" style="fill:#F9D6B0;" width="101.447" height="70.128"/>
					<g>
						<g>
							<path style="fill:#FFFFFF;" d="M487.823,190.898c-4.452,0-8.806-1.308-12.596-3.833c-5.069-3.377-8.521-8.525-9.717-14.498
								c-2.47-12.329,5.55-24.369,17.879-26.84c5.971-1.197,12.053,0.004,17.123,3.381c5.069,3.377,8.52,8.525,9.717,14.498
								c2.47,12.329-5.55,24.369-17.879,26.84C490.842,190.748,489.327,190.898,487.823,190.898z M487.915,146.112
								c-1.448,0-2.908,0.144-4.361,0.435c-11.876,2.38-19.603,13.979-17.223,25.855c1.152,5.753,4.477,10.713,9.36,13.966
								c4.883,3.253,10.738,4.41,16.495,3.257c11.876-2.38,19.603-13.979,17.223-25.855c-1.152-5.753-4.477-10.713-9.36-13.966
								C496.398,147.373,492.204,146.112,487.915,146.112z"/>
						</g>
						<g>
							<g>
								
									<rect x="487.451" y="145.702" transform="matrix(0.9805 -0.1965 0.1965 0.9805 -23.5171 99.1416)" style="fill:#FFFFFF;" width="0.837" height="44.769"/>
							</g>
							<g>
								<path style="fill:#FFFFFF;" d="M483.87,190.611c-17.524-18.288-8.428-41.375-8.334-41.606l0.775,0.315
									c-0.092,0.227-8.98,22.824,8.162,40.712L483.87,190.611z"/>
							</g>
							<g>
								<path style="fill:#FFFFFF;" d="M500.24,187.331l-0.781-0.302c8.933-23.128-7.981-40.54-8.153-40.713l0.594-0.59
									C492.075,145.903,509.365,163.703,500.24,187.331z"/>
							</g>
						</g>
						<g>
							<g>
								
									<rect x="465.71" y="158.417" transform="matrix(0.9806 -0.1961 0.1961 0.9806 -21.7141 98.4169)" style="fill:#FFFFFF;" width="40.612" height="0.837"/>
							</g>
							<g>
								
									<rect x="465.484" y="167.668" transform="matrix(0.9806 -0.196 0.196 0.9806 -23.4855 98.9073)" style="fill:#FFFFFF;" width="44.771" height="0.837"/>
							</g>
							<g>
								
									<rect x="469.417" y="176.919" transform="matrix(0.9806 -0.196 0.196 0.9806 -25.2632 99.4502)" style="fill:#FFFFFF;" width="40.612" height="0.837"/>
							</g>
						</g>
					</g>
				</g>
				<path style="fill:#D48F65;" d="M450.339,207.303c-4.444,0.69-8.92-1.228-11.374-4.996c-1.21-1.858-2.126-3.928-2.007-5.837
					c0.336-5.408,3.929-5.696,3.929-5.696l0.971,4.358c0,0,11.348-4.503,12.262-3.207c0.915,1.297-5.418,5.651-5.418,5.651
					s9.634-3.409,9.732-2.364c0.098,1.045-7.817,5.768-7.817,5.768s9.048-2.308,9.311-1.111c0.263,1.196-8.049,4.395-8.049,4.395
					s6.27-0.783,6.227,0.796C458.083,205.905,454.069,206.724,450.339,207.303z"/>
			</g>
			<g>
				<g>
					<g>
						<path style="fill:#F06D55;" d="M589.387,238.613l-2-0.021c0.434-41.189-13.678-99.49-27.454-113.421
							c-1.887-1.908-3.681-2.877-5.334-2.877l0.002-2c2.206,0.001,4.479,1.169,6.755,3.471
							C575.417,137.984,589.825,197.018,589.387,238.613z"/>
					</g>
				</g>
				<g>
					<g>
						<g>
							<path style="fill:#F06D55;" d="M538.366,238.629c-0.298-11.396-2.439-111.525,13.913-117.894
								c0.754-0.293,1.533-0.442,2.317-0.442c0.002,0,0.003,0,0.005,0l-0.002,2c-0.001,0-0.002,0-0.003,0
								c-0.543,0-1.064,0.1-1.592,0.306c-12.727,4.957-13.438,85.4-12.639,115.978L538.366,238.629z"/>
						</g>
					</g>
					<g>
						<g>
							<g>
								<path style="fill:#F06D55;" d="M538.645,235.895c-1.287,3.159-2.002,6.612-2.002,10.234
									c0,14.994,12.155,27.149,27.149,27.149c14.994,0,27.149-12.155,27.149-27.149c0-3.622-0.715-7.075-2.002-10.234H538.645z"/>
							</g>
						</g>
						<g>
							<g>
								<path style="fill:#FFFFFF;" d="M576.605,262.766H564.84v-1.97h10.059l-3.563-6.171l1.706-0.985l4.416,7.648
									c0.176,0.305,0.176,0.68,0,0.985C577.282,262.579,576.957,262.766,576.605,262.766z"/>
							</g>
							<g>
								<path style="fill:#FFFFFF;" d="M560.816,262.766h-9.838c-0.352,0-0.677-0.188-0.853-0.492c-0.175-0.305-0.175-0.68,0-0.985
									l7.02-12.159l1.706,0.985l-6.167,10.682h8.132V262.766z"/>
							</g>
							<g>
								<path style="fill:#FFFFFF;" d="M568.949,250.492l-5.158-8.934l-3.346,5.795l-1.706-0.985l4.199-7.273
									c0.176-0.305,0.501-0.492,0.853-0.492l0,0c0.352,0,0.677,0.188,0.853,0.492l6.011,10.411L568.949,250.492z"/>
							</g>
							<g>
								<polygon style="fill:#FFFFFF;" points="562.09,261.781 566.246,264.181 566.246,259.381 								"/>
							</g>
							<g>
								<polygon style="fill:#FFFFFF;" points="559.198,247.524 555.111,250.04 559.333,252.321 								"/>
							</g>
							<g>
								<polygon style="fill:#FFFFFF;" points="571.223,252.436 571.26,247.636 567.085,250.004 								"/>
							</g>
						</g>
					</g>
				</g>
				<g>
					<path style="fill:#D48F65;" d="M581.329,203.024c-0.09,0.02-0.17,0.04-0.26,0.06c-16.15,3.53-33.57,5.6-50.97,4.54v0.01
						l-0.21-0.02c-1.25-0.08-7.1-0.67-7.1-0.67c-3.87,2.43-11.92,2.72-11.92,2.72c-2,0.08-2.49-1.79-2.49-1.79
						c-1.93,0.6-3.72-1.49-3.72-1.49c-1.7,0-1.19-2.57-1.19-2.57s-3.58,0.57-4.23-0.45c-0.65-1.02,13.63-3.45,13.66-4.5
						c0.03-1.05-4.03-2.78-4.93-2.53c-0.91,0.24-3.01-1.99,1.66-2.34c4.68-0.35,12.53,3.26,12.53,3.26s29.24-9.73,48.24-16.2
						c-2.24-4.57-4.41-8.97-6.47-13.07c4.25-0.78,10.1-4.51,14.79-7.97c0.27-0.2,0.55-0.4,0.81-0.6c2.94-2.2,5.34-4.21,6.43-5.15
						c2.99,5.45,6.17,11.57,9.33,18.24c0.16,0.35,0.33,0.7,0.49,1.05C601.49,185.734,594.459,200.144,581.329,203.024z"/>
					<g>
						<path style="fill:#4A826B;" d="M586.599,153.704c0,0-0.23,0.2-0.64,0.56c-1.09,0.94-3.49,2.95-6.43,5.15
							c-0.26,0.2-0.54,0.4-0.81,0.6c-4.69,3.46-10.54,7.19-14.79,7.97c-0.22,0.04-0.44,0.08-0.65,0.1l-15.57-29.02
							c0,0,0.97-13.83,6.44-16.87c0,0,5.38-0.41,11.71,4.65c0.3,0.23,0.59,0.47,0.89,0.74c0.46,0.39,0.92,0.81,1.38,1.27
							C575.389,136.024,586.599,153.704,586.599,153.704z"/>
						<g>
							<g>
								<path style="fill:#295744;" d="M563.987,168.086c-0.485,0.243-0.974,0.477-1.467,0.7l-0.096,0.043l-0.069-0.104
									c-1.105-1.655-2.107-3.367-3.146-5.059c-1.007-1.709-1.99-3.432-2.946-5.17c-0.951-1.741-1.898-3.483-2.777-5.264
									c-0.897-1.77-1.772-3.553-2.567-5.38c1.131,1.641,2.181,3.326,3.209,5.024c1.047,1.687,2.025,3.413,3,5.14
									c0.97,1.73,1.913,3.475,2.831,5.234c0.887,1.776,1.81,3.532,2.631,5.345l-0.164-0.06
									C562.942,168.376,563.462,168.226,563.987,168.086z"/>
							</g>
						</g>
						<g style="opacity:0.5;">
							<g>
								<path style="fill:#4A826B;" d="M579.529,159.414c-0.26,0.2-0.54,0.4-0.81,0.6c-5.98-5.73-10.14-12.24-12.09-18.99
									c-1.36-4.72-1.59-9.63-0.77-14.18c0.3,0.23,0.59,0.47,0.89,0.74c-0.68,4.24-0.42,8.78,0.84,13.16
									C569.509,147.364,573.609,153.774,579.529,159.414z"/>
							</g>
						</g>
					</g>
				</g>
			</g>
		</g>
		<g>
			<g>
				<path style="fill:#D48F65;" d="M509.581,91.675c0,0.33,0.01,0.66,0.01,0.99c0.01,1.43,0.06,2.88,0.53,4.23
					c1.83,5.17,9.2,8.36,14.18,9.39c6.4,1.33,12.84-0.34,17.86-4.52c3.99-3.31,6.57-7.98,7.67-13.04c1.14,0.1,2.75-0.17,3.12-0.31
					c1.44-0.55,2.79-1.74,3.62-3.03c1-1.54,1.38-3.52,0.82-5.27c-0.7-2.21-3.05-3.97-5.39-3.39c-0.16,0.04-0.41,0.14-0.68,0.28
					c0.31-7.69-0.82-16.11-6.16-20.75c-11.5-10-28-6.5-31.5,2.5c-2.72,6.99-3.69,15.11-3.98,23.02
					C509.551,85.145,509.541,88.485,509.581,91.675z"/>
				<g>
					<g>
						<path style="fill:#CF7B57;" d="M509.581,91.675c0.42,0.11,0.86,0.17,1.31,0.17c2.82,0,5.11-2.29,5.11-5.11
							c0-2.82-2.29-5.11-5.11-5.11c-0.42,0-0.82,0.05-1.21,0.15C509.551,85.145,509.541,88.485,509.581,91.675z"/>
						<path style="fill:#CF7B57;" d="M541.446,86.734c0,2.824-2.289,5.113-5.113,5.113c-2.824,0-5.113-2.289-5.113-5.113
							c0-2.824,2.289-5.113,5.113-5.113C539.157,81.622,541.446,83.911,541.446,86.734z"/>
					</g>
					<g>
						<g>
							<path style="fill:#3D1525;" d="M518.692,76.814c0,1.67-0.661,3.023-1.477,3.023c-0.815,0-1.476-1.353-1.476-3.023
								c0-1.669,0.661-3.023,1.476-3.023C518.031,73.791,518.692,75.144,518.692,76.814z"/>
							<path style="fill:#3D1525;" d="M514.201,72.835c0.25,0.489,0.577,0.916,0.999,1.29c0.417,0.373,0.949,0.662,1.545,0.799
								l0.025,0.006c0.294,0.067,0.587-0.116,0.655-0.41c0.068-0.294-0.116-0.588-0.41-0.655c-0.047-0.011-0.098-0.015-0.144-0.014
								c-0.826,0.033-1.743-0.47-2.368-1.199l-0.011-0.012c-0.063-0.074-0.175-0.083-0.249-0.019
								C514.181,72.675,514.165,72.764,514.201,72.835z"/>
						</g>
						<g>
							<path style="fill:#3D1525;" d="M528.527,76.814c0,1.67,0.661,3.023,1.477,3.023c0.815,0,1.477-1.353,1.477-3.023
								c0-1.669-0.661-3.023-1.477-3.023C529.188,73.791,528.527,75.144,528.527,76.814z"/>
							<path style="fill:#3D1525;" d="M532.716,72.652c-0.626,0.729-1.542,1.232-2.368,1.199c-0.302-0.012-0.556,0.223-0.568,0.525
								c-0.012,0.302,0.223,0.556,0.525,0.568c0.049,0.002,0.096-0.003,0.141-0.013l0.028-0.006
								c0.596-0.137,1.128-0.427,1.545-0.799c0.422-0.374,0.749-0.801,0.999-1.29c0.044-0.087,0.01-0.193-0.077-0.237
								c-0.074-0.038-0.162-0.018-0.214,0.042L532.716,72.652z"/>
						</g>
					</g>
					<g>
						<path style="fill:#3D1525;" d="M518.066,85.959c0.512,0.997,1.291,1.857,2.226,2.531c0.933,0.674,2.101,1.107,3.305,1.097
							c1.196-0.03,2.37-0.437,3.29-1.135c0.482-0.316,0.859-0.757,1.275-1.134c0.348-0.447,0.687-0.895,0.991-1.358
							c-0.456,0.334-0.872,0.689-1.29,1.034c-0.465,0.282-0.88,0.63-1.35,0.866c-0.917,0.525-1.92,0.813-2.92,0.83
							c-1.005,0.024-2.006-0.294-2.931-0.792C519.74,87.387,518.872,86.727,518.066,85.959z"/>
						<path style="fill:#3D1525;" d="M522.055,91.318c0.421,0.374,0.998,0.509,1.554,0.527c0.558-0.018,1.127-0.169,1.556-0.527
							c-0.546,0.087-1.042,0.194-1.556,0.175C523.095,91.513,522.592,91.424,522.055,91.318z"/>
					</g>
					<g>
						<path style="fill:#B06E53;" d="M527.3,66.329c0.689-0.611,1.469-0.811,2.288-0.847c0.812-0.019,1.646,0.077,2.437,0.346
							c0.797,0.243,1.532,0.691,2.146,1.229c0.64,0.518,1.09,1.203,1.465,1.878c0.19,0.341,0.067,0.772-0.275,0.961
							c-0.273,0.152-0.603,0.103-0.821-0.097l-0.06-0.055c-0.481-0.442-0.942-0.857-1.458-1.158
							c-0.496-0.334-1.053-0.517-1.61-0.661c-0.561-0.13-1.147-0.2-1.744-0.169c-0.589,0.02-1.217,0.05-1.864-0.108l-0.187-0.046
							c-0.397-0.097-0.64-0.497-0.543-0.895C527.109,66.555,527.191,66.426,527.3,66.329z"/>
						<path style="fill:#B06E53;" d="M519.919,66.329c-0.689-0.611-1.469-0.811-2.288-0.847c-0.812-0.019-1.646,0.077-2.437,0.346
							c-0.797,0.243-1.532,0.691-2.146,1.229c-0.64,0.518-1.09,1.203-1.465,1.878c-0.19,0.341-0.066,0.772,0.275,0.961
							c0.273,0.152,0.603,0.103,0.821-0.097l0.06-0.055c0.481-0.442,0.942-0.857,1.458-1.158c0.496-0.334,1.053-0.517,1.61-0.661
							c0.561-0.13,1.147-0.2,1.744-0.169c0.589,0.02,1.217,0.05,1.865-0.108l0.187-0.046c0.397-0.097,0.64-0.497,0.543-0.895
							C520.11,66.555,520.029,66.426,519.919,66.329z"/>
					</g>
					<path style="fill:#3D1525;" d="M523.267,72.196c-0.261,1.139-0.453,2.27-0.664,3.391c-0.219,1.117-0.424,2.233-0.742,3.291
						c-0.073,0.266-0.156,0.527-0.251,0.78c-0.077,0.207-0.262,0.604-0.256,0.976c-0.039,0.755,0.444,1.494,1.06,1.793
						c0.629,0.353,1.355,0.298,1.927,0.103c0.581-0.21,1.088-0.525,1.526-0.913c-1.06,0.398-2.298,0.709-3.044,0.146
						c-0.375-0.285-0.577-0.664-0.524-1.078c0.019-0.212,0.086-0.347,0.221-0.671c0.114-0.283,0.214-0.568,0.299-0.854
						c0.323-1.152,0.49-2.314,0.555-3.478C523.443,74.518,523.419,73.354,523.267,72.196z"/>
					<path style="fill:#3D1525;" d="M555.542,81.745c0.017-0.694-0.175-1.463-0.787-2.001c-0.651-0.533-1.577-0.484-2.281-0.22
						c-0.747,0.259-1.359,0.77-1.841,1.343c-0.494,0.58-0.852,1.208-1.144,1.93c-0.104,0.258,0.02,0.552,0.278,0.656
						c0.195,0.079,0.409,0.027,0.548-0.113l0.033-0.034c0.491-0.499,1.109-1.032,1.692-1.197c0.292-0.076,0.509-0.066,0.711,0.078
						c0.21,0.148,0.37,0.461,0.508,0.784c0.258,0.663,0.413,1.438-0.153,1.745c-0.593,0.337-1.462,0.256-2.237,0.153
						c0.732,0.321,1.54,0.591,2.458,0.33c0.466-0.151,0.837-0.681,0.868-1.159c0.045-0.478-0.024-0.913-0.143-1.338
						c-0.126-0.42-0.302-0.867-0.715-1.235c-0.419-0.376-1.078-0.464-1.547-0.319c-0.956,0.288-1.602,0.84-2.203,1.483l0.86,0.509
						c0.463-1.158,1.223-2.362,2.321-2.904c0.549-0.263,1.199-0.396,1.719-0.104C555.029,80.414,555.357,81.081,555.542,81.745z"/>
				</g>
			</g>
			<path style="fill:#B06E53;" d="M571.769,89.844c-1.51-3.02-5.29-4.61-6.26-7.85c-0.92-3.09,1.13-6.48,0.27-9.59
				c-0.78-2.85-3.67-4.49-6.27-5.89c-2.61-1.4-5.45-3.22-5.98-6.13c-0.77-4.19-4.72-7.52-8.37-9.72
				c-7.74-4.65-17.57-5.67-26.11-2.71c-2.82,0.98-5.65,2.51-7.1,5.12c-1.3,2.35-1.26,5.18-1.71,7.82c-0.69,4.01-2.56,7.8-5.34,10.77
				c-2.2,2.37-5.15,4.59-5.36,7.82c-0.14,2.29,1.2,4.51,0.94,6.79c-0.28,2.41-2.25,4.25-3.29,6.45c-1.79,3.8-0.37,8.82,3.15,11.11
				c2.96,1.94,6.8,1.93,10,3.43c3.21,1.51,5.65,4.46,9.01,5.58c1.38,0.46,2.8,0.57,4.22,0.46c0.38-2.45,0.61-5.02,0.4-7.09v-0.01
				c-4.97-1.09-12.06-4.25-13.85-9.31c-0.47-1.35-0.52-2.8-0.53-4.23c0-0.33-0.01-0.66-0.01-0.99c-0.04-3.19-0.03-6.53,0.1-9.9
				c0.219-5.967,0.827-12.052,2.279-17.683c2.547,0.876,5.451,0.686,7.841-0.563c1.152-0.602,2.225-1.445,3.508-1.651
				c2.408-0.385,4.567,1.564,6.984,1.889c2.557,0.343,5.247-0.976,7.393-2.408c-0.661,1.853-0.886,3.886-0.454,5.805
				c0.432,1.919,1.554,3.709,3.203,4.782c0.81,0.527,1.751,0.893,2.392,1.617c0.79,0.892,0.977,2.158,1.025,3.348
				c0.048,1.19-0.001,2.419,0.436,3.527c0.437,1.108,1.541,2.069,2.717,1.879c0.411-1.658,1.384-3.21,2.69-4.311
				c0.494-0.416,1.049-0.749,1.627-1.037c0,0.011,0,0.023-0.001,0.034c0.27-0.14,0.52-0.24,0.68-0.28c2.34-0.58,4.69,1.18,5.39,3.39
				c0.56,1.75,0.18,3.73-0.82,5.27c-0.83,1.29-2.18,2.48-3.62,3.03c-0.37,0.14-1.95,0.41-3.09,0.31c-0.38,2.3-1.84,11.49-1.76,20.31
				c3.17-0.02,6.33-0.95,8.99-2.69c1.62-1.05,3.2-2.44,5.12-2.5c1.44-0.05,2.83,0.67,4.27,0.55c1.42-0.11,2.67-1.04,3.49-2.21
				c0.82-1.16,1.27-2.54,1.67-3.91C572.439,95.514,573.049,92.424,571.769,89.844z"/>
		</g>
	</g>
	<g>
		<g>
			<g>
				<path style="fill:#E29579;" d="M376.15,115.291c-0.151,0.234-0.257,0.4-0.293,0.456c0.017-0.058,0.08-0.257,0.168-0.542
					c-1.085-0.762-2.242-1.377-3.349-1.728c-0.221,0.45-0.377,0.774-0.419,0.86c0.024-0.094,0.11-0.433,0.232-0.923
					c-0.81-0.236-1.587-0.328-2.277-0.217c-0.356,0.057-0.711,0.084-1.062,0.087c-1.015,2.325-1.909,4.162-2.433,3.943
					c-0.281-0.12-0.517-0.403-0.713-0.783c-0.102,0.77-0.185,1.537-0.246,2.265c2.499,2.67,1.028,7.307-2.213,8.28
					c0.018,0.059,0.033,0.118,0.052,0.177c-3.41,5.89-10.65,18.35-19.19,32.85c-6.274-5.511-12.038-10.651-16.809-15.022
					c-3.929,8.238-7.841,16.485-11.337,24.92c-0.005,0.012-0.009,0.024-0.014,0.035c4.264,4.128,9.094,8.619,14.44,13.247
					c0.126,0.109,0.253,0.219,0.38,0.328c10.249,8.837,26.24,5.044,31.348-7.487c0.034-0.084,0.068-0.167,0.102-0.251
					c6.26-15.38,11.08-32.16,12.63-49.45c0,0,3.909-4.526,5.648-6.737C380.159,118.041,378.09,116.682,376.15,115.291z"/>
				<g>
					<g>
						<g>
							<g>
								<g>
									<path style="fill:none;stroke:#3D1525;stroke-width:1.2202;stroke-miterlimit:10;" d="M341.997,150.877l5.468-6.976
										c5.815-7.419,14.718-11.753,24.144-11.753l0,0c9.426,0,18.329,4.334,24.144,11.753l5.468,6.976"/>
									<path style="fill:none;stroke:#3D1525;stroke-width:1.2202;stroke-miterlimit:10;" d="M375.854,118.323
										c0-2.344-1.9-4.245-4.245-4.245s-4.245,1.9-4.245,4.245s1.9,4.245,4.245,4.245v9.581"/>
								</g>
								<polygon style="fill:#4A5B7E;" points="407.206,147.662 398.5,147.662 343.066,147.662 334.36,147.662 329.195,246.984 
									356.665,246.984 366.852,186.044 374.713,186.044 384.9,246.984 412.37,246.984 								"/>
							</g>
							<g>
								<g>
									<g>
										<path style="fill:#1F2D4A;" d="M334.148,151.727c6.113-0.206,12.227-0.303,18.34-0.383
											c6.113-0.082,12.226-0.075,18.34-0.117c6.113,0.039,12.227,0.035,18.34,0.115l9.17,0.139
											c3.057,0.083,6.113,0.132,9.17,0.245c-3.057,0.113-6.113,0.162-9.17,0.245l-9.17,0.139
											c-6.113,0.08-12.227,0.076-18.34,0.115c-6.113-0.042-12.227-0.034-18.34-0.117
											C346.375,152.03,340.262,151.933,334.148,151.727z"/>
									</g>
									<g>
										<path style="fill:#1F2D4A;" d="M362.23,185.77c2.966-0.393,5.933-0.484,8.9-0.5c2.967,0.014,5.933,0.104,8.9,0.5
											c-2.967,0.396-5.933,0.486-8.9,0.5C368.163,186.253,365.197,186.163,362.23,185.77z"/>
									</g>
									<g>
										<path style="fill:#1F2D4A;" d="M377.583,185.77l2.675,15.259l2.53,15.283c0.771,5.106,1.587,10.204,2.322,15.316
											l1.085,7.67c0.326,2.563,0.686,5.12,0.984,7.687c-0.521-2.531-0.977-5.073-1.468-7.609l-1.36-7.626
											c-0.893-5.087-1.701-10.187-2.549-15.281c-0.768-5.107-1.582-10.206-2.3-15.321
											C378.802,196.031,378.037,190.919,377.583,185.77z"/>
									</g>
									<g>
										<path style="fill:#1F2D4A;" d="M363.944,185.77c-0.647,5.135-1.403,10.252-2.175,15.367
											c-0.77,5.115-1.628,10.215-2.438,15.323c-0.889,5.095-1.736,10.197-2.666,15.285l-1.414,7.629
											c-0.507,2.537-0.981,5.079-1.518,7.611c0.314-2.569,0.691-5.128,1.034-7.692l1.139-7.675
											c0.772-5.114,1.627-10.215,2.439-15.322c0.892-5.094,1.735-10.197,2.667-15.284
											C361.944,195.922,362.89,190.837,363.944,185.77z"/>
									</g>
									<g>
										<path style="fill:#1F2D4A;" d="M329.987,242.761c2.234-0.206,4.468-0.303,6.702-0.383
											c2.234-0.091,4.468-0.104,6.702-0.117c2.234,0.011,4.468,0.025,6.702,0.115l3.351,0.139
											c1.117,0.083,2.234,0.132,3.351,0.245c-1.117,0.113-2.234,0.162-3.351,0.245l-3.351,0.139
											c-2.234,0.091-4.468,0.104-6.702,0.115c-2.234-0.013-4.468-0.025-6.702-0.117
											C334.455,243.064,332.221,242.967,329.987,242.761z"/>
									</g>
									<g>
										<path style="fill:#1F2D4A;" d="M384.668,242.761c2.234-0.206,4.468-0.303,6.702-0.383
											c2.234-0.091,4.468-0.104,6.702-0.117c2.234,0.011,4.468,0.025,6.702,0.115l3.351,0.139
											c1.117,0.083,2.234,0.132,3.351,0.245c-1.117,0.113-2.234,0.162-3.351,0.245l-3.351,0.139
											c-2.234,0.091-4.468,0.104-6.702,0.115c-2.234-0.013-4.468-0.025-6.702-0.117
											C389.136,243.064,386.902,242.967,384.668,242.761z"/>
									</g>
									<g>
										<path style="fill:#1F2D4A;" d="M399.246,148.357c0.148,1.723,0.359,3.424,0.613,5.107
											c0.272,1.679,0.596,3.347,1.111,4.942c0.493,1.597,1.188,3.134,2.225,4.398c1.045,1.254,2.575,2.071,4.312,2.234
											c-0.859,0.115-1.755,0.021-2.611-0.256c-0.849-0.296-1.632-0.806-2.273-1.447c-1.281-1.296-2.072-2.956-2.606-4.628
											c-0.522-1.686-0.812-3.421-0.93-5.156C398.959,151.817,399.008,150.073,399.246,148.357z"/>
									</g>
									<g>
										<path style="fill:#1F2D4A;" d="M341.557,148.357c0.238,1.716,0.287,3.459,0.159,5.194c-0.119,1.736-0.408,3.47-0.93,5.156
											c-0.535,1.671-1.325,3.332-2.606,4.628c-0.64,0.641-1.424,1.15-2.273,1.447c-0.855,0.277-1.751,0.372-2.611,0.256
											c1.737-0.163,3.267-0.98,4.312-2.234c1.037-1.264,1.732-2.8,2.225-4.398c0.515-1.595,0.838-3.263,1.111-4.942
											C341.198,151.781,341.409,150.08,341.557,148.357z"/>
									</g>
									<g>
										<path style="fill:#1F2D4A;" d="M364.497,182.506c-2.849-3.536-6.745-6.057-11.056-7.004l0.542-0.266
											c-0.277,0.491,0.146,1.294,0.692,1.905c0.587,0.64,1.23,1.26,1.906,1.829c1.357,1.14,2.869,2.113,4.502,2.907
											c-1.755-0.466-3.442-1.262-4.946-2.331c-0.754-0.537-1.462-1.124-2.12-1.794c-0.335-0.351-0.651-0.739-0.875-1.226
											c-0.222-0.47-0.323-1.142-0.04-1.716l0.168-0.341l0.374,0.075c2.292,0.458,4.465,1.445,6.344,2.805
											c0.935,0.688,1.8,1.467,2.562,2.332C363.299,180.556,363.977,181.491,364.497,182.506z"/>
									</g>
									<g>
										<path style="fill:#1F2D4A;" d="M353.356,180.394c1.052,0.096,1.965,0.464,2.845,0.896c0.866,0.46,1.698,0.986,2.389,1.785
											c-1.053-0.094-1.966-0.462-2.845-0.896C354.88,181.718,354.048,181.192,353.356,180.394z"/>
									</g>
									<g>
										<path style="fill:#1F2D4A;" d="M378.657,182.241c1.036-1.816,2.305-3.434,3.628-5.005c1.347-1.551,2.75-3.053,4.387-4.355
											c-1.035,1.818-2.303,3.436-3.628,5.005C381.695,179.435,380.292,180.937,378.657,182.241z"/>
									</g>
									<g>
										<path style="fill:#1F2D4A;" d="M385.011,177.866c-0.775,0.619-1.453,1.276-2.027,2.006
											c-0.277,0.372-0.547,0.743-0.768,1.144c-0.116,0.215-0.213,0.369-0.262,0.548c-0.053,0.173-0.067,0.361-0.036,0.441
											c0.018,0.066,0.021,0.061,0.072,0.082c0.051,0.016,0.217-0.036,0.389-0.137c0.36-0.212,0.791-0.531,1.199-0.769
											c0.826-0.516,1.672-1.004,2.577-1.411c-0.659,0.743-1.376,1.406-2.115,2.04c-0.378,0.331-0.716,0.607-1.157,0.942
											c-0.235,0.152-0.531,0.326-0.972,0.309c-0.438-0.011-0.872-0.391-0.96-0.804c-0.091-0.396-0.014-0.706,0.074-0.993
											c0.094-0.287,0.253-0.551,0.39-0.749c0.297-0.421,0.618-0.824,0.996-1.169
											C383.154,178.647,384.048,178.114,385.011,177.866z"/>
									</g>
								</g>
							</g>
						</g>
						<g>
							<g>
								<path style="fill:#4A826B;" d="M418.757,156.275l-6.927,4.086l-1.173,4.83l10.86,18.413l12.895-7.606l-10.86-18.413
									L418.757,156.275z M415.66,158.932c0.47-0.277,1.08-0.12,1.361,0.357c0.277,0.47,0.12,1.08-0.35,1.357
									c-0.476,0.281-1.086,0.124-1.364-0.346C415.026,159.823,415.184,159.212,415.66,158.932z"/>
								<g>
									<g>
										<path style="fill:#FFFFFF;" d="M421.029,174.516c-1.102-0.891-1.616-2.334-1.784-3.742
											c-0.168-1.407-0.042-2.833-0.126-4.248s-0.411-2.883-1.337-3.955c1.328,0.646,2.533,1.209,3.727,2.079
											c1.193,0.87,2.252,1.971,2.872,3.311c0.62,1.34,0.763,2.94,0.183,4.299C423.982,173.619,422.505,174.517,421.029,174.516z
											"/>
									</g>
									<g>
										<path style="fill:#476765;" d="M421.11,168.005c0.584,2.912,0.745,5.93,0.463,8.93l-1.047-0.15
											c0.56-2.856,0.704-5.815,0.414-8.754L421.11,168.005z"/>
									</g>
								</g>
							</g>
							<path style="fill:none;stroke:#1F2D4A;stroke-miterlimit:10;" d="M405.051,148.748c0,0,6.905,3.404,11.112,10.638"/>
						</g>
					</g>
					<g>
						<path style="fill:#E29579;" d="M363.598,127.167c0,0-1.463-8.562-1.362-10.266c0.101-1.704,7.733-1.887,8.467-0.706
							c0.734,1.181-3.798,3.925-3.798,3.925s3.223,1.692,2.585,4.755C368.851,127.94,366.163,129.235,363.598,127.167z"/>
						<path style="fill:#E29579;" d="M380.364,115.869c-0.185,0.212-1.045-2.993-3.375-2.291c0,0-2.132-2.091-4.021-1.466
							c-0.059,0.02-0.118,0.042-0.177,0.067c0,0-3.672-1.662-4.349,2.677c0,0,0.472,3.637,2.132,3.126
							c0.699-0.215,1.149-0.985,1.437-1.804c-0.227,1.443-0.321,3.063,0.35,3.304c1.078,0.387,2.682-2.623,3.091-3.436
							c-0.406,0.837-1.874,4.06-0.793,4.808c0.141,0.098,0.31,0.106,0.495,0.06c-0.669,0.985-1.042,1.84-0.655,2.198
							c1.181,1.093,6.716-3.374,7.012-4.508C381.809,117.472,380.549,115.657,380.364,115.869z"/>
					</g>
				</g>
			</g>
			<path style="fill:#E29579;" d="M251.927,171.9c-4.151-3.729-8.182-7.592-12.042-11.636c-2.45-2.567-4.846-5.185-7.237-7.807
				c-14.273,24.539-33.51,63.829-34.4,104.736l0.164,0.037c-2.875,3.356-9.628,11.574-10.786,16.044
				c-0.094,0.364,0.229,0.644,0.582,0.506c0.744-0.291,2.127-1.304,4.373-4.563c0,0-2.907,7.899-2.263,9.292
				c0.644,1.393,5.77-8.103,5.77-8.103s-2.315,9.24-1.279,10.188c1.037,0.948,4.969-9.038,4.969-9.038s-1.835,9.666-1.028,9.704
				c2.01,0.094,4.956-13.406,6.345-12.926c1.231,0.425,1.849,3.798,1.867,5.569c0.004,0.372,0.305,0.646,0.677,0.594
				c0.732-0.102,1.79-0.575,1.894-2.435c0.137-2.438,0.328-7.266-1.618-12.836C209.218,256.574,234.101,205.937,251.927,171.9z"/>
			<g>
				<g>
					<path style="fill:#E29579;" d="M269.273,120.526c-1.258,0.577-2.724,1.026-4.377,1.323c3.647,3.271,7.391,6.403,11.377,9.233
						c0.484,0.184,0.968,0.368,1.445,0.56c4.238,1.7,8.8,3.747,11.787,7.322c3.757-4.868,8.497-9.163,12.002-14.234
						c-1.744-1.037-3.225-2.114-4.465-3.61c-0.304-1.097-1.038-3.87-1.587-7.006c-0.48-2.77-0.82-5.81-0.58-8.2v-0.01
						c0.11-1.18,0.36-2.2,0.81-2.95l-26.8-15.07c0.02,0.09,0.03,0.17,0.05,0.26C269.359,90.633,272.593,110.172,269.273,120.526z"/>
					<path style="fill:#D88567;" d="M295.455,114.114c-14.57,1.84-21.95-15.56-22.22-16.21c2.69,4.27,6.59,6.43,10.4,7.46
						c4.69,1.28,9.24,0.85,11.15,0.57c0.03-0.01,0.06-0.01,0.09-0.02C294.635,108.304,294.975,111.344,295.455,114.114z"/>
				</g>
				<g>
					<path style="fill:#4A826B;" d="M268.885,121.624c0,0,13.473,15.38,20.692,12.571c7.219-2.809,9.033-12.571,9.033-12.571
						l16.152,8.997l14.434,13.787l-11.719,29.362l-5.106-3.574l3.039,52.511h-72.316l9.787-48.344l-3.064,5.024l-20.641-23.489
						l15.689-21.904c5.467-7.634,14.225-12.287,23.614-12.367C268.613,121.625,268.749,121.624,268.885,121.624z"/>
					<g>
						<g>
							<g>
								<path style="fill:#F2E8E2;" d="M305.862,192.281h-20.807v-3.484h17.79l-6.301-10.913l3.018-1.742l7.809,13.526
									c0.31,0.539,0.31,1.203,0,1.742C307.06,191.949,306.485,192.281,305.862,192.281z"/>
							</g>
							<g>
								<path style="fill:#F2E8E2;" d="M277.939,192.281h-17.398c-0.623,0-1.198-0.332-1.509-0.871
									c-0.311-0.539-0.311-1.203,0-1.742l12.415-21.503l3.018,1.742l-10.907,18.89h14.381V192.281z"/>
							</g>
							<g>
								<path style="fill:#F2E8E2;" d="M292.323,170.573l-9.122-15.8l-5.917,10.248l-3.018-1.742l7.426-12.861
									c0.311-0.539,0.886-0.871,1.509-0.871l0,0c0.623,0,1.198,0.332,1.509,0.871l10.631,18.413L292.323,170.573z"/>
							</g>
							<g>
								<polygon style="fill:#F2E8E2;" points="280.192,190.539 287.542,194.783 287.542,186.295 								"/>
							</g>
							<g>
								<polygon style="fill:#F2E8E2;" points="275.078,165.325 267.849,169.774 275.317,173.809 								"/>
							</g>
							<g>
								<polygon style="fill:#F2E8E2;" points="296.344,174.011 296.41,165.524 289.026,169.71 								"/>
							</g>
						</g>
					</g>
					<g>
						<g>
							<g>
								<path style="fill:#295744;" d="M253.476,173.344c0.505-3.697,1.305-7.321,2.176-10.928c0.901-3.6,1.875-7.181,3.147-10.689
									c-0.503,3.697-1.303,7.322-2.176,10.928C255.72,166.254,254.745,169.835,253.476,173.344z"/>
							</g>
							<g>
								<path style="fill:#295744;" d="M266.222,123.027c1.106,1.75,2.297,3.438,3.6,5.034c1.28,1.61,2.659,3.141,4.162,4.527
									c1.513,1.37,3.106,2.657,4.882,3.622c1.762,0.963,3.699,1.647,5.678,1.724c0.987,0.087,1.977-0.025,2.946-0.218
									c0.964-0.199,1.91-0.613,2.864-0.945c1.862-0.798,3.613-1.83,5.188-3.107c3.101-2.598,5.301-6.312,6.047-10.382
									c-0.134,2.074-0.807,4.091-1.712,5.977c-0.968,1.86-2.268,3.559-3.829,4.985c-1.566,1.43-3.422,2.493-5.339,3.365
									c-0.992,0.362-1.944,0.799-3.008,1.038c-1.05,0.226-2.135,0.365-3.214,0.283c-2.164-0.118-4.228-0.89-6.064-1.928
									c-1.84-1.053-3.502-2.371-4.97-3.864C270.511,130.162,268.09,126.725,266.222,123.027z"/>
							</g>
							<g>
								<path style="fill:#295744;" d="M312.37,170.195c-0.711-3.405-1.119-6.838-1.454-10.278
									c-0.305-3.443-0.534-6.892-0.459-10.37c0.713,3.405,1.121,6.838,1.454,10.278
									C312.214,163.268,312.443,166.718,312.37,170.195z"/>
							</g>
							<g>
								<path style="fill:#295744;" d="M314.832,171.919c0.803-2.563,1.708-5.085,2.628-7.6c0.91-2.52,1.892-5.011,2.875-7.501
									c1.005-2.482,2.011-4.963,3.09-7.415l1.621-3.677c0.574-1.212,1.117-2.437,1.719-3.638c-0.392,1.285-0.844,2.546-1.264,3.82
									l-1.362,3.781c-0.91,2.52-1.892,5.011-2.876,7.501c-1.006,2.481-2.012,4.963-3.092,7.415
									C317.102,167.059,316.018,169.509,314.832,171.919z"/>
							</g>
							<g>
								<path style="fill:#295744;" d="M231.639,152.457c1.768,1.971,3.45,4.01,5.118,6.058c1.677,2.041,3.292,4.13,4.907,6.219
									c1.596,2.104,3.19,4.209,4.722,6.361l2.296,3.23c0.736,1.099,1.5,2.177,2.212,3.294c-0.892-0.98-1.733-1.998-2.602-2.996
									l-2.518-3.06c-1.676-2.042-3.292-4.131-4.905-6.221c-1.595-2.105-3.189-4.209-4.721-6.361
									C234.608,156.835,233.08,154.68,231.639,152.457z"/>
							</g>
						</g>
					</g>
				</g>
			</g>
		</g>
		<g>
			<path style="fill:#FFFFFF;" d="M335.866,298.729c-1.782-9.561-3.564-19.121-5.346-28.682c-3.03-16.254-6.18-32.847-14.321-47.238
				c-4.501-7.955-17.414-3.046-26.554-3.134c-8.639-0.083-17.918-1.399-26.668-3.943c-5.659-0.057-11.317-0.096-16.976-0.107
				c-3.595,14.752-12.62,27.975-17.985,42.357c-3.564,9.554-5.514,19.708-5.744,29.902c-0.12,5.322,0.466,11.206,4.315,14.882
				c2.741,2.619,6.665,3.604,10.445,3.897c3.78,0.293,7.601-0.002,11.355,0.527c10.779,1.52,19.781,9.606,30.565,11.093
				c7.639,1.053,15.289-1.324,22.635-3.672c10.277-3.285,20.554-6.57,30.831-9.855c1.181-0.378,2.451-0.82,3.142-1.849
				C336.361,301.719,336.129,300.14,335.866,298.729z"/>
			<g>
				<g>
					<g>
						<path style="fill:#DA8C70;" d="M273.193,433.739c1.113,0.932,2.228,1.862,3.347,2.786c5.093,1.048,10.18,2.127,15.26,3.241
							c-4.204-5.443-6.702-10.836-6.702-10.836l-0.312-0.33c0.001-0.001,0.001-0.001,0.001-0.002
							c1.948-2.474,7.984-10.147,16.34-20.887c-2.034-0.058-4.069-0.113-6.103-0.167c-7.007,0.5-13.999,0.216-20.986-0.334
							l-6.519,8.641c-2.193,1.865-4.287,4.267-5.802,6.341C264.174,427.051,269.102,430.314,273.193,433.739z"/>
						<path style="fill:#4A826B;" d="M309.793,447.497c-2.08-0.43-6.102-1.626-11.622-3.346c-5.53-6.31-12.354-14.892-12.354-14.892
							s-0.7-5.71-6.88-4.42c-6.19,1.29-12.16-0.91-13.6-2.6c-1.45-1.68-0.77-3.67-0.77-3.67l-1.08,0.21c0,0-6.75,4.06-5.82,9.72
							l21.48,13.76c0,0,19.156,11.678,19.166,11.668l13.65,0.01C311.963,453.937,314.433,448.447,309.793,447.497z"/>
					</g>
					<g>
						<path style="fill:#242A4B;" d="M316.795,233.089l-2.577-14.273c-0.434,0.125-0.906,0.202-1.423,0.209
							c-6.641,0.09-13.266,0.376-19.905,0.482c-6.561,0.88-13.127,1.804-19.755,1.901c-1.711,0.025-2.962-0.664-3.763-1.687
							c-0.314-0.014-0.629-0.02-0.942-0.037l2.577,20.043l42.894,94.128c0,0-44.426,75.574-44.426,75.519
							c0-0.056,16.851,18.609,16.851,18.609s67.915-85.617,67.404-90.894S316.795,233.089,316.795,233.089z"/>
						<g>
							<g>
								<g>
									<polygon style="fill:#414C87;" points="285.786,272.156 287.677,256.638 287.762,255.946 288.029,256.593 295.926,275.659 
										303.757,294.752 311.542,313.863 319.266,332.999 319.354,333.217 319.232,333.417 310.438,347.781 301.594,362.115 
										292.718,376.429 283.786,390.709 292.378,376.222 301.025,361.768 309.704,347.334 318.434,332.931 318.4,333.349 
										310.637,314.229 302.936,295.084 295.279,275.921 287.689,256.731 288.041,256.687 									"/>
								</g>
								<g>
									<path style="fill:#414C87;" d="M344.706,339.805c0.328-0.607,0.699-0.965,1.096-1.322c0.416-0.336,0.828-0.644,1.482-0.867
										c-0.016,0.697-0.384,1.228-0.836,1.629C345.979,339.624,345.396,339.9,344.706,339.805z"/>
								</g>
								<g>
									<path style="fill:#414C87;" d="M311.604,229.093c0.421,1.426,0.867,2.829,1.318,4.22c0.466,1.386,0.955,2.758,1.551,4.071
										c0.589,1.311,1.275,2.585,2.2,3.638c0.91,1.047,2.176,1.834,3.697,1.783c-0.714,0.224-1.514,0.196-2.264-0.025
										c-0.747-0.24-1.421-0.681-1.988-1.209c-1.151-1.06-1.922-2.412-2.556-3.777c-0.606-1.384-1.069-2.815-1.389-4.273
										C311.84,232.066,311.644,230.583,311.604,229.093z"/>
								</g>
							</g>
						</g>
					</g>
				</g>
				<g>
					<g>
						<path style="fill:#E29579;" d="M311.517,450.553c-0.387-0.534-1.06-0.758-1.714-0.673
							c-11.699,1.514-26.285-8.554-26.285-8.554l-1.865-0.538h1.359l0.195-33.061c-5.488-0.171-10.971-0.636-16.453-1.165
							c-3.3-0.173-6.597-0.384-9.893-0.631c2.032,18.826,3.53,32.233,3.785,34.51c-1.237,4.31-1.042,9.001-0.745,11.05
							c0.25,1.727,1.732,3.002,3.477,3.002h46.518c0.532,0,1.053-0.225,1.383-0.642
							C312.412,452.418,312.035,451.268,311.517,450.553z"/>
						<path style="fill:#4A826B;" d="M259.331,443.472c0,0-3.493,7.064,0.348,11.319h52.947c0,0,2.471-5.489-2.169-6.447
							c-4.64-0.958-26.67-8.106-26.67-8.106s-3.672-4.426-8.183,0c-4.511,4.426-10.723,5.788-12.851,5.15
							c-2.128-0.639-2.629-2.68-2.629-2.68L259.331,443.472z"/>
					</g>
					<g>
						<path style="fill:#242A4B;" d="M285.904,220.63c-7.355,0.218-15.009,1.104-22.268-0.421c-2.586-0.544-3.658-2.486-3.591-4.497
							c-4.503-0.04-9.007-0.072-13.51-0.082c-2.004,7.344-5.09,20.475-4.974,31.356c0.17,16.062,17.021,187.911,17.021,187.911
							h24.458l3.286-194.827v-19.452C286.186,220.62,286.045,220.625,285.904,220.63z"/>
						<g>
							<g>
								<g>
									<path style="fill:#414C87;" d="M283.115,423.359c-0.15-3.278-0.191-6.554-0.215-9.83c-0.035-3.276,0.008-6.55,0.051-9.825
										c0.067-3.274,0.136-6.548,0.283-9.821l0.223-4.909c0.111-1.636,0.188-3.272,0.329-4.907
										c0.085,1.639,0.106,3.277,0.161,4.916l0.055,4.914c0.035,3.276-0.008,6.55-0.053,9.825
										c-0.069,3.274-0.137,6.548-0.285,9.821C283.529,416.816,283.377,420.089,283.115,423.359z"/>
								</g>
								<g>
									<path style="fill:#414C87;" d="M246.327,233.435l0.122,12.631l0.061,6.317c0.032,2.104,0.001,4.219,0.14,6.306
										c0.5,8.385,1.247,16.784,1.954,25.171l4.337,50.335l4.276,50.341l2.087,25.175l2.002,25.183l-2.489-25.14l-2.366-25.151
										l-4.505-50.323c-1.399-16.784-2.836-33.564-4.105-50.359l-0.914-12.6c-0.29-4.203-0.592-8.397-0.763-12.62
										c-0.099-2.119-0.027-4.216-0.019-6.322l0.061-6.314L246.327,233.435z"/>
								</g>
								<g>
									<path style="fill:#414C87;" d="M271.176,347.478c0.893-0.133,1.555-0.306,2.226-0.584c0.672-0.273,1.265-0.613,1.997-1.143
										c-0.029,0.936-0.772,1.721-1.619,2.068C272.932,348.164,271.853,348.124,271.176,347.478z"/>
								</g>
								<g>
									<path style="fill:#414C87;" d="M256.138,232.001c0.272,1.787,0.305,3.614,0.125,5.426c-0.168,1.814-0.577,3.62-1.272,5.339
										c-0.725,1.694-1.785,3.335-3.336,4.436c-0.767,0.55-1.634,0.943-2.529,1.182c-0.905,0.21-1.826,0.267-2.726,0.193
										c1.795-0.228,3.474-0.877,4.776-1.991c1.304-1.111,2.225-2.609,2.893-4.206c0.669-1.605,1.106-3.319,1.424-5.061
										C255.796,235.575,256.023,233.802,256.138,232.001z"/>
								</g>
							</g>
						</g>
					</g>
				</g>
			</g>
			<g>
				<g>
					<g>
						<path style="fill:#FFFFFF;" d="M289.606,223.709c-7.694-5.799-18.351-7.97-27.856-9.549c-4.251-0.706-8.563-1.285-12.86-0.956
							c-2.383,0.182-4.916,0.733-6.551,2.477c-1.252,1.335-1.794,3.183-2.084,4.99c-0.593,3.694-0.294,7.528,0.864,11.086
							c7.211,0.837,14.509-0.622,21.592-2.215C271.353,227.598,280.964,225.654,289.606,223.709z"/>
						<path style="fill:#FFFFFF;" d="M317.651,228.579c0.778-3.42,1.109-6.982,0.908-10.5c-0.24-4.194-3.569-7.55-7.753-7.931
							c-3.909-0.356-7.88-0.026-11.671,0.992c-5.992,1.611-11.512,4.939-15.733,9.488
							C293.893,226.499,305.677,229.65,317.651,228.579z"/>
						<path style="fill:#FFFFFF;" d="M283.479,220.84c-2.917,6.145-8.822,10.194-13.983,14.625
							c-4.949,4.249-9.688,9.811-9.803,16.253c-0.01,0.54,0.188,1.068,0.526,1.489c4.305,5.345,9.993,9.121,16.47,11.341
							c1.074,0.368,2.25-0.037,2.872-0.986C287.853,250.906,288.202,235.4,283.479,220.84z"/>
						<path style="fill:#FFFFFF;" d="M283.677,222.325c0.611,6.152,2.66,12.157,5.937,17.4c2.309,3.694,5.204,6.995,7.515,10.688
							c2.8,4.475,4.708,9.506,5.593,14.71c0.241,1.415,1.66,2.307,3.03,1.878c5.489-1.718,10.272-5.764,12.589-11.024
							c1.809-4.108-1.756-8.534-4.389-12.169c-2.633-3.636-6.093-6.589-9.675-9.295c-3.582-2.706-7.326-5.205-10.73-8.132
							c-1.372-1.18-2.702-2.439-4.281-3.324C287.687,222.173,285.415,221.82,283.677,222.325z"/>
					</g>
				</g>
				<g>
					<g>
						<g>
							<path style="fill:#A8CCE9;" d="M280.2,226.11c0.047-0.947,0.366-1.754,0.748-2.528c0.41-0.759,0.886-1.484,1.635-2.068
								c-0.045,0.949-0.364,1.755-0.748,2.528C281.423,224.801,280.947,225.526,280.2,226.11z"/>
						</g>
						<g>
							<path style="fill:#A8CCE9;" d="M283.999,221.695c-0.287,2.744-0.823,5.459-1.511,8.136c-0.677,2.681-1.564,5.307-2.579,7.881
								c-1.038,2.564-2.206,5.078-3.564,7.487c-0.685,1.201-1.392,2.387-2.128,3.555c-0.775,1.144-1.544,2.288-2.39,3.379
								c0.325-0.609,0.657-1.212,0.999-1.807l0.968-1.819c0.647-1.21,1.272-2.429,1.869-3.662c1.185-2.469,2.314-4.96,3.319-7.502
								c1.027-2.534,1.927-5.117,2.772-7.721C282.587,227.01,283.307,224.363,283.999,221.695z"/>
						</g>
						<g>
							<path style="fill:#A8CCE9;" d="M285.753,221.894c1.65,2.261,3.239,4.554,4.849,6.832l4.829,6.827l4.846,6.815l2.435,3.403
								c0.793,1.15,1.621,2.274,2.405,3.434c-0.962-1.018-1.866-2.083-2.792-3.133l-2.663-3.241
								c-1.757-2.176-3.42-4.426-5.047-6.701c-1.607-2.289-3.18-4.602-4.652-6.981C288.484,226.778,287.053,224.374,285.753,221.894
								z"/>
						</g>
						<g>
							<path style="fill:#A8CCE9;" d="M286.122,233.435c-0.641-1.38-0.98-2.812-1.248-4.257c-0.238-1.45-0.402-2.912-0.263-4.428
								c0.643,1.379,0.982,2.812,1.248,4.256C286.094,230.458,286.258,231.92,286.122,233.435z"/>
						</g>
						<g>
							<path style="fill:#A8CCE9;" d="M287.865,219.769c1.958-0.125,3.873,0.052,5.779,0.301c1.901,0.28,3.792,0.633,5.641,1.291
								c-1.958,0.127-3.873-0.05-5.779-0.301C291.605,220.778,289.714,220.425,287.865,219.769z"/>
						</g>
						<g>
							<path style="fill:#A8CCE9;" d="M240.5,230.384c0.489,0.108,0.689,0.196,0.889,0.343c0.187,0.163,0.313,0.34,0.52,0.798
								c-0.402,0.319-0.85,0.21-1.149-0.021C240.474,231.257,240.274,230.843,240.5,230.384z"/>
						</g>
						<g>
							<path style="fill:#A8CCE9;" d="M316.455,228.663c-0.13-0.65,0.017-1.17,0.229-1.66c0.24-0.476,0.547-0.921,1.133-1.234
								c0.132,0.651-0.015,1.171-0.229,1.66C317.346,227.904,317.039,228.349,316.455,228.663z"/>
						</g>
					</g>
				</g>
			</g>
		</g>
		<g>
			<g>
				<path style="fill:#E29579;" d="M305.185,58.454c-3.5-9-20-12.5-31.5-2.5c-5.342,4.645-6.474,13.065-6.157,20.751
					c-0.278-0.136-0.521-0.234-0.684-0.275c-2.341-0.584-4.693,1.181-5.394,3.382c-0.558,1.753-0.181,3.734,0.821,5.278
					c0.832,1.283,2.183,2.479,3.626,3.029c0.363,0.138,1.979,0.407,3.12,0.309c1.098,5.058,3.677,9.728,7.662,13.039
					c5.025,4.175,11.46,5.85,17.864,4.521c4.979-1.033,12.348-4.224,14.177-9.392c0.476-1.345,0.52-2.799,0.537-4.225
					C309.39,81.48,309.186,68.743,305.185,58.454z"/>
				<g>
					<g>
						<g>
							<path style="fill:#3D1525;" d="M300.889,76.515c0,1.67,0.661,3.023,1.477,3.023c0.815,0,1.477-1.353,1.477-3.023
								c0-1.669-0.661-3.023-1.477-3.023C301.55,73.492,300.889,74.846,300.889,76.515z"/>
						</g>
						<g>
							<ellipse style="fill:#3D1525;" cx="289.577" cy="76.515" rx="1.477" ry="3.023"/>
						</g>
					</g>
					<g>
						<path style="fill:#3D1525;" d="M301.515,85.66c-0.513,0.997-1.292,1.857-2.226,2.531c-0.933,0.674-2.101,1.107-3.305,1.097
							c-1.196-0.03-2.37-0.437-3.29-1.135c-0.482-0.316-0.859-0.757-1.275-1.134c-0.348-0.447-0.687-0.895-0.991-1.358
							c0.456,0.334,0.872,0.689,1.29,1.034c0.465,0.282,0.88,0.63,1.35,0.866c0.917,0.525,1.92,0.813,2.92,0.83
							c1.005,0.024,2.006-0.294,2.931-0.792C299.84,87.089,300.709,86.429,301.515,85.66z"/>
						<path style="fill:#3D1525;" d="M297.526,91.02c-0.421,0.374-0.998,0.509-1.555,0.527c-0.559-0.018-1.127-0.169-1.556-0.527
							c0.546,0.087,1.042,0.194,1.556,0.174C296.486,91.215,296.988,91.126,297.526,91.02z"/>
					</g>
					<g>
						<path style="fill:#CF543E;" d="M292.281,66.031c-0.689-0.611-1.469-0.811-2.288-0.847c-0.812-0.019-1.646,0.077-2.437,0.346
							c-0.797,0.243-1.532,0.691-2.145,1.229c-0.64,0.518-1.09,1.203-1.465,1.878c-0.189,0.341-0.067,0.771,0.275,0.961
							c0.273,0.152,0.603,0.103,0.821-0.097l0.06-0.055c0.481-0.442,0.942-0.857,1.458-1.158c0.496-0.334,1.053-0.517,1.61-0.661
							c0.562-0.13,1.147-0.2,1.744-0.169c0.589,0.02,1.217,0.05,1.864-0.108l0.187-0.046c0.397-0.097,0.64-0.498,0.543-0.895
							C292.471,66.257,292.39,66.127,292.281,66.031z"/>
						<path style="fill:#CF543E;" d="M299.661,66.031c0.689-0.611,1.469-0.811,2.288-0.847c0.812-0.019,1.646,0.077,2.437,0.346
							c0.797,0.243,1.532,0.691,2.146,1.229c0.64,0.518,1.09,1.203,1.464,1.878c0.19,0.341,0.067,0.771-0.275,0.961
							c-0.273,0.152-0.603,0.103-0.821-0.097l-0.06-0.055c-0.481-0.442-0.942-0.857-1.458-1.158
							c-0.496-0.334-1.053-0.517-1.61-0.661c-0.561-0.13-1.147-0.2-1.744-0.169c-0.589,0.02-1.217,0.05-1.864-0.108l-0.187-0.046
							c-0.397-0.097-0.64-0.498-0.543-0.895C299.471,66.257,299.552,66.127,299.661,66.031z"/>
					</g>
					<path style="fill:#3D1525;" d="M298.952,71.615c0.261,1.139,0.453,2.27,0.664,3.391c0.219,1.117,0.424,2.232,0.742,3.291
						c0.073,0.266,0.156,0.528,0.251,0.78c0.077,0.207,0.262,0.604,0.257,0.975c0.039,0.755-0.444,1.494-1.06,1.793
						c-0.629,0.353-1.355,0.298-1.927,0.103c-0.581-0.21-1.088-0.525-1.526-0.913c1.06,0.398,2.298,0.709,3.044,0.146
						c0.375-0.285,0.577-0.664,0.524-1.078c-0.019-0.212-0.086-0.347-0.221-0.671c-0.114-0.283-0.214-0.568-0.299-0.854
						c-0.323-1.152-0.49-2.314-0.555-3.478C298.776,73.937,298.799,72.773,298.952,71.615z"/>
					<path style="fill:#3D1525;" d="M263.177,81.165c-0.017-0.694,0.175-1.463,0.787-2.001c0.651-0.533,1.577-0.484,2.281-0.22
						c0.747,0.259,1.359,0.77,1.841,1.343c0.494,0.579,0.852,1.208,1.144,1.93c0.104,0.258-0.02,0.552-0.278,0.656
						c-0.195,0.079-0.409,0.027-0.548-0.113l-0.033-0.034c-0.491-0.499-1.109-1.032-1.692-1.197
						c-0.292-0.076-0.509-0.066-0.711,0.078c-0.21,0.148-0.37,0.461-0.508,0.784c-0.258,0.663-0.413,1.438,0.153,1.745
						c0.593,0.337,1.462,0.256,2.237,0.153c-0.732,0.321-1.54,0.591-2.458,0.33c-0.466-0.151-0.837-0.681-0.868-1.159
						c-0.045-0.478,0.024-0.913,0.143-1.338c0.126-0.42,0.302-0.867,0.715-1.235c0.419-0.376,1.078-0.464,1.547-0.319
						c0.957,0.288,1.602,0.84,2.203,1.483l-0.86,0.509c-0.463-1.158-1.223-2.362-2.321-2.904c-0.549-0.263-1.199-0.396-1.719-0.104
						C263.69,79.834,263.361,80.501,263.177,81.165z"/>
				</g>
			</g>
			<path style="fill:#F06D55;" d="M312.273,55.107c-1.82-3.3-5.38-5.53-9.15-5.64c-0.75-1.51-2.17-2.62-3.73-3.26
				c-1.56-0.64-3.26-0.86-4.94-0.95c-5.02-0.27-10.17,0.58-14.61,2.94c-3.36,1.78-5.97,4.52-8.8,7.07c-0.31-0.41-0.64-0.8-1.05-1.11
				c-0.42-0.3-0.92-0.5-1.44-0.47c-0.71,0.04-1.35,0.54-1.68,1.18c-0.33,0.63-0.39,1.38-0.29,2.09c0.1,0.71,0.4,1.71,0.64,2.39
				c-1.37-0.72-3.16-0.03-4.11,1.2c-0.95,1.22-1.24,2.84-1.31,4.39c-0.2,3.82,0.67,7.69,2.46,11.07c0.09,0.18,0.18,0.37,0.28,0.56
				c0.73-0.27,1.51-0.33,2.3-0.14c0.132,0.033,0.332,0.115,0.548,0.218c1.438,2.079,2.71,4.273,3.776,6.565
				c1.087,0.05,1.991-0.437,2.807-1.157c0.816-0.72,1.416-1.65,1.944-2.602c2.592-4.673,3.659-10.175,3-15.478
				c2.388,1.368,5.476,1.67,8.185,1.187c2.709-0.482,5.233-1.942,7.002-4.05c2.959,3.789,8.067,5.705,12.706,4.443
				c0.244,0.545,0.518,1.089,0.821,1.618c0.728,3.71,1.16,7.554,1.391,11.394c1.04-1.24,1.89-2.66,2.47-4.18
				c1.03-2.67,1.22-5.68,0.6-8.47C314.013,62.667,314.083,58.417,312.273,55.107z"/>
		</g>
	</g>
	<g>
		<rect x="100.786" y="453.437" style="fill:#DEC5B6;" width="572.764" height="1"/>
	</g>
</g>
</svg>
